<?xml version="1.0" encoding="utf-8"?>
<!-- Generator: Adobe Illustrator 16.0.0, SVG Export Plug-In . SVG Version: 6.00 Build 0)  -->
<!DOCTYPE svg PUBLIC "-//W3C//DTD SVG 1.1//EN" "http://www.w3.org/Graphics/SVG/1.1/DTD/svg11.dtd">
<svg version="1.1" id="Layer_1" xmlns="http://www.w3.org/2000/svg" xmlns:xlink="http://www.w3.org/1999/xlink" x="0px" y="0px"
	 width="500px" height="500px" viewBox="0 0 500 500" enable-background="new 0 0 500 500" xml:space="preserve">
<g>
	<path fill-rule="evenodd" clip-rule="evenodd" fill="#2F2F2F" d="M14.078,124.792c1.143-5.608,1.767-11.386,3.52-16.802
		c10.482-32.37,33.094-51.768,65.59-60.165c5.051-1.303,10.351-1.688,15.562-2.38c1.569-0.211,3.19-0.033,5.027-0.033
		c0,11.635,0,23.19,0,34.932c-9.25,1.139-18.031,3.632-25.992,8.472c-19.268,11.696-29.89,28.574-29.908,51.398
		c-0.066,86.952,0.098,173.905-0.099,260.872c-0.07,29.876,22.468,54.479,51.867,59.162c4.475,0.711,9.062,0.951,13.593,0.951
		c90.903,0.061,181.8,0,272.699,0.08c18.748,0.018,35.232-5.469,48.591-18.917c11.124-11.189,16.817-24.798,16.916-40.607
		c0.095-15.673-0.028-31.346,0.095-47.015c0.018-1.519,0.729-3.353,1.742-4.486c9.92-11.066,19.966-22.003,29.97-33
		c0.793-0.862,1.452-1.837,2.174-2.756c0.225,0.141,0.46,0.292,0.693,0.436c0.057,0.559,0.154,1.116,0.154,1.679
		c0,31.445,0.624,62.905-0.183,94.333c-0.951,37.147-20.406,62.398-53.538,77.669c-11.134,5.127-23.063,7.456-35.335,7.466
		c-81.799,0.056-163.602,0.051-245.405,0.056c-16.779,0-33.605,0.688-50.343-0.207c-36.183-1.925-63.342-18.652-79.78-51.463
		c-3.968-7.909-6.133-16.438-7.075-25.256c-0.088-0.876-0.351-1.734-0.534-2.591C14.078,319.343,14.078,222.067,14.078,124.792z"/>
	<path fill-rule="evenodd" clip-rule="evenodd" fill="#2F2F2F" d="M163.323,4.669c2.647,1.382,5.59,2.404,7.9,4.217
		c4.437,3.477,5.936,8.453,5.927,13.982c-0.023,18.495-0.042,36.984,0.065,55.474c0.01,1.527,0.698,3.351,1.692,4.503
		c8.542,9.943,7.965,24.947-1.471,34.051c-9.456,9.127-24.389,9.263-34.042,0.314c-9.647-8.945-10.636-23.978-2.047-33.897
		c1.541-1.771,2.038-3.462,2.028-5.688c-0.07-17.482-0.033-34.96-0.033-52.443c0-11.958,2.877-16.212,13.913-20.514
		C159.274,4.669,161.303,4.669,163.323,4.669z"/>
	<path fill-rule="evenodd" clip-rule="evenodd" fill="#2F2F2F" d="M253.11,4.669c7.107,2.09,12.146,6.232,13.641,13.828
		c0.28,1.471,0.299,3.007,0.304,4.526c0.015,18.18,0.043,36.37-0.027,54.561c-0.006,2.23,0.511,3.917,2.033,5.684
		c8.604,9.999,7.661,24.895-1.979,33.924c-9.558,8.955-24.519,8.837-34.045-0.267c-9.465-9.052-10.07-24.028-1.556-34.051
		c1.045-1.228,1.724-3.172,1.734-4.794c0.121-17.473,0.076-34.96,0.076-52.442c0-12.38,2.59-16.316,13.751-20.969
		C249.072,4.669,251.09,4.669,253.11,4.669z"/>
	<path fill-rule="evenodd" clip-rule="evenodd" fill="#2F2F2F" d="M343.507,4.669c1.562,0.67,3.182,1.205,4.644,2.038
		c5.97,3.397,8.852,8.593,8.847,15.458c-0.027,18.606-0.052,37.204,0.064,55.816c0.021,1.611,0.714,3.547,1.749,4.77
		c8.654,10.215,8.018,25.107-1.627,34.295c-9.502,9.062-24.468,9.062-34.04-0.009c-9.648-9.143-10.272-24.062-1.604-34.286
		c1.036-1.218,1.729-3.158,1.738-4.774c0.122-17.393,0.408-34.787-0.047-52.161c-0.271-10.534,3.36-17.774,13.607-21.147
		C339.057,4.669,341.291,4.669,343.507,4.669z"/>
	<path fill-rule="evenodd" clip-rule="evenodd" fill="#2F2F2F" d="M339.045,292.536c0,42.161-34.12,76.297-76.395,76.409
		c-42.27,0.116-76.588-34.238-76.453-76.556c0.123-42.292,34.249-76.325,76.453-76.25
		C304.901,216.219,339.036,250.364,339.045,292.536z M256.193,310.501c-0.979-0.839-1.743-1.471-2.483-2.133
		c-9.061-8.055-18.077-16.165-27.201-24.15c-5.552-4.849-13.26-4.445-17.979,0.731c-4.741,5.196-4.667,13.186,0.633,18.003
		c13.18,11.938,26.459,23.767,39.861,35.441c5.617,4.902,13.148,3.998,18.101-1.61c11.04-12.497,22.093-24.966,33.146-37.453
		c6.43-7.264,12.924-14.475,19.272-21.808c3.866-4.46,4.344-10.094,1.579-14.929c-2.634-4.598-7.609-6.963-13.129-6.167
		c-3.477,0.502-6.077,2.451-8.359,5.038C285.249,277.743,270.836,293.983,256.193,310.501z"/>
	<path fill-rule="evenodd" clip-rule="evenodd" fill="#2F2F2F" d="M451.53,356.018c-0.116,0.131,0.554-179.959-0.064-179.645
		c0-11.471-0.329-22.59,0.061-33.676c1.181-34.164-24.966-58.712-54.762-62.193c-0.394-0.057-0.777-0.165-1.354-0.282
		c0-11.592,0-23.152,0-34.927c8.611-0.309,16.92,0.755,24.955,3.163c33.483,10.042,55.859,31.207,63.983,65.769
		c1.753,7.459,1.378,193.191,1.879,200.938"/>
	<path fill-rule="evenodd" clip-rule="evenodd" fill="#2F2F2F" d="M204.37,368.003c-0.553,0-1.26,0-1.95,0
		c-36.389,0-72.783,0.011-109.167-0.005c-7.708,0-12.45-6.339-9.911-13.147c1.373-3.654,4.681-6.043,8.617-6.043
		c30.833-0.016,61.664-0.012,92.487,0.04c0.932,0.005,2.161,0.197,2.727,0.797C192.941,355.67,198.592,361.8,204.37,368.003z"/>
	<path fill-rule="evenodd" clip-rule="evenodd" fill="#2F2F2F" d="M198.958,221.898c-4.915,6.003-9.723,11.949-14.643,17.797
		c-0.539,0.637-1.687,1.086-2.554,1.086c-29.998,0.042-60.005,0.061-89.994-0.019c-5.309-0.014-9.23-4.47-9.08-9.742
		c0.141-5.238,4.029-9.207,9.272-9.211c35.354-0.033,70.712-0.019,106.071-0.014C198.409,221.796,198.789,221.875,198.958,221.898z"
		/>
	<path fill-rule="evenodd" clip-rule="evenodd" fill="#2F2F2F" d="M320.781,367.928c5.735-6.146,11.264-12.127,16.897-18.011
		c0.656-0.684,1.878-1.157,2.844-1.161c22.219-0.058,44.435-0.07,66.654-0.024c5.496,0.015,9.479,4.269,9.385,9.746
		c-0.093,5.436-4.086,9.404-9.741,9.423c-15.65,0.066-31.301,0.019-46.955,0.027c-12.127,0-24.244,0-36.361,0
		C322.534,367.928,321.564,367.928,320.781,367.928z"/>
	<path fill-rule="evenodd" clip-rule="evenodd" fill="#2F2F2F" d="M326.23,221.814c0.365-0.018,0.946-0.094,1.538-0.094
		c26.244-0.004,52.498-0.028,78.757,0.015c6.785,0.004,11.012,5.079,9.783,11.484c-0.839,4.381-4.418,7.493-8.978,7.498
		c-21.306,0.057-42.606,0.047-63.908-0.019c-0.872,0-2.016-0.426-2.549-1.054C335.969,233.786,331.161,227.845,326.23,221.814z"/>
</g>
</svg>
