<?xml version="1.0" encoding="utf-8"?>
<!-- Generator: Adobe Illustrator 16.0.0, SVG Export Plug-In . SVG Version: 6.00 Build 0)  -->
<!DOCTYPE svg PUBLIC "-//W3C//DTD SVG 1.1//EN" "http://www.w3.org/Graphics/SVG/1.1/DTD/svg11.dtd">
<svg version="1.1" id="Layer_1" xmlns="http://www.w3.org/2000/svg" xmlns:xlink="http://www.w3.org/1999/xlink" x="0px" y="0px"
	 width="500px" height="500px" viewBox="0 0 500 500" enable-background="new 0 0 500 500" xml:space="preserve">
<path fill-rule="evenodd" clip-rule="evenodd" fill="#2F302E" d="M78.313,241.956c0-35.376,0-67.929,0-101.601
	c7.515-1.774,13.604-3.211,20.796-4.911c0.621-13.466,1.231-26.699,1.896-40.956c6.571-1.363,12.818-2.656,19.381-4.01
	c0.917-11.054,1.773-21.308,2.665-32.029c6.606,0,12.168,0,18.682,0c0.787,11.233,1.499,21.391,2.281,32.544
	c8.275,0.87,15.462,1.621,24.16,2.534c1.197,8.284,2.417,16.768,3.723,25.834c7.052,1.149,13.535,2.206,22.553,3.678
	c0,37.241,0,74.785,0,112.331c1.853,0.075,3.704,0.153,5.557,0.228c0-17.445,0-34.886,0-53.415c16.82,0,30.679,0,45.726,0
	c1.342,7.899,2.639,15.536,3.932,23.173c1.189-0.043,2.377-0.092,3.564-0.14c0-31.234,0-62.468,0-93.658
	c8.538-2.014,14.855-3.509,23.191-5.474C264.428,57.147,309.529,43.974,334.438,16c0,29.238,0,58.47,0,88.599
	c8.611,1.402,14.902,2.425,24.388,3.971c0,35.729,0,71.45,0,107.167c1.891,0.005,3.779,0.009,5.666,0.014
	c0-31.125,0-62.25,0-100.112c20.822,20.805,43.479,34.498,51.746,54.224c8.162,19.486,1.783,45.066,1.783,70.743
	c24.039,0,45.141,0,70.297,0c-10.294,27.061-19.153,50.4-28.041,73.731c-12.451,32.702-25.226,65.286-37.206,98.158
	c-3.979,10.937-8.693,16.651-22.023,16.563c-101.365-0.646-202.743-0.206-304.113-0.72c-6.011-0.031-15.632-3.915-17.454-8.459
	c-23.187-57.858-45.246-116.168-68.96-177.923C34.558,241.956,55.612,241.956,78.313,241.956z M101.425,295.689
	c98.818,0,196.644,0,292.636,0c0-41.705,0-82.08,0-122.454c-2.281-0.052-4.563-0.105-6.838-0.162c0,21.74,0,43.48,0,65.168
	c-18.127,0-33.243,0-50.301,0c0-37.242,0-72.784,0-108.412c-8.371-1.136-14.82-2.015-24.108-3.272c0-19.862,0-39.199,0-61.856
	c-25.725,18.73-8.938,43.598-17.808,63.206c-5.619,1.341-11.866,2.831-20.08,4.789c0,32.278,0,64.005,0,96.781
	c-16.833,0-31.466,0-46.922,0c-1.054-6.553-2.041-12.674-3.024-18.795c-1.083,0.07-2.167,0.14-3.241,0.209
	c0,19.127,0,38.255,0,57.709c-17.066,0-32.016,0-48.981,0c0-42.737,0-83.43,0-123.926c-8.926-1.721-15.86-3.058-22.221-4.281
	c-1.214-9.363-2.228-17.174-3.268-25.191c-9.109,0-16.344,0-25.021,0c-0.856,14.671-1.66,28.455-2.481,42.453
	c-6.859,1.416-12.373,2.547-18.341,3.779C101.425,205.785,101.425,248.881,101.425,295.689z M101.993,319.593
	c0,29.343,0,57.277,0,85.781c99.027,0,196.736,0,294.227,0c0-29.604,0-57.436,0-85.781
	C297.243,319.593,200.007,319.593,101.993,319.593z"/>
<path fill-rule="evenodd" clip-rule="evenodd" fill="#2F302E" stroke="#FFFFFF" stroke-width="3" stroke-miterlimit="10" d="
	M242.805,484.457c-1.122,0-1.979,0-2.839,0c-18.07,0-36.145,0.009-54.21-0.005c-15.077-0.012-25.825-10.822-25.825-25.942
	c0-21.819,0-43.629,0-65.438c0-15.305,10.691-25.997,25.988-25.997c5.569,0.005,11.145,0.045,16.715-0.021
	c1.463-0.021,2.237,0.319,2.74,1.866c12.193,37.678,24.448,75.339,36.694,112.994C242.308,482.652,242.5,483.404,242.805,484.457z"
	/>
<path fill-rule="evenodd" clip-rule="evenodd" fill="#2F302E" stroke="#FFFFFF" stroke-width="3" stroke-miterlimit="10" d="
	M255.746,484.563c4.824-14.843,9.485-29.216,14.165-43.587c7.764-23.831,15.558-47.647,23.266-71.497
	c0.584-1.814,1.323-2.51,3.302-2.452c5.252,0.157,10.529,0.332,15.764-0.005c12.727-0.82,26.502,8.556,26.577,26.019
	c0.096,21.824,0.135,43.65-0.013,65.47c-0.109,15.492-10.905,25.931-26.39,25.947c-17.999,0.021-36,0.069-54.001,0.105
	C257.643,484.563,256.866,484.563,255.746,484.563z M303.675,445.642c0-0.008,0-0.012,0-0.017c5.1,0,10.197,0.021,15.291-0.014
	c2.753-0.017,4.449-1.444,4.418-3.6c-0.035-2.062-1.674-3.486-4.3-3.495c-10.04-0.038-20.071-0.038-30.111,0
	c-2.621,0.014-4.255,1.446-4.285,3.53c-0.039,2.189,1.646,3.583,4.412,3.591C293.959,445.652,298.816,445.642,303.675,445.642z"/>
<path fill-rule="evenodd" clip-rule="evenodd" fill="#2F302E" stroke="#FFFFFF" stroke-width="3" stroke-miterlimit="10" d="
	M203.061,319.536c-0.031-25.594,20.718-46.359,46.311-46.347c25.559,0.014,46.098,20.521,46.216,46.154
	c0.118,25.371-20.569,46.303-45.788,46.32C223.857,365.681,203.097,345.19,203.061,319.536z"/>
<path fill-rule="evenodd" clip-rule="evenodd" fill="#2F302E" stroke="#FFFFFF" stroke-width="3" stroke-miterlimit="10" d="
	M249.29,461.35c-1.909-5.854-3.679-11.276-5.449-16.704c-5.482-16.79-10.927-33.588-16.479-50.348
	c-0.572-1.729-0.263-2.642,1.114-3.774c6.951-5.696,13.801-11.517,20.77-17.362c0.533,0.381,0.992,0.659,1.403,1.001
	c6.654,5.57,13.286,11.171,19.971,16.706c0.974,0.809,1.351,1.481,0.913,2.801c-7.248,22.063-14.435,44.149-21.645,66.229
	C249.778,460.24,249.618,460.567,249.29,461.35z"/>
<path fill-rule="evenodd" clip-rule="evenodd" fill="#2F302E" d="M303.675,427.748c-4.858,0-9.716,0.008-14.575-0.006
	c-2.766-0.009-4.451-1.402-4.412-3.591c0.03-2.083,1.664-3.517,4.285-3.53c10.04-0.039,20.071-0.039,30.111,0
	c2.626,0.01,4.265,1.434,4.3,3.495c0.031,2.154-1.665,3.584-4.418,3.601c-5.094,0.034-10.191,0.013-15.291,0.013
	C303.675,427.733,303.675,427.738,303.675,427.748z"/>
</svg>
