<?xml version="1.0" encoding="utf-8"?>
<!-- Generator: Adobe Illustrator 16.0.0, SVG Export Plug-In . SVG Version: 6.00 Build 0)  -->
<!DOCTYPE svg PUBLIC "-//W3C//DTD SVG 1.1//EN" "http://www.w3.org/Graphics/SVG/1.1/DTD/svg11.dtd">
<svg version="1.1" id="Layer_1" xmlns="http://www.w3.org/2000/svg" xmlns:xlink="http://www.w3.org/1999/xlink" x="0px" y="0px"
	 width="500px" height="500px" viewBox="0 0 500 500" enable-background="new 0 0 500 500" xml:space="preserve">
<g>
	<path fill-rule="evenodd" clip-rule="evenodd" fill="#2F2F2F" d="M3.822,178.379c0-8.54,5.125-14.256,8.738-17.378
		c4.784-3.938,11.057-5.929,17.293-6.067c8.872-0.196,17.75-0.054,26.875-0.054c0,7.77,0,15.285,0,23.401
		c-4.998,0-9.46-0.004-14.576,0.004c-9.77,0.018-14.803,4.994-14.805,14.723c-0.009,83.251-0.002,166.502,0.021,249.756
		c0.002,9.087,5.29,14.362,14.316,14.429c4.319,0.03,8.656,0.222,12.95-0.116c1.452-0.107,3.47-1.271,4.092-2.521
		c15.003-30.066,29.85-60.206,44.72-90.337c11.629-23.563,23.214-47.141,34.921-70.662c1.682-3.381,3.697-6.659,6.011-9.631
		c5.488-7.057,12.721-10.197,21.835-10.175c64.271,0.151,128.539,0.08,192.811,0.08c5.337,0,5.351-0.005,5.354-5.306
		c0.02-18.977,0.028-37.963,0.038-56.941c0-1.416,0-2.837,0-4.784c8.655,1.238,15.03,5.186,19.468,12.134
		c2.955,4.632,4.086,9.796,4.033,15.333c-0.118,12.95-0.052,26.101-0.052,39.532c1.407-0.033,2.932,0.004,4.306,0.013
		c28.402,0.009,56.81,0.009,85.215,0.018c5.945,0,11.555,0.923,15.262,6.29c1.099,1.599,1.925,3.386,2.876,5.087
		c1.343,2.553,0.481,6.019,0,7.065c-1.734,3.787-3.298,7.657-5.236,11.338c-15.131,28.66-30.352,57.283-45.513,85.932
		c-12.778,24.148-25.382,48.396-38.325,72.457c-6.57,12.211-16.646,18.769-31.075,18.736c-76.579-0.135-153.163-0.031-229.747-0.011
		c-37.311,0.006-74.619-0.015-111.93,0.024c-9.86,0.009-19.142,0.231-24.97-8.016c-2.431-3.442-4.907-10.112-4.907-14.722
		C3.822,364.802,3.822,271.591,3.822,178.379z"/>
	<path fill-rule="evenodd" clip-rule="evenodd" fill="#2F2F2F" d="M346.938,258.766c-6.353,0-12.31,0-18.704,0
		c0-1.934,0-3.596,0-5.266c0-47.381,0-94.762,0-142.151c0-7.444-0.965-8.433-8.26-8.433c-12.957-0.009-25.918,0.004-38.876-0.009
		c-8.634-0.004-12.222-3.604-12.261-12.544c-0.063-14.923-0.013-29.852-0.022-44.771c-0.003-6.438-1.07-7.551-7.561-7.551
		c-54.192-0.022-108.379-0.018-162.572-0.009c-5.777,0.005-6.463,0.78-6.463,7.075c0,100.525,0.022,201.051-0.086,301.578
		c-0.002,3.394-0.749,7.051-2.144,10.13c-3.815,8.433-8.16,16.616-12.855,26.024c-1.486-2.513-2.83-4.068-3.357-5.857
		c-0.616-2.095-0.712-4.393-0.712-6.598C73.035,261.88,73.033,153.365,73.04,44.857c0.002-16.59,9.194-25.877,25.684-25.882
		c58.511-0.023,117.02,0.04,175.53-0.076c5.971-0.009,10.396,2.036,14.395,6.441c18.015,19.841,36.226,39.514,54.398,59.208
		c2.695,2.918,4.226,6.175,4.226,10.21c-0.025,53.795-0.018,107.591-0.029,161.387C347.242,256.916,347.068,257.683,346.938,258.766
		z M316.347,83.748c-9.697-10.518-18.599-20.172-28.021-30.395c0,10.861,0,20.59,0,30.395
		C297.449,83.748,306.263,83.748,316.347,83.748z"/>
	<path fill-rule="evenodd" clip-rule="evenodd" fill="#2F2F2F" d="M121.814,147.321c56.796,0.053,116.734,0.044,173.529,0.036
		c1.179,0,2.369,0.026,3.531-0.031c0,0,4.751-0.526,4.751-4.75c0-5.185-4.77-5.185-4.77-5.185
		c-28.794,0.022-59.938,0.009-88.729,0.009c-19.762,0-39.523,0-59.284,0c-9.553,0-19.107-0.026-28.66,0.026
		c0,0-4.978,0.17-5.009,4.95C117.141,147.156,121.814,147.321,121.814,147.321z"/>
	<path fill-rule="evenodd" clip-rule="evenodd" fill="#2F2F2F" d="M121.814,176.125c56.796,0.048,116.734,0.036,173.529,0.036
		c1.179,0,2.369,0.031,3.531-0.036c0,0,4.751-0.526,4.751-4.749c0-5.186-4.77-5.186-4.77-5.186
		c-28.794,0.022-59.938,0.009-88.729,0.009c-19.762,0-39.523,0-59.284,0c-9.553,0.004-19.107-0.027-28.66,0.036
		c0,0-4.978,0.161-5.009,4.94C117.141,175.96,121.814,176.125,121.814,176.125z"/>
	<path fill-rule="evenodd" clip-rule="evenodd" fill="#2F2F2F" d="M121.814,204.925c56.796,0.054,116.734,0.036,173.529,0.036
		c1.179,0,2.369,0.031,3.531-0.036c0,0,4.751-0.525,4.751-4.749c0-5.185-4.77-5.185-4.77-5.185
		c-28.794,0.027-59.938,0.014-88.729,0.014c-19.762-0.005-39.523-0.005-59.284,0c-9.553,0-19.107-0.027-28.66,0.026
		c0,0-4.978,0.165-5.009,4.949C117.141,204.76,121.814,204.925,121.814,204.925z"/>
	<path fill-rule="evenodd" clip-rule="evenodd" fill="#2F2F2F" d="M121.814,233.725c56.796,0.053,116.734,0.036,173.529,0.036
		c1.179,0,2.369,0.026,3.531-0.031c0,0,4.751-0.526,4.751-4.754c0-5.181-4.77-5.181-4.77-5.181
		c-28.794,0.021-59.938,0.009-88.729,0.009c-19.762,0-39.523-0.004-59.284,0c-9.553,0-19.107-0.027-28.66,0.026
		c0,0-4.978,0.169-5.009,4.949C117.141,233.561,121.814,233.725,121.814,233.725z"/>
	<path fill-rule="evenodd" clip-rule="evenodd" fill="#2F2F2F" d="M147.814,261.531c-6.971,3.917-13.061,4.517-17.26,11.274
		c-0.477,0.776-0.928,1.564-1.425,2.326c-1.34,2.04-1.126,5.377-4.57,5.688c-3.8,0.46-8.344-0.957-11.24-4.365
		c-1.839-1.956-2.674-4.606-1.888-7.502c1.474-4.709,4.902-7.137,9.373-7.314C129.74,261.447,143.392,261.508,147.814,261.531z"/>
	<path fill-rule="evenodd" clip-rule="evenodd" fill="#FCFCFC" d="M272.167,441.738c-22.268,0-44.539,0.01-66.804-0.008
		c-7.009,0-10.947-3.696-10.958-10.674c-0.065-35.469-0.076-70.951-0.022-106.424c0.013-8.174,3.666-11.84,11.963-11.854
		c44.349-0.043,88.699,0.015,133.042,0.09c7.429,0.013,11.236,3.644,11.258,11.172c0.101,35.683,0.087,71.366,0,107.053
		c-0.021,7.346-4.203,10.82-12.317,10.82c-22.048,0.005-44.106,0-66.161,0C272.167,441.855,272.167,441.797,272.167,441.738z
		 M204.684,323.23c0,25.493,0,50.542,0,76.633c7.686-6.819,14.732-12.811,21.45-19.149c4.036-3.805,7.132-3.769,10.81,0.48
		c6.167,7.115,12.69,13.922,19.321,21.139c9.455-11.773,18.479-23.058,27.559-34.293c6.528-8.081,7.291-8.06,14.349-0.914
		c12.295,12.461,24.631,24.863,36.979,37.261c1.539,1.554,3.229,2.962,5.417,4.949c0-29.473,0-57.676,0-86.105
		C295.086,323.23,250.04,323.23,204.684,323.23z"/>
</g>
</svg>
