<?xml version="1.0" encoding="utf-8"?>
<!-- Generator: Adobe Illustrator 16.0.0, SVG Export Plug-In . SVG Version: 6.00 Build 0)  -->
<!DOCTYPE svg PUBLIC "-//W3C//DTD SVG 1.1//EN" "http://www.w3.org/Graphics/SVG/1.1/DTD/svg11.dtd">
<svg version="1.1" id="Layer_1" xmlns="http://www.w3.org/2000/svg" xmlns:xlink="http://www.w3.org/1999/xlink" x="0px" y="0px"
	 width="500px" height="500px" viewBox="0 0 500 500" enable-background="new 0 0 500 500" xml:space="preserve">
<g>
	<path fill-rule="evenodd" clip-rule="evenodd" fill="#0F0F0F" stroke="#FFFFFF" stroke-width="2" stroke-miterlimit="10" d="
		M261.839,449.921c-25.294-39.279-50.58-76.706-65.375-119.747c-9.667-28.126-1.636-52.617,20.259-71.696
		c22.278-19.413,48.262-22.753,74.888-10.066c26.291,12.529,39.484,34.47,39.184,63.745c-0.067,6.536-1.728,13.342-3.983,19.528
		C311.441,373.846,287.042,411.049,261.839,449.921z M261.744,345.318c19.302,0.02,34.428-14.802,34.655-33.983
		c0.249-19.658-14.806-34.993-34.415-35.078c-19.594-0.073-34.781,15.197-34.657,34.852
		C227.452,330.308,242.53,345.296,261.744,345.318z"/>
	<path fill-rule="evenodd" clip-rule="evenodd" fill="#2F302E" d="M448.143,252.062c0.022,67.475,0.057,134.968,0,202.443
		c-0.023,27.943-12.396,40.273-40.221,40.273c-103.92,0.032-207.843,0.054-311.763,0.05c-25.386-0.009-38.603-12.687-38.627-37.755
		c-0.097-137.212-0.097-274.424,0.011-411.637c0.022-24.553,13.089-37.471,37.396-37.49c105.272-0.056,210.545-0.056,315.821,0
		c24.249,0.019,37.271,13.044,37.327,37.62C448.22,114.4,448.128,183.229,448.143,252.062z M80.278,251.287
		c0,67.471-0.021,134.945,0.023,202.419c0,15.447,2.595,18.25,17.933,18.258c102.998,0.065,206.008,0.057,309.009-0.013
		c15.296-0.015,18.043-2.877,18.054-18.171c0.031-134.948,0.031-269.884,0.009-404.833c0-15.34-2.604-18.198-17.985-18.216
		c-102.561-0.116-205.107-0.148-307.667-0.038c-17.583,0.019-19.375,2.158-19.375,19.53
		C80.269,117.244,80.278,184.263,80.278,251.287z"/>
	<path fill-rule="evenodd" clip-rule="evenodd" fill="#2F302E" d="M251.529,151.454c-38.198,0.013-76.392,0.013-114.581,0.013
		c-7.923,0-16.704-0.064-16.208-10.956c0.417-9.528,8.482-10.094,16.087-10.089c77.283,0.042,154.566,0.069,231.854,0.032
		c8.208-0.009,16.583,0.807,16.266,11.25c-0.301,9.782-8.716,9.75-16.145,9.75C329.715,151.435,290.628,151.445,251.529,151.454z"/>
	<path fill-rule="evenodd" clip-rule="evenodd" fill="#2F302E" d="M143.719,199.715c-11.226,0-23.671-0.061-22.971-10.952
		c0.592-9.527,12.024-10.095,22.797-10.095c109.529,0.047-10.945,0.07,98.581,0.038c11.632-0.01,23.501,0.807,23.05,11.245
		c-0.424,9.783-12.354,9.75-22.877,9.75"/>
	<path fill-rule="evenodd" clip-rule="evenodd" fill="#2F302E" d="M252.763,83.422c38.646,0,77.29,0,115.929,0
		c7.277,0,15.933-0.663,16.131,9.417c0.223,11.012-8.923,10.469-16.68,10.469c-76.832,0.023-153.667,0.01-230.502,0
		c-1.8,0-3.605,0.01-5.395-0.069c-6.636-0.307-11.789-3.011-11.571-10.284c0.231-7.219,5.418-9.52,12.108-9.515
		c22.023,0.005,44.045-0.144,66.067-0.195c17.965-0.037,35.933-0.014,53.913-0.014C252.763,83.301,252.763,83.357,252.763,83.422z"
		/>
</g>
</svg>
