<?xml version="1.0" encoding="utf-8"?>
<!-- Generator: Adobe Illustrator 16.0.0, SVG Export Plug-In . SVG Version: 6.00 Build 0)  -->
<!DOCTYPE svg PUBLIC "-//W3C//DTD SVG 1.1//EN" "http://www.w3.org/Graphics/SVG/1.1/DTD/svg11.dtd">
<svg version="1.1" id="Layer_1" xmlns="http://www.w3.org/2000/svg" xmlns:xlink="http://www.w3.org/1999/xlink" x="0px" y="0px"
	 width="500px" height="500px" viewBox="0 0 500 500" enable-background="new 0 0 500 500" xml:space="preserve">
<g>
	<g>
		<path fill-rule="evenodd" clip-rule="evenodd" fill="#2F302E" d="M115.621,320.411c0-51.852,0-103.706,0-155.556
			c0.695-2.091,1.146-4.303,2.129-6.25c4.014-7.97,10.755-11.326,19.503-11.322c58.489,0.028,116.968,0.015,175.448,0.015
			c18.194,0,36.384,0.002,54.576-0.002c5.324,0,10.458,1.162,14.572,4.704c3.899,3.35,6.53,8.446,6.53,12.856
			c0,3.016,0,6.038,0,9.056c0,3.223-1.992,4.212-4.478,4.221c-2.479-0.009-4.241-2.256-4.134-4.744
			c0.031-0.708,0.051-3.254,0.051-3.965c-0.006-9.214-4.341-13.599-13.474-13.599c-76.075-0.002-152.149-0.004-228.226,0.017
			c-1.765,0.002-3.577,0.08-5.274,0.498c-4.335,1.066-7.616,3.857-8.05,8.238c-0.58,5.845-0.142,11.794-0.142,18.107
			c3.113,0,6.286,0,9.463,0c82.375,0,164.756,0.007,247.134-0.021c2.85,0,5.479,0.229,7.129,2.968c0,44.925,0,89.853,0,134.78
			c-0.693,2.092-1.146,4.301-2.129,6.248c-3.961,7.851-10.571,11.32-19.239,11.318c-51.201-0.019-102.409-0.008-153.616-0.008
			c-25.557,0-51.116-0.016-76.673,0.006c-7.009,0.008-13.004-2.336-17.005-8.17C117.819,327.037,116.951,323.565,115.621,320.411z
			 M124.237,251.624c0,1.358,0,2.319,0,3.28c0,20.325-0.002,40.65,0,60.976c0,9.156,4.384,13.558,13.548,13.558
			c76.33,0.009,152.66,0.007,228.989,0c8.479,0,13.037-4.523,13.042-12.95c0.014-20.684,0.008-41.364,0-62.044
			c0-0.93-0.082-1.863-0.129-2.819C294.447,251.624,209.536,251.624,124.237,251.624z M124.344,242.581
			c85.236,0,170.287,0,255.321,0c0-4.818,0-9.384,0-14.022c-85.181,0-170.18,0-255.321,0
			C124.344,233.259,124.344,237.753,124.344,242.581z"/>
	</g>
	<path fill-rule="evenodd" clip-rule="evenodd" fill="#2F302E" d="M175.551,268.429c8.253,0,16.51-0.013,24.76,0.012
		c1.147,0.005,2.336,0.041,3.428,0.339c1.928,0.526,2.947,1.96,2.962,3.938c0.017,1.977-0.983,3.428-2.902,3.979
		c-1.087,0.313-2.275,0.371-3.416,0.375c-16.598,0.023-33.196,0.023-49.792,0c-1.143-0.004-2.337-0.057-3.415-0.394
		c-1.885-0.591-2.874-2.014-2.825-4.024c0.05-2.009,1.088-3.383,3.01-3.887c1.096-0.287,2.279-0.321,3.428-0.326
		C159.042,268.416,167.296,268.429,175.551,268.429z"/>
	<path fill-rule="evenodd" clip-rule="evenodd" fill="#2F302E" d="M252.001,277.031c-8.699,0-17.396-0.015-26.092,0.011
		c-2.016,0.007-3.704-0.506-4.671-2.412c-1.199-2.369,0.072-5.173,2.736-5.881c1.008-0.268,2.106-0.262,3.162-0.262
		c16.596-0.015,33.195-0.01,49.791-0.01c0.621,0,1.246-0.027,1.859,0.023c2.733,0.229,4.476,1.96,4.428,4.362
		c-0.042,2.408-1.807,4.12-4.589,4.139c-8.875,0.058-17.749,0.019-26.624,0.019C252.001,277.025,252.001,277.028,252.001,277.031z"
		/>
	<path fill-rule="evenodd" clip-rule="evenodd" fill="#2F302E" d="M326.454,268.472c8.254,0,16.51-0.003,24.76,0.006
		c0.975,0.002,1.97-0.032,2.922,0.146c2.094,0.393,3.257,1.774,3.396,3.863c0.13,1.979-0.829,3.438-2.701,4.123
		c-0.816,0.296-1.732,0.416-2.605,0.416c-17.218,0.024-34.437,0.021-51.654,0.008c-0.701,0-1.425-0.063-2.104-0.24
		c-2.287-0.603-3.461-2.126-3.235-4.494c0.209-2.238,1.568-3.596,3.8-3.723c2.745-0.155,5.5-0.097,8.251-0.102
		C313.677,268.464,320.064,268.472,326.454,268.472z"/>
</g>
</svg>
