<?xml version="1.0" encoding="utf-8"?>
<!-- Generator: Adobe Illustrator 16.0.0, SVG Export Plug-In . SVG Version: 6.00 Build 0)  -->
<!DOCTYPE svg PUBLIC "-//W3C//DTD SVG 1.1//EN" "http://www.w3.org/Graphics/SVG/1.1/DTD/svg11.dtd">
<svg version="1.1" id="Layer_1" xmlns="http://www.w3.org/2000/svg" xmlns:xlink="http://www.w3.org/1999/xlink" x="0px" y="0px"
	 width="500px" height="500px" viewBox="0 0 500 500" enable-background="new 0 0 500 500" xml:space="preserve">
<g>
	<path fill="#2F2F2F" d="M398.256,316.634c-18.47-50.485-54.187-35.711-112.056-75.113c0,9.849-1.232,20.932-3.693,27.088
		c-1.234,7.394-6.159,17.246-9.854,20.938c-13.543,19.706-87.429,41.868-104.672-50.491
		c-20.931,28.324-80.038,27.094-103.438,60.344c-24.63,35.712-25.861,112.061-30.785,129.297v16.015
		c8.62,17.235,4.924,14.77,24.628,22.157c11.083,3.696,24.63,8.622,35.711,11.089c110.828,28.318,147.774,16.005,247.512,4.922"/>
	<path fill="#2F2F2F" d="M212.315,3.85c-43.104,3.701-78.811,40.643-75.119,94.825c3.694,46.795-6.155,22.163-1.23,50.486
		c2.466,16.015,20.937,62.805,34.481,78.815c14.777,16.005,38.177,41.864,76.349,28.319c25.856-8.623,44.327-30.79,56.646-56.644
		c2.46-7.387,4.917-12.318,6.157-19.706c3.691-11.079,4.916-11.079,8.612-20.932c8.627-22.167,0-29.555,2.466-45.564
		c7.388-39.408-2.466-66.497-25.862-82.507C277.582,17.399,236.943,1.394,212.315,3.85z"/>
	<path fill="#2F2F2F" d="M398.256,316.634c0,0,18.533,136.923-56.646,166.244l-3.926-3.322l1.175-16.608l-1.175-111.832
		L398.256,316.634z"/>
	<g>
		<path fill="#2F2F2F" stroke="#FFFFFF" stroke-width="2" stroke-miterlimit="10" d="M414.52,468.111l-18.153-26.63
			c-7.438-10.26-12.192-17.891-17.848-26.406h-0.595c-4.164,8.516-9.222,16.146-15.472,26.406l-16.656,26.63h-51.764l58.01-74.426
			l-55.919-72.677h52.055l17.549,26.846c5.95,8.945,10.415,16.149,15.173,24.437h0.594c4.758-9.376,8.627-15.926,13.686-24.437
			l16.955-26.846h51.764l-56.522,71.806l59.498,75.297H414.52z"/>
	</g>
</g>
</svg>
