<?xml version="1.0" encoding="utf-8"?>
<!-- Generator: Adobe Illustrator 16.0.0, SVG Export Plug-In . SVG Version: 6.00 Build 0)  -->
<!DOCTYPE svg PUBLIC "-//W3C//DTD SVG 1.1//EN" "http://www.w3.org/Graphics/SVG/1.1/DTD/svg11.dtd">
<svg version="1.1" id="Layer_1" xmlns="http://www.w3.org/2000/svg" xmlns:xlink="http://www.w3.org/1999/xlink" x="0px" y="0px"
	 width="500px" height="500px" viewBox="0 0 500 500" enable-background="new 0 0 500 500" xml:space="preserve">
<g>
	<path fill-rule="evenodd" clip-rule="evenodd" fill="#2F302E" d="M189.595,477.688c-54.18,0-108.36,0.018-162.544-0.009
		c-15.47-0.01-19.421-3.998-19.434-19.726c-0.043-41.069,0.117-82.134-0.127-123.202c-0.052-8.258,2.472-14.249,8.974-19.616
		c18.068-14.951,35.832-30.291,53.338-45.896c7.791-6.933,13.791-7.051,23.624-1.971c16.133,8.346,22.319,19.493,24.317,37.405
		c4.373,39.325,11.528,78.345,17.707,117.469c2.281,14.432,10.015,20.859,24.63,20.912c19.325,0.065,38.649,0.078,57.979-0.01
		c14.44-0.061,22.346-6.64,24.6-21.151c5.869-37.772,11.472-75.593,17.166-113.396c0.21-1.365,0.646-2.76,0.515-4.099
		c-2.315-23.775,15.514-31.92,32.179-40.122c3.788-1.857,11.427-0.437,14.912,2.397c20.597,16.752,40.716,34.129,60.415,51.931
		c3.283,2.964,5.228,9.043,5.271,13.717c0.396,42.792,0.318,85.583,0.179,128.374c-0.04,12.521-4.889,16.951-18.052,16.966
		C300.029,477.727,244.812,477.683,189.595,477.688z"/>
	<path fill-rule="evenodd" clip-rule="evenodd" fill="#2F302E" d="M295.392,126.691c-0.149,58.249-47.653,105.512-105.527,105.007
		c-58.27-0.515-104.562-47.648-104.322-106.206c0.24-57.721,47.225-104.414,105.006-104.344
		C248.771,21.213,295.534,68.295,295.392,126.691z"/>
	<path fill-rule="evenodd" clip-rule="evenodd" fill="#2F302E" d="M191.457,329.314c10.629-2.738,14.694,3.017,16.089,13.447
		c2.502,18.765,6.196,37.379,8.44,56.171c0.507,4.29-1.882,9.858-4.726,13.392c-3.811,4.725-9.013,8.662-14.314,11.72
		c-3.153,1.822-8.817,3.112-11.328,1.499c-7.461-4.804-14.132-10.935-20.598-17.092c-1.461-1.386-1.43-5.053-1.073-7.525
		c2.913-20.453,6.209-40.855,9.087-61.309C174.608,328.429,182.344,328.416,191.457,329.314z"/>
	<path fill-rule="evenodd" clip-rule="evenodd" fill="#2F302E" d="M190.536,279.791c4.474,0,9-0.41,13.407,0.147
		c2.761,0.354,6.785,1.553,7.591,3.479c0.881,2.093-0.715,5.887-2.297,8.211c-3.475,5.105-7.958,9.519-11.411,14.633
		c-4.984,7.364-9.663,7.879-15.239,0.745c-4.028-5.141-8.69-9.802-12.544-15.068c-1.644-2.246-3.502-6.614-2.495-8.005
		c1.64-2.255,5.473-3.567,8.546-3.978C180.831,279.329,185.714,279.791,190.536,279.791z"/>
</g>
<polygon fill="#2F302E" stroke="#FFFFFF" stroke-width="4" stroke-miterlimit="10" points="323.785,454.198 371.394,404.292 
	432.244,409.477 471.782,368.582 467.345,349.293 433.462,384.418 379.434,369.515 362.733,316.425 395.54,277.493 378.305,277.78 
	338.134,318.277 353.142,383.005 302.196,434.748 286.871,419.309 330.847,373.614 316.259,313.172 367.391,256.111 
	433.099,263.453 385.193,319.678 398.166,354.446 425.817,361.867 483.503,312.728 492.624,377.621 441.714,430.967 
	381.086,426.442 334.872,473.61 "/>
</svg>
