<?xml version="1.0" encoding="utf-8"?>
<!-- Generator: Adobe Illustrator 16.0.0, SVG Export Plug-In . SVG Version: 6.00 Build 0)  -->
<!DOCTYPE svg PUBLIC "-//W3C//DTD SVG 1.1//EN" "http://www.w3.org/Graphics/SVG/1.1/DTD/svg11.dtd">
<svg version="1.1" id="Layer_1" xmlns="http://www.w3.org/2000/svg" xmlns:xlink="http://www.w3.org/1999/xlink" x="0px" y="0px"
	 width="500px" height="500px" viewBox="0 0 500 500" enable-background="new 0 0 500 500" xml:space="preserve">
<g>
	<path fill-rule="evenodd" clip-rule="evenodd" fill="#2F302E" d="M249.718,145.532c4.292-5.258,7.728-9.4,11.078-13.613
		c12.901-16.194,25.121-19.757,43.545-12.63c16.188,6.25,27.255,22.479,25.409,39.807c-2.908,27.231-6.168,54.475-10.803,81.453
		c-1.307,7.607-7.996,14.271-12.084,21.438c-3.308,5.796-8.354,11.411-9.296,17.604c-5.686,37.498-10.391,75.144-15.471,112.734
		c-1.522,11.243-7.858,17.578-19.406,17.529c-37.478-0.165-43.33,5.564-47.527-37.543c-2.905-29.763-7.821-59.329-11.631-89.007
		c-1.19-9.275-3.43-16.883-11.364-23.813c-5.941-5.192-9.507-14.877-10.944-23.12c-4.042-23.227-6.192-46.783-9.549-70.144
		c-4.558-31.728,18.354-54.817,49.943-49.469c3.63,0.609,7.369,3.669,9.987,6.562C237.756,130.121,243.252,137.515,249.718,145.532z
		"/>
	<path fill-rule="evenodd" clip-rule="evenodd" fill="#2F302E" d="M322.288,362.452c2.127-15.286,4.134-29.722,6.275-45.129
		c33.107,7.203,63.942,16.754,88.537,39.715c27.794,25.94,27.738,61.752-0.007,87.885c-22.868,21.532-51.532,31.532-81.417,38.151
		c-67.627,14.984-135.057,14.473-200.783-8.426c-19.768-6.887-39.297-18.222-55.077-31.951
		c-26.739-23.274-25.409-58.615-0.398-83.956c19.157-19.409,62.016-38.526,92.347-40.56c1.984,14.188,3.995,28.513,6.033,43.069
		c-13.369,4.479-26.47,7.803-38.629,13.244c-12.738,5.694-30.876,9.979-31.07,26.033c-0.191,16.216,17.802,20.865,30.648,26.287
		c40.841,17.253,83.974,20.999,127.739,19.091c31.729-1.38,62.978-5.984,92.422-18.689c8.058-3.479,16.025-7.715,23.041-12.938
		c12.754-9.502,13.241-18.68-0.129-26.866c-13.843-8.479-29.4-14.196-44.359-20.784
		C333.283,364.791,328.579,364.139,322.288,362.452z"/>
	<path fill-rule="evenodd" clip-rule="evenodd" fill="#2F302E" d="M249.955,100.595c-26.439-0.228-46.85-21.212-46.529-47.833
		c0.307-25.683,21.196-46.316,46.927-46.36c26.224-0.045,47.257,21.091,47.18,47.411
		C297.454,80.232,276.516,100.821,249.955,100.595z"/>
	<path fill-rule="evenodd" clip-rule="evenodd" fill="#161616" stroke="#FFFFFF" stroke-width="2" stroke-miterlimit="10" d="
		M322.173,426.919c-26.268-40.795-52.531-79.668-67.896-124.364c-10.039-29.215-1.697-54.653,21.043-74.463
		c23.134-20.167,50.124-23.641,77.772-10.464c27.309,13.022,41.009,35.809,40.699,66.207c-0.068,6.798-1.797,13.857-4.138,20.285
		C373.691,347.904,348.352,386.538,322.173,426.919z M322.077,318.276c20.046,0.026,35.755-15.376,35.993-35.297
		c0.256-20.416-15.38-36.346-35.744-36.427c-20.349-0.08-36.121,15.785-35.994,36.196
		C286.461,302.688,302.123,318.254,322.077,318.276z"/>
</g>
</svg>
