<?xml version="1.0" encoding="utf-8"?>
<!-- Generator: Adobe Illustrator 16.0.0, SVG Export Plug-In . SVG Version: 6.00 Build 0)  -->
<!DOCTYPE svg PUBLIC "-//W3C//DTD SVG 1.1//EN" "http://www.w3.org/Graphics/SVG/1.1/DTD/svg11.dtd">
<svg version="1.1" id="Layer_1" xmlns="http://www.w3.org/2000/svg" xmlns:xlink="http://www.w3.org/1999/xlink" x="0px" y="0px"
	 width="500px" height="500px" viewBox="0 0 500 500" enable-background="new 0 0 500 500" xml:space="preserve">
<g>
	<path fill-rule="evenodd" clip-rule="evenodd" fill="#2F302E" d="M87.27,453.299h22.466v16.564h317.97v-93.075l19.061,17.047
		v90.723c0,0,0.388,8.1-8.395,7.915H87.279L87.27,453.299z"/>
	<path fill-rule="evenodd" clip-rule="evenodd" fill="#2F302E" d="M368.674,323.295l22.604,17.555v95.808c0,0,0.034,5.16-5.899,5.16
		c-7.783,0-354.471,0-354.471,0V13.1c0,0-0.053-4.097,4.584-4.097c5.988-0.004,357.062,0,357.062,0V272.87l-19.342-15.053V31.631
		c0,0-0.151-4.852-5.381-4.7c0,0-303.204,0-309.467,0c-6.267,0-6.027,2.875-6.011,5.916c-0.013,4.35,0,383.694,0,383.694h316.468
		L368.674,323.295z"/>
	<path fill-rule="evenodd" clip-rule="evenodd" fill="#2F302E" d="M446.767,324.548l-17.227-16.587c0,0-1.825-1.641-1.825-4.875
		c-0.019-2.507,0-221.961,0-221.961h-18.779V64.293h34.979c0,0,3.027-0.161,3.124,3.318
		C447.048,71.071,446.767,324.548,446.767,324.548z"/>
	<rect x="89.601" y="311.26" fill-rule="evenodd" clip-rule="evenodd" fill="#2F302E" width="248.213" height="19.444"/>
	<rect x="89.723" y="370.974" fill-rule="evenodd" clip-rule="evenodd" fill="#2F302E" width="248.213" height="19.452"/>
	<path fill-rule="evenodd" clip-rule="evenodd" fill="#2F302E" d="M329.522,274.068c0,0-1.332-1.502,0-3.027
		c1.33-1.521,18.909-18.95,18.909-18.95s1.771-1.064,2.785,0c1.021,1.069,122.149,111.713,125.733,115.408
		c1.931,2.124,0,4.709,0,4.709l-16.439,16.716c0,0-1.327,1.3-3.321-0.268C454.987,386.745,329.522,274.068,329.522,274.068z"/>
	<path fill-rule="evenodd" clip-rule="evenodd" fill="none" stroke="#2F302E" stroke-width="5" stroke-miterlimit="10" d="
		M347.72,176.712c0,57.82-46.874,104.69-104.687,104.69c-57.824,0-104.696-46.87-104.696-104.69
		c0-57.824,46.872-104.696,104.696-104.696C300.846,72.016,347.72,118.888,347.72,176.712z"/>
	<g>
		<path fill-rule="evenodd" clip-rule="evenodd" fill="#2F302E" d="M238.428,206.224c0.454-6.935,3.628-12.354-4.614-17.684
			c6.959,0.097,11.274,0.81,16.566-0.728c-3.377,5.593-5.091,10.602-2.532,17.208c5.679-6.09,9.849-12.666,12.833-19.678
			c2.045-4.806,4.473-4.778,8.475-3.571c14.54,4.386,24.406,19.609,22.308,34.685c-1.048,7.492-5.757,12.468-14.88,13.007
			c-22.363,1.332-44.804,1.461-67.15-0.042c-10.931-0.737-15.799-7.773-15.039-18.698c0.97-13.918,10.699-25.847,23.473-29.156
			c3.546-0.922,5.539-0.801,7.303,3.198c2.449,5.557,6.075,10.588,9.259,15.813C235.338,202.076,236.451,203.454,238.428,206.224z"
			/>
		<path fill-rule="evenodd" clip-rule="evenodd" fill="#2F302E" d="M219.585,156.033c-2.128-11.321,0-21.287,9.653-28.501
			c14.562-10.883,35.394-1.475,37.888,17.236c0.957,7.16,0.063,14.315-3.542,20.858c-0.371-0.11-0.728-0.087-1.08,0.079
			c-0.942-0.06-1.576-0.789-1.143-1.457c4.815-7.478-1.612-14.5-0.917-21.885c0.304-3.212-2.675-3.649-5.791-2.442
			c-6.875,2.663-14.183,3.478-20.992,0.567c-6.941-2.968-8.484,0.184-8.795,5.99c-0.102,1.852-0.095,3.705-0.141,5.556
			c-0.237,0.525-0.474,1.06-0.711,1.585c-0.608,0.806-1.214,1.608-1.82,2.414C221.327,156.033,220.454,156.033,219.585,156.033z"/>
		<path fill-rule="evenodd" clip-rule="evenodd" fill="#2F302E" d="M219.585,156.033c0.869,0,1.742,0,2.608,0
			c0.188,1.299,0.325,2.617,0.566,3.903c1.813,9.583,10.615,19.079,18.541,20.033c7.15,0.862,17.262-5.938,21.203-14.264
			c0.353-0.166,0.709-0.189,1.08-0.079c-2.96,3.387-2.686,8.267-6.236,11.684c-9.012,8.672-20.484,8.815-28.865-0.524
			C223.209,170.907,220.048,164.023,219.585,156.033z"/>
		<path fill-rule="evenodd" clip-rule="evenodd" fill="#2F302E" d="M224.725,152.034c0.118,0.563,0.237,1.115,0.357,1.677
			c-0.359-0.028-0.714-0.06-1.069-0.092C224.25,153.094,224.488,152.56,224.725,152.034z"/>
	</g>
</g>
</svg>
