<?xml version="1.0" encoding="utf-8"?>
<!-- Generator: Adobe Illustrator 16.0.0, SVG Export Plug-In . SVG Version: 6.00 Build 0)  -->
<!DOCTYPE svg PUBLIC "-//W3C//DTD SVG 1.1//EN" "http://www.w3.org/Graphics/SVG/1.1/DTD/svg11.dtd">
<svg version="1.1" id="Layer_1" xmlns="http://www.w3.org/2000/svg" xmlns:xlink="http://www.w3.org/1999/xlink" x="0px" y="0px"
	 width="500px" height="500px" viewBox="0 0 500 500" enable-background="new 0 0 500 500" xml:space="preserve">
<g>
	<path fill-rule="evenodd" clip-rule="evenodd" fill="#2F302E" d="M495.205,398.66c-0.088,8.299-0.138,16.596-0.262,24.895
		c-0.168,10.552-4.284,14.843-14.741,14.914c-19.147,0.131-38.29,0.029-57.437,0.16c-3.048,0.015-4.72-0.398-4.634-4.061
		c0.074-2.854-1.959-4.781-4.937-4.826c-3.099-0.042-4.961,2.197-4.908,4.884c0.075,4.346-2.474,3.963-5.331,3.96
		c-54.74-0.128-109.487-0.291-164.232-0.283c-58.9,0.007-117.798,0.159-176.694,0.319c-13.334,0.036-17.322-3.796-17.322-17.185
		c0.012-19.173,0.073-38.354-0.046-57.524c-0.02-3.382,0.396-5.021,4.48-5.669c10.657-1.684,18.406-11.574,18.38-22.308
		c-0.029-10.931-7.549-20.572-18.182-22.479c-3.68-0.654-4.746-1.844-4.707-5.555c0.192-20.167,0.058-40.326,0.105-60.491
		c0.025-8.931,4.89-13.941,13.734-14.361c1.184-0.055,2.371,0,3.558,0c112.879,0,225.753,0.003,338.635-0.015
		c3.89,0,7.987-0.88,8.145,5.242c0.051,2.182,2.353,2.963,4.506,2.992c2.555,0.04,4.737-1.549,4.65-3.673
		c-0.202-4.987,2.771-4.582,6.035-4.576c18.386,0.052,36.771-0.015,55.157,0.033c11.199,0.034,15.767,4.654,15.794,15.93
		c0.035,19.57-0.045,39.141,0.058,58.714c0.014,3.381-0.394,5.119-4.546,5.767c-11.086,1.723-18.72,11.41-18.72,22.596
		c0.004,10.959,7.874,20.186,19.088,22.396c1.938,0.387,4.937-0.289,3.602,3.489 M418.345,259.964
		c0.111-3.819-1.165-6.841-5.015-6.841c-4.174,0.004-5.426,3.272-5.3,7.003c0.119,3.468,1.296,6.434,5.357,6.222
		C417.321,266.145,418.518,263.308,418.345,259.964z M418.345,310.408c0.079-3.889-1.063-6.746-5.099-6.778
		c-4.059-0.033-5.164,2.887-5.186,6.404c-0.026,3.719,1.033,6.951,5.419,6.762C417.413,316.625,418.526,313.641,418.345,310.408z
		 M418.336,336.352c0.219-3.629-0.516-7.025-4.705-7.41c-3.84-0.361-5.424,2.436-5.582,5.999c-0.164,3.622,0.487,6.785,5.06,6.895
		C416.774,341.923,418.38,339.872,418.336,336.352z M418.329,360.444c0.143-3.606-1.251-6.515-5.061-6.508
		c-4.248,0-5.339,3.349-5.234,7.021c0.099,3.501,1.362,6.39,5.441,6.16C417.481,366.889,418.489,363.976,418.329,360.444z
		 M407.959,285.121c0.204,3.477,1.185,6.662,5.119,6.717c4.277,0.058,5.363-3.136,5.276-6.888c-0.076-3.53-1.095-6.301-5.246-6.258
		C408.847,278.739,408.301,281.923,407.959,285.121z M418.329,410.62c0.145-3.52-1.271-6.16-5.199-6.171
		c-4.109-0.015-5.096,3.084-5.081,6.482c0.018,3.358,0.987,6.623,4.982,6.667C417.28,417.652,418.504,414.565,418.329,410.62z
		 M418.336,385.938c0.204-3.814-1.287-6.513-5.127-6.542c-3.94-0.029-5.135,2.91-5.179,6.439c-0.043,3.622,1.406,6.466,5.202,6.426
		C416.956,392.218,418.588,389.512,418.336,385.938z"/>
	<path fill-rule="evenodd" clip-rule="evenodd" fill="#2F302E" d="M491.075,227.86c-5.585-1.785-10.299-1.875-15.04-1.861
		c-21.352,0.038-42.694,0.033-64.049,0.023c-3.264,0-6.381,0.508-8.522-3.453c-1.54-2.838-5.374-2.827-6.803,0.18
		c-1.901,3.988-4.884,3.253-7.907,3.253c-108.945,0.011-217.881,0.011-326.821,0c-3.761,0-7.53-0.047-11.123,1.271
		c-8.253,3.021-13.104,10.29-13.128,19.868c-0.044,20.955,0.012,41.914-0.055,62.869c-0.009,2.044,0.74,4.275-0.674,6.124
		c-1.98,0.37-1.946-1.292-2.366-2.183C25.651,295.06,16.73,276.15,7.916,257.197c-3.899-8.399-1.4-14.585,7.391-18.686
		c43.777-20.459,87.569-40.888,131.358-61.332c47.189-22.035,94.367-44.087,141.566-66.098
		c13.218-6.164,26.507-12.189,39.718-18.372c2.401-1.12,4.052-1.913,5.491,1.438c1.138,2.645,3.842,3.214,6.606,2.071
		c3.228-1.327,3.087-4.156,2.023-6.475c-1.366-2.978,0.093-3.687,2.308-4.705c18.094-8.298,36.115-16.741,54.229-24.986
		c6.511-2.968,13.52-0.694,16.602,5.702c9.236,19.192,18.071,38.578,27.338,57.757c1.628,3.38-0.443,4.022-2.297,5.402
		c-8.146,6.107-11.427,15.158-8.947,24.514c2.374,8.949,10.396,15.89,19.972,16.962c2.301,0.26,4.894,0.231,7.001-0.58
		c4.026-1.554,5.694-0.149,7.367,3.521C473.817,191.267,482.282,209.075,491.075,227.86z M357.191,129.376
		c-3.363,0.507-5.298,2.689-4.733,5.647c0.644,3.351,1.806,7.28,6.312,7.387c3.191,0.076,5.453-2.076,4.908-5.262
		C363.066,133.562,361.968,129.704,357.191,129.376z M385.277,182.485c-1.077-2.765-1.573-6.941-6.256-7.376
		c-3.229-0.304-5.477,1.942-5.057,5.069c0.483,3.61,1.519,7.69,6.388,7.83C383.252,188.09,385.057,186.337,385.277,182.485z
		 M353.144,113.986c-1.264-2.981-1.467-7.114-6.256-7.07c-2.925,0.024-5.097,1.651-4.659,4.734c0.527,3.684,1.604,7.647,6.417,7.685
		C351.643,119.356,352.936,117.048,353.144,113.986z M374.454,160.846c0.314-3.793-3.322-8.647-6.262-8.492
		c-2.855,0.15-5.268,1.975-4.987,4.716c0.342,3.355,1.369,7.183,5.649,7.912C372.165,165.542,373.877,163.515,374.454,160.846z
		 M395.924,204.556c-1.427-2.143-1.71-6.285-6.328-6.343c-3.28-0.039-5.324,1.989-4.822,5.189c0.563,3.461,1.928,7.186,6.22,7.323
		C393.991,210.827,395.974,208.794,395.924,204.556z"/>
	<path fill-rule="evenodd" clip-rule="evenodd" fill="#F2F1EF" d="M357.191,129.376c4.776,0.327,5.875,4.186,6.486,7.772
		c0.545,3.186-1.717,5.337-4.908,5.262c-4.506-0.107-5.668-4.036-6.312-7.387C351.894,132.066,353.828,129.884,357.191,129.376z"/>
	<path fill-rule="evenodd" clip-rule="evenodd" fill="#F2F1EF" d="M385.277,182.485c-0.221,3.853-2.025,5.605-4.925,5.523
		c-4.869-0.14-5.904-4.22-6.388-7.83c-0.42-3.127,1.828-5.373,5.057-5.069C383.704,175.543,384.2,179.72,385.277,182.485z"/>
	<path fill-rule="evenodd" clip-rule="evenodd" fill="#F2F1EF" d="M353.144,113.986c-0.208,3.062-1.501,5.37-4.498,5.349
		c-4.813-0.038-5.89-4.001-6.417-7.685c-0.438-3.083,1.734-4.71,4.659-4.734C351.677,106.873,351.88,111.005,353.144,113.986z"/>
	<path fill-rule="evenodd" clip-rule="evenodd" fill="#F2F1EF" d="M374.454,160.846c-0.577,2.669-2.289,4.696-5.6,4.136
		c-4.28-0.729-5.308-4.556-5.649-7.912c-0.28-2.742,2.132-4.566,4.987-4.716C371.132,152.199,374.769,157.052,374.454,160.846z"/>
	<path fill-rule="evenodd" clip-rule="evenodd" fill="#F2F1EF" d="M395.924,204.556c0.05,4.238-1.933,6.271-4.931,6.169
		c-4.292-0.137-5.657-3.862-6.22-7.323c-0.502-3.2,1.542-5.228,4.822-5.189C394.214,198.271,394.497,202.413,395.924,204.556z"/>
	<path fill-rule="evenodd" clip-rule="evenodd" fill="#2F302E" d="M494.838,365.688c0.149,7.443,0.3,14.893,0.447,22.341
		c-0.29-0.037-0.538,0.051-0.75,0.265c-3.097-2.462-6.436-4.789-4.188-9.64c0.276-0.588,0.068-1.632-0.291-2.247
		C486.682,370.582,490.057,367.838,494.838,365.688z"/>
	<path fill-rule="evenodd" clip-rule="evenodd" fill="#2F302E" d="M34.587,313.952L7.916,257.197c0,0-6.16-11.534,3.61-16.51
		c9.771-4.977,302.494-141.925,316.423-147.978c6.896-3.438,5.658,6.863,12.098,3.509c0,0,4.308-1.053,2.023-6.475
		c-0.55-3.223,2.308-4.705,2.308-4.705l51.546-23.764c0,0,12.931-8.974,20.731,7.496s21.978,46.907,25.28,53.476
		c2.581,5.025-1.686,6.667-1.686,6.667s-16.827,12.431-6.744,29.804c10.089,15.204,21.04,11.6,24.77,11.092
		c3.729-0.51,4.065-3.562,9.698,8.616l23.102,49.435c0,0-5.477-1.805-11.651-1.834c-6.173-0.027-59.496-0.114-67.438-0.003
		c-11.335-0.506-6.086-5.142-11.405-5.488c0,0-2.31,0.023-3.92,2.215c-1.61,2.191-2.613,2.809-7.907,3.253H59.577
		c0,0-20.699-1.724-21.825,19.619c0,0-0.07,61.546-0.085,65.306C37.653,314.688,37.709,319.29,34.587,313.952z"/>
	<path fill-rule="evenodd" clip-rule="evenodd" fill="#FFFFFF" d="M408.03,260.126c-0.398-5.382,2.364-7.003,5.3-7.003
		c0,0,4.847-0.498,5.01,5.991c0.164,6.485-3.107,7.219-4.63,7.203C412.19,266.304,408.522,266.776,408.03,260.126z"/>
	<path fill-rule="evenodd" clip-rule="evenodd" fill="#FFFFFF" d="M392.426,212.216c-1.535-5.18,0.036-7.125,2.909-7.744
		c0,0,5.42-1.733,6.952,4.573c1.534,6.309-1.754,8.023-3.244,8.327C397.553,217.681,394.31,218.618,392.426,212.216z"/>
	<path fill-rule="evenodd" clip-rule="evenodd" fill="#FFFFFF" d="M381.561,187.501c-1.528-5.18,0.04-7.125,2.911-7.743
		c0,0,5.422-1.732,6.949,4.572c1.539,6.309-1.749,8.022-3.242,8.327C386.693,192.966,383.444,193.902,381.561,187.501z"/>
	<path fill-rule="evenodd" clip-rule="evenodd" fill="#FFFFFF" d="M369.771,162.357c-1.948-5.039-0.537-7.104,2.27-7.954
		c0,0,5.265-2.164,7.301,3.994c2.043,6.165-1.098,8.14-2.56,8.565C375.328,167.39,372.165,168.585,369.771,162.357z"/>
	<path fill-rule="evenodd" clip-rule="evenodd" fill="#FFFFFF" d="M356.756,137.322c-2.471-4.804-1.292-7.007,1.409-8.15
		c0,0,5.008-2.715,7.686,3.19c2.688,5.915-0.222,8.21-1.628,8.789C362.819,141.732,359.802,143.258,356.756,137.322z"/>
	<path fill-rule="evenodd" clip-rule="evenodd" fill="#FFFFFF" d="M343.955,113.483c-2.097-4.976-0.756-7.083,2.031-8.018
		c0,0,5.193-2.327,7.417,3.767c2.227,6.1-0.848,8.168-2.296,8.638C349.662,118.341,346.54,119.635,343.955,113.483z"/>
	<path fill-rule="evenodd" clip-rule="evenodd" fill="none" stroke="#FFFFFF" stroke-width="1.5" stroke-miterlimit="10" d="
		M104.593,292.842h266.305c0,0,9.527-0.395,9.527,6.922v71.808c0,0,0.773,6.945-11.585,6.945H95.197c0,0-5.433,0.225-5.433-3.047
		v-75.059C89.764,300.411,88.321,292.842,104.593,292.842z"/>
</g>
</svg>
