<?xml version="1.0" encoding="utf-8"?>
<!-- Generator: Adobe Illustrator 16.0.0, SVG Export Plug-In . SVG Version: 6.00 Build 0)  -->
<!DOCTYPE svg PUBLIC "-//W3C//DTD SVG 1.1//EN" "http://www.w3.org/Graphics/SVG/1.1/DTD/svg11.dtd">
<svg version="1.1" id="Layer_1" xmlns="http://www.w3.org/2000/svg" xmlns:xlink="http://www.w3.org/1999/xlink" x="0px" y="0px"
	 width="500px" height="500px" viewBox="0 0 500 500" enable-background="new 0 0 500 500" xml:space="preserve">
<g>
	<path fill-rule="evenodd" clip-rule="evenodd" fill="#2F2F2F" d="M494.897,338.895c-9.141,6.235-10.32,16.197-3.192,28.313
		c-3.959,2.838-7.942,5.692-12.235,8.767c-4.012-5.764-9.112-10.102-16.05-9.793c-4.346,0.194-9.252,1.606-12.763,4.092
		c-8.977,6.363-9.701,16.915-2.496,27.959c-4.046,2.885-8.112,5.784-12.141,8.664c-9.529-10.443-19.482-12.619-28.266-6.41
		c-9.071,6.402-10.344,16.425-3.478,29.031c-3.954,2.825-7.949,5.68-11.945,8.539c-6.688-9.269-17.27-13.669-28.355-6.278
		c-9.2,6.135-10.313,16.645-3.316,28.805c-3.898,2.794-7.85,5.628-10.934,7.849c-5.043-3.099-9.208-7.033-14.056-8.244
		c-4.706-1.169-10.102,0.467-16.57,0.977c-69.997-98.244-140.99-197.886-211.959-297.5c8.82-10.295,9.685-15.3,4.556-27.275
		c3.91-2.789,7.889-5.627,11.835-8.441c9.912,8.416,18.48,9.883,26.403,4.614c8.528-5.668,10.184-13.467,5.639-27.412
		c3.774-2.69,7.63-5.438,11.424-8.14c12.194,8.968,20.359,9.796,28.429,3.015c7.189-6.04,8.541-15.111,3.457-25.719
		c3.856-2.752,7.815-5.583,12.124-8.664c4.598,4.856,9.982,8.692,16.994,7.514c3.773-0.625,7.835-1.977,10.834-4.239
		c7.758-5.862,8.886-14.831,3.824-25.801c3.888-2.781,7.847-5.611,12.032-8.602c7.762,8.499,16.694,10.006,26.992,4.568
		c1.323,1.821,2.637,3.592,3.91,5.385c68.794,96.584,137.58,193.169,206.374,289.751c0.913,1.28,1.947,2.479,2.928,3.719
		C494.897,338.259,494.897,338.575,494.897,338.895z"/>
	<path fill-rule="evenodd" clip-rule="evenodd" fill="#2F2F2F" d="M5.658,232.83c2.072-4.025,4.14-8.045,6.216-12.07
		c13.628,1.854,21.48-1.62,25.332-11.189c3.617-9.005,0.379-17.389-9.949-24.804c1.887-4.301,3.819-8.742,5.706-13.067
		c15.041,1.186,22.415-2.217,25.909-11.778c3.275-8.964-0.169-17.422-10.167-24.174c1.866-4.354,3.781-8.816,5.841-13.611
		c6.192,1.714,12.52,2.159,17.773-1.779c3.164-2.365,6.068-5.788,7.704-9.368c3.946-8.643,0.577-16.569-9.801-24.665
		c1.821-4.206,3.695-8.527,5.718-13.191c10.834,2.892,19.498,0.07,25.459-10.25c20.273,8.837,40.426,17.624,61.251,26.704
		c-6.748,4.865-12.878,9.286-19.136,13.796c2.583,5.101,7.992,9.117,6.134,15.519c-0.705,2.415-2.501,4.931-4.523,6.443
		c-3.605,2.682-8.017,2.797-11.527-0.104c-3.003-2.479-5.269-5.849-8.099-9.087c-8.474,6.04-16.973,12.104-24.652,17.57
		c1.886,5.709,5.462,11.106,4.708,15.807c-0.733,4.523-5.932,8.33-9.607,13.006c44.669,62.705,89.969,126.304,135.264,189.899
		c-0.165,0.267-0.338,0.535-0.511,0.799c-71.549-31.198-143.104-62.4-214.583-93.569c2.839-11.09-0.49-21.241-10.459-24.924
		C5.658,234.103,5.658,233.468,5.658,232.83z"/>
	<path fill-rule="evenodd" clip-rule="evenodd" fill="#2F2F2F" d="M450.574,236.13c-2.101,4.807-4.058,9.273-6.002,13.738
		c-3.922-1.722-32.636-40.406-41.127-55.26c11.973,5.207,23.19,10.097,34.646,15.086C434.669,221.958,438.688,230.7,450.574,236.13z
		"/>
	<path fill-rule="evenodd" clip-rule="evenodd" fill="none" stroke="#FFFFFF" stroke-miterlimit="10" d="M160.552,162.763
		l106.081-68.538c0,0,9.979-7.44,16.768,2.018c7.068,9.821,155.051,225.279,155.051,225.279s6.162,8.507-3.391,15.559
		c-11.516,7.721-98.48,70.731-98.48,70.731s-7.818,6.216-14.74-3.227c-5.99-8.214-163.293-224.223-163.293-224.223
		S150.41,169.585,160.552,162.763z"/>
</g>
</svg>
