<?xml version="1.0" encoding="utf-8"?>
<!-- Generator: Adobe Illustrator 16.0.0, SVG Export Plug-In . SVG Version: 6.00 Build 0)  -->
<!DOCTYPE svg PUBLIC "-//W3C//DTD SVG 1.1//EN" "http://www.w3.org/Graphics/SVG/1.1/DTD/svg11.dtd">
<svg version="1.1" id="Layer_1" xmlns="http://www.w3.org/2000/svg" xmlns:xlink="http://www.w3.org/1999/xlink" x="0px" y="0px"
	 width="500px" height="500px" viewBox="0 0 500 500" enable-background="new 0 0 500 500" xml:space="preserve">
<g>
	<path fill-rule="evenodd" clip-rule="evenodd" fill="#2F302E" d="M252.031,493.065c-17.923-31.062-35.259-61.002-52.496-91.007
		c-28.361-49.385-56.271-99.032-85.142-148.115c-15.436-26.246-23.968-54.036-24.122-84.388
		C89.902,92.701,142.85,26.69,217.914,10.243C308.568-9.612,398.021,51.223,412.54,142.938c6.303,39.821-1.955,76.794-22.253,111.64
		c-45.448,78.028-90.355,156.38-135.498,234.592C254.217,490.171,253.453,491.069,252.031,493.065z M378.604,168.939
		c0.185-69.937-56.749-126.789-126.992-126.812c-68.6-0.027-125.358,56.663-125.917,125.769
		c-0.569,69.73,56.315,126.877,126.41,126.994C321.782,295.013,378.418,238.618,378.604,168.939z"/>
	<path fill-rule="evenodd" clip-rule="evenodd" fill="#2F302E" d="M264.185,149.632c0,2.54-0.009,5.079,0,7.619
		c0.014,20.151,0.032,40.3,0.046,60.453c0.004,1.964,0.623,4.271-0.19,5.815c-1.155,2.192-3.382,3.819-5.146,5.69
		c-1.743-1.887-4.925-3.713-5.007-5.666c-0.479-11.528-0.239-23.088-0.244-34.639c0-2.298,0-4.594,0-6.892
		c-0.902-0.016-1.814-0.034-2.73-0.05c0,3.644,0,7.282,0,10.921c0.004,9.583-0.037,19.167,0.031,28.747
		c0.031,3.998-0.275,7.68-5.58,7.506c-4.854-0.163-5.034-3.723-5.025-7.366c0.036-21.625,0.059-43.25,0.041-64.873
		c-0.004-2.465-0.338-4.925-0.51-7.386c-0.839,0.021-1.675,0.048-2.51,0.068c0,6.126,0,12.252,0,18.379
		c0,1.964,0.555,4.167-0.149,5.835c-0.795,1.876-2.727,3.269-4.163,4.871c-1.133-1.648-3.21-3.277-3.25-4.953
		c-0.262-10.065-0.343-20.155,0.108-30.203c0.334-7.253,4.532-11.341,11.616-11.722c7.106-0.377,14.262-0.393,21.364-0.047
		c7.137,0.345,11.48,4.458,11.811,11.604c0.465,10.057,0.42,20.149,0.112,30.212c-0.054,1.75-2.47,3.429-3.797,5.14
		c-1.265-1.738-3.54-3.429-3.634-5.228c-0.393-7.961-0.168-15.955-0.168-23.943C266.198,149.563,265.188,149.596,264.185,149.632z"
		/>
	<path fill-rule="evenodd" clip-rule="evenodd" fill="#2F302E" d="M252.198,128.526c-5.431-0.047-10.221-5.045-10.049-10.476
		c0.185-5.846,4.573-9.869,10.564-9.686c5.512,0.16,9.639,4.343,9.675,9.819C262.424,123.752,257.674,128.576,252.198,128.526z"/>
</g>
</svg>
