<?xml version="1.0" encoding="utf-8"?>
<!-- Generator: Adobe Illustrator 16.0.0, SVG Export Plug-In . SVG Version: 6.00 Build 0)  -->
<!DOCTYPE svg PUBLIC "-//W3C//DTD SVG 1.1//EN" "http://www.w3.org/Graphics/SVG/1.1/DTD/svg11.dtd">
<svg version="1.1" id="Layer_1" xmlns="http://www.w3.org/2000/svg" xmlns:xlink="http://www.w3.org/1999/xlink" x="0px" y="0px"
	 width="500px" height="500px" viewBox="0 0 500 500" enable-background="new 0 0 500 500" xml:space="preserve">
<g>
	<path fill-rule="evenodd" clip-rule="evenodd" fill="#2F302E" d="M205.721,365.654c10.811-18.389,11.247-36.499,0.897-55.047
		c-5.396-9.666-0.08-14.713,9.624-15.304c9.044-0.554,18.186-0.591,27.216,0.077c9.303,0.69,13.634,6.373,8.892,14.923
		c-10.254,18.483-10.682,36.563,0.659,55.032c4.358-0.382,4.227-5.487,5.724-8.62c11.709-24.495,23.273-49.061,34.366-73.836
		c3.211-7.177,4.932-9.53,12.982-4.067c24.313,16.501,50.132,26.989,81.22,24.891c40.991-2.771,77.613,23.448,91.994,61.475
		c14.156,37.43,3.135,80.489-27.236,106.454c-31.398,26.838-74.396,31.026-110.269,10.349c-6.145-3.548-11.62-4.925-18.993-3.984
		c-80.311,10.185-160.249,9.299-239.278-10.361c-17.609-4.379-34.664-10.412-49.815-20.896
		c-11.647-8.054-17.898-18.292-17.212-33.175c0.983-21.318,1.892-42.522,7.225-63.346c5.785-22.585,20.064-36.064,42.729-40.343
		c31.771-6.001,63.108-12.979,89.538-33.219c7.025-5.38,7.237,1.621,8.829,4.969c12.235,25.757,24.25,51.613,36.367,77.415
		C202.3,361.431,202.616,364.41,205.721,365.654z M388.841,473.448c41.35,0.206,74.766-32.543,75.042-73.533
		c0.286-41.811-33.201-75.802-74.566-75.707c-40.83,0.101-74.445,33.643-74.706,74.553
		C314.356,439.462,347.928,473.248,388.841,473.448z"/>
	<path fill-rule="evenodd" clip-rule="evenodd" fill="#2F302E" d="M233.371,4.308c26.04-1.535,50.482,11.017,72.472,28.537
		c17.116,13.639,21.342,34.169,23.989,54.618c1.781,13.763,3.2,27.155,8.223,40.604c6.509,17.432,1.581,35.228-9.355,50.104
		c-4.034,5.488-7.654,10.808-10.479,16.979c-10.503,22.926-24.136,43.683-44.377,59.278c-28.965,22.304-59.766,22.083-88.565-0.455
		c-20.512-16.05-34.151-37.262-44.659-60.708c-2.209-4.926-4.57-9.244-8.805-13.203c-13.65-12.755-17.5-44.047-7.611-59.269
		c2.449-3.775,3.005-7.356,3.287-11.376c0.603-8.599,1.163-17.196,1.785-25.792C133.165,29.821,187.115,3.854,233.371,4.308z"/>
	<g>
		<path fill="#2F302E" d="M400.138,361.438v28.851h26.955v16.172h-26.955v28.994h-18.353v-28.994h-26.813v-16.172h26.813v-28.851
			H400.138z"/>
	</g>
</g>
</svg>
