<?xml version="1.0" encoding="utf-8"?>
<!-- Generator: Adobe Illustrator 21.0.2, SVG Export Plug-In . SVG Version: 6.00 Build 0)  -->
<svg version="1.1" id="Layer_1" xmlns="http://www.w3.org/2000/svg" xmlns:xlink="http://www.w3.org/1999/xlink" x="0px" y="0px"
	 viewBox="0 0 1000 1000" style="enable-background:new 0 0 1000 1000;" xml:space="preserve">
<style type="text/css">
	.st0{fill:#FFFFFF;stroke:#000000;stroke-width:0.4;stroke-miterlimit:10;}
	.st1{fill:#FFFFFF;}
</style>
<path class="st0" d="M515.8,489.7c-0.2,4.7-1.1,9.2-2.1,13.7c-1.2,5.2-2.7,10.4-4.9,15.3c-1,2.3-2.2,4.5-3.8,6.4
	c-0.3,0.4-0.7,0.8-1.1,1.1c-2.1,1.6-4,1.6-6-0.3c-1.4-1.3-2.5-3-3.4-4.7c-2.4-4.6-4-9.5-5.3-14.5c-1.1-4.2-2-8.5-2.6-12.9
	c-0.4-2.8-0.6-5.6,0.3-8.4c2-5.9,6-9.5,12.2-10.4c8.2-1.2,15.6,4.6,16.6,12.9C515.8,488.5,515.8,489.2,515.8,489.7z M501,499.4
	c5.5,0,9.8-4.4,9.8-10c0-5.4-4.5-9.7-9.9-9.7c-5.4,0-9.7,4.4-9.7,9.8C491.2,495,495.6,499.4,501,499.4z"/>
<path class="st0" d="M501,499.4c-5.4,0-9.8-4.4-9.8-9.9c0-5.3,4.4-9.7,9.7-9.8c5.4,0,9.9,4.3,9.9,9.7
	C510.9,495,506.5,499.4,501,499.4z M497.9,491.4c-1.3,0.2-2.4,0.8-3.3,1.7c-0.3,0.3-0.3,0.6,0,0.9c1.6,2.2,3.7,3.4,6.4,3.4
	c2.8,0,4.9-1.2,6.5-3.4c0.1-0.2,0.2-0.5,0.1-0.6c-0.9-1.1-2-1.8-3.4-1.9c-0.6,1.4-1.8,1.6-3.1,1.6
	C499.8,493.1,498.6,492.9,497.9,491.4z M496.8,486.6c0.1,1.5,0.8,3.2,2,4.5c1.4,1.4,3,1.4,4.4,0c1.1-1.1,1.7-2.5,2-4
	c0.4-2.4-1.3-4.7-3.8-4.9C498.9,481.8,496.8,483.8,496.8,486.6z"/>
<path d="M497.9,491.4c0.7,1.4,1.9,1.6,3.3,1.6c1.2,0,2.4-0.2,3.1-1.6c1.4,0.1,2.5,0.8,3.4,1.9c0.1,0.1,0,0.5-0.1,0.6
	c-1.6,2.2-3.8,3.4-6.5,3.4c-2.7,0-4.8-1.2-6.4-3.4c-0.3-0.3-0.3-0.6,0-0.9C495.5,492.2,496.6,491.6,497.9,491.4z"/>
<path d="M496.8,486.6c0-2.8,2.1-4.7,4.6-4.5c2.4,0.2,4.2,2.5,3.8,4.9c-0.3,1.5-0.9,2.9-2,4c-1.4,1.4-3,1.5-4.4,0
	C497.6,489.7,497,488.1,496.8,486.6z M498.5,484.4c-0.7,0.8-1.2,1.6-1.1,2.6c0.2,1.4,0.8,2.7,1.9,3.7c1.1,1,2.4,1,3.5-0.1
	c1-1,1.5-2.1,1.8-3.5c0.2-1.1-0.4-1.7-1.6-1.6c-0.8,0.1-1.6,0.1-2.4,0.1C499.8,485.5,499,485.3,498.5,484.4z"/>
<path class="st1" d="M498.5,484.4c0.5,0.9,1.3,1.1,2.2,1.2c0.8,0,1.6,0,2.4-0.1c1.1-0.1,1.8,0.5,1.6,1.6c-0.2,1.3-0.8,2.5-1.8,3.5
	c-1.1,1.1-2.4,1.1-3.5,0.1c-1.1-1-1.7-2.3-1.9-3.7C497.3,486,497.8,485.2,498.5,484.4z"/>
</svg>
