<?xml version="1.0" encoding="UTF-8"?>
<svg xmlns="http://www.w3.org/2000/svg" xmlns:xlink="http://www.w3.org/1999/xlink" viewBox="0 0 26 26" version="1.1" width="26px" height="26px">
<g id="surface1">
<path style=" " d="M 13 0 C 11.34375 0 10 1.34375 10 3 C 10 4.65625 11.34375 6 13 6 C 14.65625 6 16 4.65625 16 3 C 16 1.34375 14.65625 0 13 0 Z M 11.875 7.03125 C 11.371094 7.054688 10.953125 7.109375 10.59375 7.15625 C 10.570313 7.160156 10.550781 7.152344 10.53125 7.15625 C 8.929688 7.15625 8 8.449219 8 9 L 8 15 C 8 15.550781 8.449219 16 9 16 L 10 16 L 10 22 C 10 22.550781 10.449219 23 11 23 L 15 23 C 15.550781 23 16 22.550781 16 22 L 16 16 L 17 16 C 17.550781 16 18 15.550781 18 15 L 18 9 C 18 8.5 17.21875 7.414063 15.875 7.21875 C 15.773438 7.199219 15.605469 7.175781 15.46875 7.15625 C 15.457031 7.15625 15.449219 7.15625 15.4375 7.15625 C 14.824219 7.074219 13.925781 7.03125 13 7.03125 C 12.617188 7.03125 12.238281 7.015625 11.875 7.03125 Z M 17.875 18.375 C 17.324219 18.367188 16.867188 18.808594 16.859375 19.359375 C 16.851563 19.910156 17.292969 20.367188 17.84375 20.375 C 19.269531 20.625 20.425781 21 21.15625 21.375 C 21.523438 21.5625 21.789063 21.746094 21.90625 21.875 C 22.023438 22.003906 22 22.023438 22 22 C 22 21.964844 21.992188 22.085938 21.625 22.34375 C 21.257813 22.601563 20.617188 22.90625 19.78125 23.15625 C 18.105469 23.660156 15.679688 24 13 24 C 10.320313 24 7.894531 23.660156 6.21875 23.15625 C 5.382813 22.90625 4.742188 22.601563 4.375 22.34375 C 4.007813 22.085938 4 21.964844 4 22 C 4 22.023438 3.976563 22.003906 4.09375 21.875 C 4.210938 21.75 4.449219 21.5625 4.8125 21.375 C 5.539063 21.003906 6.707031 20.65625 8.125 20.40625 C 8.675781 20.328125 9.0625 19.816406 8.984375 19.265625 C 8.90625 18.714844 8.394531 18.328125 7.84375 18.40625 C 7.824219 18.414063 7.800781 18.425781 7.78125 18.4375 C 6.230469 18.710938 4.917969 19.078125 3.90625 19.59375 C 3.402344 19.851563 2.976563 20.152344 2.625 20.53125 C 2.273438 20.910156 2 21.421875 2 22 C 2 22.863281 2.574219 23.511719 3.21875 23.96875 C 3.863281 24.425781 4.683594 24.800781 5.65625 25.09375 C 7.601563 25.675781 10.15625 26 13 26 C 15.84375 26 18.398438 25.675781 20.34375 25.09375 C 21.316406 24.800781 22.136719 24.425781 22.78125 23.96875 C 23.425781 23.511719 24 22.863281 24 22 C 24 21.421875 23.726563 20.914063 23.375 20.53125 C 23.023438 20.148438 22.601563 19.851563 22.09375 19.59375 C 21.078125 19.074219 19.746094 18.679688 18.1875 18.40625 C 18.085938 18.378906 17.980469 18.367188 17.875 18.375 Z "/>
</g>
</svg>
