<?xml version="1.0" standalone="no"?>
<!DOCTYPE svg PUBLIC "-//W3C//DTD SVG 20010904//EN"
 "http://www.w3.org/TR/2001/REC-SVG-20010904/DTD/svg10.dtd">
<svg version="1.0" xmlns="http://www.w3.org/2000/svg"
 width="512.000000pt" height="512.000000pt" viewBox="0 0 512.000000 512.000000"
 preserveAspectRatio="xMidYMid meet">
<metadata>
Created by potrace 1.15, written by Peter Selinger 2001-2017
</metadata>
<g transform="translate(0.000000,512.000000) scale(0.100000,-0.100000)"
fill="#000000" stroke="none">
<path d="M203 4958 c-174 -172 -196 -198 -191 -231 3 -19 32 5 192 163 103
102 192 193 197 203 8 14 5 17 -17 17 -21 0 -60 -33 -181 -152z"/>
<path d="M303 4858 c-140 -139 -264 -265 -275 -281 -10 -15 -18 -37 -16 -50 3
-18 49 23 292 263 158 157 292 293 297 303 8 14 5 17 -17 17 -22 0 -75 -47
-281 -252z"/>
<path d="M402 4758 c-194 -194 -362 -365 -373 -381 -11 -15 -19 -37 -17 -50 4
-18 67 40 392 363 213 212 392 393 397 403 8 14 5 17 -18 17 -22 0 -89 -62
-381 -352z"/>
<path d="M502 4658 c-249 -249 -462 -465 -473 -481 -11 -15 -19 -37 -17 -50 4
-18 84 57 492 463 268 267 492 493 497 503 8 14 5 17 -18 17 -22 0 -104 -76
-481 -452z"/>
<path d="M602 4558 c-304 -304 -562 -565 -573 -581 -11 -15 -19 -37 -17 -50 4
-18 101 75 592 563 323 322 592 593 597 603 8 14 5 17 -18 17 -23 0 -118 -91
-581 -552z"/>
<path d="M702 4458 c-359 -359 -662 -665 -673 -681 -11 -15 -19 -37 -17 -50 4
-18 118 92 692 663 378 377 692 693 697 703 8 14 5 17 -18 17 -23 0 -133 -106
-681 -652z"/>
<path d="M802 4358 c-414 -414 -762 -765 -773 -781 -11 -15 -19 -37 -17 -50 4
-18 136 109 792 763 433 432 792 793 797 803 8 14 5 17 -18 17 -23 0 -148
-120 -781 -752z"/>
<path d="M902 4258 c-469 -469 -862 -865 -873 -881 -11 -15 -19 -37 -17 -50 4
-18 153 126 892 863 488 487 892 893 897 903 8 14 5 17 -18 17 -23 0 -162
-135 -881 -852z"/>
<path d="M1002 4158 c-524 -524 -962 -965 -973 -981 -11 -15 -19 -37 -17 -50
4 -18 170 144 992 963 543 542 992 993 997 1003 8 14 5 17 -18 17 -23 0 -177
-149 -981 -952z"/>
<path d="M1102 4058 c-579 -579 -1062 -1065 -1073 -1081 -11 -15 -19 -37 -17
-50 4 -18 188 161 1092 1063 598 597 1092 1093 1097 1103 8 14 5 17 -18 17
-23 0 -191 -164 -1081 -1052z"/>
<path d="M2166 4921 c-135 -133 -210 -199 -256 -226 -174 -100 -357 -277 -450
-436 -52 -89 -91 -129 -752 -794 -580 -582 -698 -705 -698 -728 0 -15 3 -27 7
-27 4 0 303 295 664 656 l656 656 -24 -88 -25 -89 -639 -640 c-531 -533 -639
-645 -639 -668 0 -15 3 -27 7 -27 4 0 288 280 631 623 l623 622 -6 -70 -7 -70
-624 -625 c-519 -520 -624 -630 -624 -653 0 -15 3 -27 7 -27 4 0 286 278 625
617 l618 618 0 -65 0 -65 -625 -625 c-520 -520 -625 -630 -625 -653 0 -15 3
-27 7 -27 4 0 287 279 629 621 618 618 621 621 628 589 15 -80 45 -46 -629
-720 -528 -529 -635 -640 -635 -663 0 -15 3 -27 7 -27 4 0 292 284 640 632
682 682 632 639 647 553 4 -28 -32 -66 -645 -680 -540 -541 -649 -655 -649
-678 0 -15 3 -27 7 -27 4 0 299 291 654 646 l647 647 7 -58 8 -57 -662 -662
c-554 -555 -661 -666 -661 -689 0 -23 3 -26 18 -18 9 5 310 303 667 661 l650
650 11 -52 11 -53 -679 -680 c-564 -567 -678 -685 -678 -708 0 -15 3 -27 7
-27 4 0 312 304 684 676 l677 677 11 -54 12 -53 -696 -696 c-579 -580 -695
-700 -695 -723 0 -15 3 -27 7 -27 4 0 319 311 700 692 452 452 694 687 697
677 3 -7 9 -30 14 -49 l9 -35 -713 -715 c-595 -596 -714 -720 -714 -743 0 -15
3 -27 7 -27 4 0 328 320 719 712 l712 711 11 -39 c6 -21 11 -46 11 -54 0 -8
-328 -343 -730 -745 -609 -609 -730 -735 -730 -758 0 -15 3 -27 7 -27 4 0 337
329 739 732 l732 731 11 -39 c6 -21 11 -46 11 -54 0 -8 -337 -352 -750 -765
-626 -626 -750 -755 -750 -778 0 -15 3 -27 7 -27 4 0 346 338 760 752 491 491
754 747 757 737 3 -7 9 -30 14 -49 l9 -35 -773 -775 c-651 -652 -774 -780
-774 -803 0 -23 3 -26 18 -18 9 5 359 352 777 770 418 419 763 761 766 761 4
0 12 -21 18 -47 l12 -47 -795 -796 c-665 -664 -796 -800 -796 -823 0 -15 3
-27 7 -27 4 0 366 358 804 796 l796 796 17 -48 16 -49 -795 -795 c-437 -437
-795 -799 -795 -803 0 -4 12 -7 27 -7 23 0 156 128 804 776 l776 776 17 -48
16 -48 -720 -721 c-396 -396 -720 -724 -720 -728 0 -4 12 -7 27 -7 23 0 144
117 729 701 l702 701 17 -47 18 -47 -646 -646 c-356 -356 -647 -651 -647 -655
0 -4 12 -7 27 -7 23 0 133 106 655 627 345 345 629 625 631 622 2 -2 11 -22
20 -45 l15 -41 -564 -564 c-311 -310 -570 -572 -575 -582 -8 -14 -5 -17 18
-17 23 0 119 91 585 557 l557 557 20 -45 20 -44 -504 -505 c-278 -278 -505
-509 -505 -513 0 -4 12 -7 27 -7 22 0 112 84 515 487 268 268 489 485 490 482
2 -2 12 -22 21 -43 l18 -39 -435 -436 c-240 -240 -436 -440 -436 -444 0 -4 12
-7 27 -7 22 0 101 74 447 420 l421 419 23 -41 23 -42 -371 -371 c-203 -204
-370 -374 -370 -378 0 -4 12 -7 27 -7 22 0 92 65 383 356 l357 356 22 -37 c11
-20 21 -39 21 -43 0 -4 -133 -140 -296 -302 -162 -162 -300 -303 -305 -312 -8
-15 -5 -18 17 -18 23 0 81 53 321 293 l294 292 29 -35 29 -35 -250 -250 c-137
-138 -249 -254 -249 -258 0 -4 12 -7 27 -7 21 0 73 47 265 237 l238 237 29
-34 30 -35 -195 -196 c-107 -107 -194 -198 -194 -202 0 -4 12 -7 26 -7 21 0
66 39 213 185 l187 185 37 -27 38 -27 -151 -151 c-82 -83 -150 -155 -150 -158
0 -4 12 -7 26 -7 20 0 60 33 173 144 l146 143 48 -16 47 -16 -111 -110 c-130
-129 -141 -145 -103 -145 20 0 56 29 152 123 120 116 130 124 183 136 31 6 74
21 95 31 29 15 4 -14 -109 -128 -81 -82 -147 -152 -147 -155 0 -4 12 -7 27 -7
23 0 233 205 1311 1282 706 706 1292 1295 1303 1311 11 15 19 37 17 50 -4 18
-183 -157 -1067 -1038 -768 -766 -1052 -1043 -1023 -1000 21 33 63 103 92 155
53 94 62 104 1027 1070 815 817 973 980 973 1003 0 15 -3 27 -7 27 -4 0 -428
-420 -942 -932 -513 -513 -931 -928 -928 -923 2 6 24 55 47 110 l42 100 894
895 c748 749 894 900 894 923 0 15 -3 27 -7 27 -4 0 -396 -388 -871 -862 -476
-475 -862 -856 -859 -848 3 8 17 51 32 95 l27 80 839 840 c701 702 839 845
839 868 0 15 -3 27 -7 27 -4 0 -373 -365 -820 -812 l-812 -812 27 92 28 93
792 792 c661 662 792 797 792 820 0 15 -3 27 -7 27 -4 0 -353 -345 -775 -767
-423 -422 -768 -764 -768 -759 0 6 9 44 21 85 l21 76 754 755 c629 630 754
760 754 783 0 15 -3 27 -7 27 -4 0 -337 -330 -740 -732 -403 -403 -733 -728
-733 -723 0 6 9 43 20 84 l19 75 720 721 c601 601 721 725 721 748 0 15 -3 27
-7 27 -4 0 -324 -316 -711 -702 -387 -387 -702 -694 -699 -683 3 11 11 47 17
80 l12 60 694 695 c578 579 694 700 694 723 0 15 -3 27 -7 27 -4 0 -313 -305
-686 -677 -374 -373 -677 -669 -674 -658 3 11 11 47 17 80 l10 60 670 670
c558 558 670 675 670 698 0 15 -3 27 -7 27 -4 0 -301 -294 -660 -652 -359
-359 -653 -646 -653 -638 0 8 5 42 10 75 l10 59 650 651 c541 541 650 655 650
678 0 15 -3 27 -7 27 -4 0 -295 -287 -646 -637 l-638 -638 6 45 c3 25 8 59 11
75 3 24 137 163 639 665 528 529 635 640 635 663 0 15 -3 27 -7 27 -4 0 -289
-281 -633 -625 l-625 -625 3 68 3 67 630 630 c523 524 629 635 629 658 0 15
-3 27 -7 27 -4 0 -287 -279 -629 -621 l-621 -621 -7 58 -7 58 636 636 c528
529 635 640 635 663 0 15 -3 27 -7 27 -4 0 -292 -284 -639 -631 l-631 -631
-13 52 -13 52 597 597 c328 328 596 600 596 604 0 4 -12 7 -27 7 -23 0 -125
-98 -604 -576 l-576 -576 -17 48 -16 48 520 521 c286 286 520 524 520 528 0 4
-12 7 -27 7 -22 0 -114 -86 -528 -500 -275 -275 -503 -500 -506 -500 -3 0 -14
18 -24 41 l-19 40 452 452 c249 249 452 456 452 460 0 4 -12 7 -27 7 -22 0
-104 -77 -465 -437 -240 -240 -439 -435 -441 -432 -2 2 -14 19 -27 37 l-23 34
392 392 c215 215 391 395 391 399 0 4 -12 7 -27 7 -22 0 -95 -68 -405 -377
l-379 -378 -29 35 -29 35 334 335 c184 185 335 339 335 343 0 4 -12 7 -27 7
-22 0 -87 -60 -353 -325 l-326 -325 -32 33 -32 33 276 274 c151 151 280 283
285 293 8 14 5 17 -17 17 -23 0 -78 -51 -303 -274 l-276 -275 -37 28 -37 27
230 230 c127 126 235 237 240 247 8 14 5 17 -17 17 -22 0 -72 -44 -260 -231
l-232 -231 -41 24 -40 24 190 190 c105 104 195 197 200 207 8 14 5 17 -17 17
-22 0 -66 -39 -223 -194 l-196 -194 -42 22 -43 21 156 155 c85 85 160 163 165
173 8 14 5 17 -17 17 -21 0 -62 -35 -193 -163 l-166 -163 -47 16 -47 16 130
130 c151 149 162 164 123 164 -20 0 -58 -31 -168 -139 l-141 -139 -53 10 -53
11 120 122 c67 67 121 125 121 128 0 4 -12 7 -26 7 -20 0 -56 -30 -153 -125
l-128 -126 -57 7 -57 7 110 112 c61 62 111 115 111 118 0 4 -12 7 -26 7 -20 0
-55 -29 -148 -119 l-122 -120 -69 -7 -70 -7 118 120 c64 66 117 123 117 126 0
4 -12 7 -26 7 -20 0 -58 -31 -163 -134 l-136 -134 -89 -25 -88 -25 151 152
c83 84 151 156 151 159 0 4 -12 7 -26 7 -21 0 -67 -40 -218 -189z m472 -499
c20 -6 14 -15 -75 -103 -71 -69 -111 -101 -145 -113 -92 -34 -180 -124 -209
-215 -14 -46 -489 -527 -501 -508 -4 7 -8 32 -8 57 l0 45 422 422 c401 401
425 423 458 422 19 -1 45 -4 58 -7z m-548 -377 c-206 -206 -377 -370 -378
-365 -2 6 4 41 13 79 l16 67 282 282 282 282 60 14 c33 8 69 15 80 15 13 1
-109 -128 -355 -374z m686 354 c24 -6 44 -14 44 -17 0 -4 -35 -41 -77 -84 -69
-69 -79 -76 -107 -72 -87 15 -87 7 5 100 46 46 85 84 87 84 2 0 23 -5 48 -11z
m147 -55 c18 -9 34 -18 36 -21 3 -2 -32 -41 -78 -87 l-83 -83 -39 25 -40 26
78 78 c43 43 81 78 86 78 4 0 22 -7 40 -16z m-933 -199 c-101 -101 -186 -183
-188 -181 -2 3 17 35 41 73 42 63 149 177 207 221 29 21 113 72 120 72 3 0
-78 -83 -180 -185z m1065 122 l34 -23 -99 -99 c-96 -95 -100 -99 -115 -80 -42
54 -43 52 46 141 46 46 87 84 92 84 4 0 23 -10 42 -23z m123 -108 c8 -13 -14
-40 -119 -145 -114 -114 -129 -126 -129 -102 0 15 -5 39 -10 54 -10 26 -6 33
96 135 106 106 108 107 130 91 12 -9 27 -24 32 -33z m92 -110 c7 -12 -33 -57
-185 -209 l-194 -194 19 63 c11 34 20 72 20 84 0 15 49 71 147 169 l148 148
18 -22 c10 -13 22 -30 27 -39z m60 -108 l18 -38 -247 -247 c-135 -135 -254
-246 -264 -246 -10 0 -17 -8 -17 -19 0 -29 -73 -88 -131 -105 -126 -38 -128
-40 256 344 197 197 361 357 364 355 2 -3 12 -22 21 -44z m-793 -30 c8 -4 -34
-53 -116 -135 l-128 -128 -18 47 -18 46 93 94 c92 92 93 93 134 88 22 -3 47
-9 53 -12z m38 -181 c-110 -110 -203 -200 -207 -200 -3 0 -16 16 -29 36 l-22
36 154 154 155 155 64 8 c36 5 69 9 75 10 5 0 -80 -89 -190 -199z m280 150 c8
-16 15 -35 15 -42 0 -7 -89 -101 -197 -210 l-197 -197 -37 27 -38 27 212 213
c116 116 215 212 219 212 4 0 14 -13 23 -30z m-663 -83 l3 -47 -226 -226 -226
-226 -13 52 -13 52 234 234 c129 129 235 229 236 222 1 -7 3 -34 5 -61z m1195
-3 l10 -42 -197 -197 -197 -196 -39 18 c-21 9 -41 19 -44 21 -2 1 97 104 220
227 124 124 227 221 231 217 3 -4 11 -26 16 -48z m-550 -122 c-59 -144 -162
-245 -262 -258 l-50 -6 165 165 c90 92 166 165 168 163 1 -2 -8 -31 -21 -64z
m-606 -26 l16 -44 -222 -222 -221 -221 -17 36 c-9 20 -17 41 -17 48 0 11 429
447 440 447 3 0 12 -20 21 -44z m1188 -36 c1 -32 -11 -47 -151 -187 l-152
-153 -33 32 -33 32 177 178 c192 193 189 191 192 98z m-1119 -96 l23 -35 -34
-35 c-19 -19 -51 -39 -73 -45 -65 -18 -135 -57 -188 -107 -68 -63 -74 -76 -49
-111 l20 -28 -58 -57 -58 -57 -25 38 -26 38 216 218 c119 119 220 217 224 217
3 0 16 -16 28 -36z m1113 -41 c-21 -135 5 -101 -331 -435 -305 -304 -307 -306
-357 -313 -27 -3 -61 -9 -75 -12 -42 -9 183 211 255 250 99 53 268 228 249
258 -4 7 48 66 127 145 74 74 134 134 135 134 1 0 -1 -12 -3 -27z m-84 -285
c-81 -160 -207 -289 -365 -374 l-69 -37 225 227 c124 124 226 226 228 226 1 0
-7 -19 -19 -42z m-1027 -266 l48 -18 -64 -63 -63 -63 -43 22 -43 22 59 59 c32
32 59 59 59 59 0 0 21 -8 47 -18z m187 -48 c23 -5 20 -9 -45 -75 -73 -73 -74
-74 -140 -48 l-28 10 64 64 c67 68 63 66 149 49z m156 -74 c-87 -87 -91 -90
-135 -90 -76 0 -76 9 3 87 74 73 94 83 207 92 8 0 -26 -39 -75 -89z"/>
<path d="M3896 1250 c-669 -668 -1222 -1223 -1227 -1232 -8 -15 -5 -18 18 -18
23 0 210 183 1211 1182 651 651 1192 1195 1203 1211 11 15 19 37 17 50 -4 18
-210 -183 -1222 -1193z"/>
<path d="M3996 1150 c-614 -613 -1122 -1123 -1127 -1132 -8 -15 -5 -18 18 -18
23 0 196 168 1111 1082 596 596 1092 1095 1103 1111 11 15 19 37 17 50 -4 18
-193 -166 -1122 -1093z"/>
<path d="M4096 1050 c-559 -558 -1022 -1023 -1027 -1033 -8 -14 -5 -17 18 -17
23 0 181 153 1011 983 541 540 992 994 1003 1010 11 15 19 37 17 50 -4 18
-175 -149 -1022 -993z"/>
<path d="M4196 950 c-504 -503 -922 -923 -927 -932 -8 -15 -5 -18 18 -18 23 0
167 139 911 882 486 486 892 895 903 911 11 15 19 37 17 50 -4 18 -158 -132
-922 -893z"/>
<path d="M4296 850 c-449 -448 -822 -823 -827 -832 -8 -15 -5 -18 18 -18 23 0
152 124 811 783 431 430 792 794 803 810 11 15 19 37 17 50 -4 18 -141 -114
-822 -793z"/>
<path d="M4396 750 c-394 -393 -722 -723 -727 -732 -8 -15 -5 -18 18 -18 23 0
137 110 711 683 376 375 692 694 703 710 11 15 19 37 17 50 -4 18 -124 -97
-722 -693z"/>
<path d="M4496 650 c-339 -338 -622 -623 -627 -632 -8 -15 -5 -18 18 -18 23 0
123 95 611 583 321 320 592 594 603 610 11 15 19 37 17 50 -4 18 -106 -80
-622 -593z"/>
<path d="M4596 550 c-284 -283 -522 -523 -527 -533 -8 -14 -5 -17 18 -17 23 0
108 81 511 483 266 265 492 494 503 510 11 15 19 37 17 50 -4 18 -89 -62 -522
-493z"/>
<path d="M4696 450 c-229 -228 -422 -423 -427 -432 -8 -15 -5 -18 18 -18 22 0
93 66 411 383 211 210 392 394 403 410 11 15 19 37 17 50 -4 18 -72 -45 -422
-393z"/>
<path d="M4796 350 c-174 -173 -322 -323 -327 -332 -8 -15 -5 -18 17 -18 23 0
80 52 312 282 156 156 293 295 303 311 11 15 19 37 17 50 -4 18 -54 -28 -322
-293z"/>
<path d="M4896 250 c-119 -118 -222 -223 -227 -232 -8 -15 -5 -18 17 -18 21 0
65 37 211 183 205 202 226 227 221 260 -3 19 -37 -11 -222 -193z"/>
<path d="M4996 150 c-136 -133 -149 -150 -111 -150 18 0 49 23 111 82 102 98
127 130 122 161 -3 19 -19 7 -122 -93z"/>
</g>
</svg>
