<?xml version="1.0" encoding="utf-8"?>
<!-- Generator: Adobe Illustrator 23.0.3, SVG Export Plug-In . SVG Version: 6.00 Build 0)  -->
<svg version="1.1" id="Layer_1" xmlns="http://www.w3.org/2000/svg" xmlns:xlink="http://www.w3.org/1999/xlink" x="0px" y="0px"
	 viewBox="0 0 512 512" style="enable-background:new 0 0 512 512;" xml:space="preserve">
<style type="text/css">
	.st0{fill:#FFFFFF;}
</style>
<path class="st0" d="M474.8,190.6l-25-4.2c-2.2-6.2-4.7-12.3-7.5-18.2l14.7-20.6c12.8-18,10.7-42.2-4.8-57.7l-30-30
	c-8.5-8.5-19.7-13.2-31.7-13.2c-9.4,0-18.4,2.9-25.9,8.3L344,69.8c-6.4-3-12.9-5.7-19.4-8l-4.1-24.5C316.8,15.7,298.3,0,276.3,0
	h-42.4c-22,0-40.6,15.7-44.2,37.3l-4.3,25.4c-6.1,2.2-12.2,4.8-18.1,7.6L147,55.8c-7.6-5.5-16.6-8.4-26.1-8.4
	c-12,0-23.3,4.7-31.7,13.2l-30.1,30c-15.5,15.5-17.6,39.8-4.8,57.7l14.9,21c-2.8,5.9-5.2,12-7.4,18.2l-24.5,4.1
	C15.7,195.3,0,213.8,0,235.8v42.4c0,22,15.7,40.6,37.3,44.2l25.4,4.3c2.2,6.1,4.8,12.2,7.6,18.1l-14.5,20.2
	c-12.8,18-10.7,42.3,4.8,57.7l30,30c8.5,8.5,19.7,13.2,31.7,13.2c9.4,0,18.4-2.9,25.9-8.3l21-14.9c5.5,2.6,11.2,4.9,17.1,7l4.2,25
	c3.6,21.7,22.2,37.4,44.2,37.4h42.5c22,0,40.6-15.7,44.2-37.4l4.2-25c6.2-2.2,12.3-4.7,18.2-7.5l20.5,14.7
	c7.6,5.5,16.6,8.4,26.1,8.4c11.9,0,23.2-4.7,31.6-13.2l30-30c15.5-15.5,17.6-39.8,4.8-57.7l-14.7-20.7c2.9-6,5.4-12.1,7.5-18.1
	l24.9-4.2c21.7-3.6,37.4-22.2,37.4-44.2v-42.3C512.2,212.9,496.6,194.3,474.8,190.6z M482,277.2c0,7.3-5.2,13.4-12.3,14.6l-33.1,5.5
	c-6.1,1-11,5.3-12.9,11.2c-2.9,9.5-7,19.3-12,28.9c-2.8,5.4-2.4,11.9,1.2,16.9l19.5,27.4c4.2,5.9,3.5,13.9-1.6,19.1l-30,30
	c-2.9,2.9-6.5,4.4-10.4,4.4c-3.1,0-6.1-0.9-8.6-2.7L354.5,413c-5-3.6-11.5-4.1-17-1.2c-9.2,4.8-18.9,8.8-28.9,12
	c-5.9,1.8-10.1,6.7-11.2,12.8l-5.6,33.1c-1.2,7.2-7.3,12.4-14.6,12.4h-42.5c-7.3,0-13.4-5.2-14.6-12.3l-5.5-33.1
	c-1-6.1-5.3-11-11.1-12.8c-9.9-3.1-19.3-7-28-11.5c-2.4-1.2-4.9-1.8-7.5-1.8c-3.3,0-6.6,1-9.4,3l-27.7,19.7
	c-2.5,1.8-5.3,2.7-8.5,2.7c-4,0-7.6-1.5-10.4-4.4l-30.1-30.1c-5.1-5.1-5.8-13.1-1.6-18.9l19.4-26.9c3.6-5.1,4.1-11.6,1.2-17.1
	c-4.9-9.2-9-18.9-12.1-28.8c-1.9-5.8-6.7-10.1-12.8-11.1l-33.5-5.7c-7.2-1.2-12.4-7.3-12.4-14.6v-42.4c0-7.3,5.2-13.4,12.4-14.6
	l32.7-5.5c6.1-1,11-5.3,12.8-11.3c3.1-10.1,7-19.8,11.8-29c2.8-5.4,2.4-11.9-1.2-16.9l-19.7-27.7c-4.2-5.9-3.5-13.9,1.6-19l30.1-30
	l0.1-0.1c2.7-2.8,6.4-4.3,10.3-4.3c3.1,0,6.1,0.9,8.6,2.7l27.1,19.5c5.1,3.6,11.6,4.1,17.1,1.1c9.2-4.9,18.9-9,28.8-12.1
	c5.8-1.8,10.1-6.7,11.1-12.8l5.7-33.5c1.2-7.2,7.3-12.4,14.6-12.4h42.4c7.3,0,13.4,5.2,14.6,12.4l5.5,32.7c1,6.1,5.4,11,11.3,12.8
	c10.1,3.1,20.2,7.2,30,12.4c5.4,2.8,11.9,2.4,16.9-1.2l27.4-19.5c2.5-1.8,5.3-2.7,8.5-2.7c4,0,7.6,1.5,10.4,4.4l30.1,30.1
	c5.1,5.1,5.8,13.1,1.6,19l-19.5,27.3c-3.6,5-4,11.5-1.2,17c4.8,9.2,8.8,18.9,12,28.9c1.8,5.9,6.7,10.1,12.8,11.2l33.1,5.6l0,0
	c7.1,1.2,12.3,7.3,12.1,14.4V277.2z"/>
<path class="st0" d="M256,156.5c-54.9,0-99.5,44.7-99.5,99.5s44.7,99.5,99.5,99.5s99.5-44.7,99.5-99.5S310.9,156.5,256,156.5z
	 M256,325.5c-38.3,0-69.5-31.2-69.5-69.5s31.2-69.5,69.5-69.5s69.5,31.2,69.5,69.5S294.3,325.5,256,325.5z"/>
</svg>
