<?xml version="1.0" encoding="utf-8"?>
<!-- Generator: Adobe Illustrator 23.0.3, SVG Export Plug-In . SVG Version: 6.00 Build 0)  -->
<svg version="1.1" id="Capa_1" xmlns="http://www.w3.org/2000/svg" xmlns:xlink="http://www.w3.org/1999/xlink" x="0px" y="0px"
	 viewBox="0 0 512 512" style="enable-background:new 0 0 512 512;" xml:space="preserve">
<style type="text/css">
	.st0{fill:#FFFFFF;}
</style>
<g>
	<g>
		<path class="st0" d="M505.5,447.3c-4-1-8.1,1.4-9.1,5.5c-2,8-5.6,15.2-10.3,21.4c-2.7-12.5-10-23.5-20.4-30.5c1.9-4,3-8.5,3-13.2
			c0-16.4-13-29.8-29-29.8s-29,13.3-29,29.8c0,4.7,1.1,9.2,3,13.2c-10.4,7-17.7,17.9-20.4,30.4c-7.6-9.9-12.1-22.2-12.1-35.6
			c0-32.3,26.3-58.5,58.5-58.5c25.6,0,48.6,17.1,56,41.6c1.2,4,5.4,6.2,9.4,5c4-1.2,6.2-5.4,5-9.4c-4.5-14.8-13.8-28.1-26.2-37.5
			c-10.8-8.2-23.4-13.1-36.7-14.4v-38.9c0-10.1-8.2-18.4-18.4-18.4H264.4v-31c14.9-0.9,26.8-13.3,26.8-28.5c0-10.1,12.2-15.2,19.4-8
			c11.1,11.1,29.3,11.1,40.4,0l8-8c11.1-11.1,11.1-29.3,0-40.4c-7.2-7.2-2.1-19.4,8-19.4c0.1,0,0.1,0,0.2,0c7.7,0,14.9-2.9,20.3-8.3
			c5.2-5.2,8.1-12.2,8.1-19.6v-12.7c0-7.4-2.9-14.4-8.1-19.6c-5.3-5.2-12.4-8.3-20.4-8.3c-10.2,0-15.2-12.2-8.1-19.4
			c11.1-11.1,11.1-29.3,0-40.4l-8.5-8.5c-5.2-5.2-12.2-8.1-19.5-8.1c0,0,0,0,0,0c-7.6,0-14.8,3.1-20.3,8.6c-7.2,7.2-19.4,2.2-19.4-8
			c0-15.8-12.8-28.6-28.6-28.6h-11.3c-15.8,0-28.6,12.8-28.6,28.6c0,10.1-12.2,15.2-19.4,8c-11.1-11.1-29.3-11.1-40.4,0l-8,8
			c-11.1,11.1-11.1,29.3,0,40.4c7.2,7.2,2.1,19.4-8,19.4c-0.1,0-0.1,0-0.2,0c-7.7,0-14.9,2.9-20.3,8.3c-5.2,5.2-8.1,12.2-8.1,19.6
			v12c0,15.8,12.8,28.6,28.6,28.6c10.1,0,15.2,12.2,8,19.4c-11.1,11.1-11.1,29.3,0,40.4l8,8c11.1,11.1,29.3,11.1,40.4,0
			c7.2-7.2,19.4-2.1,19.4,8c0,15.1,11.8,27.5,26.6,28.5v31H85.2c-10.1,0-18.4,8.2-18.4,18.4v38.9c-37,3.8-66,35.1-66,73.1
			c0,40.2,32.7,73.5,73.5,73.5c40.4,0,73.5-32.9,73.5-73.5c0-38-29-69.4-66-73.1v-38.9c0-1.9,1.5-3.4,3.4-3.4h164.2v42.3
			c-37,3.8-66,35.1-66,73.1c0,40.5,33,73.5,73.5,73.5c40.4,0,73.5-32.9,73.5-73.5c0-38-29-69.4-66-73.1v-42.3h164.4
			c1.9,0,3.4,1.5,3.4,3.4v38.9c-37,3.8-66,35.1-66,73.1c0,40.5,33,73.5,73.5,73.5c33.8,0,63.1-22.9,71.3-55.6
			C512,452.3,509.6,448.3,505.5,447.3L505.5,447.3z M237.8,248.6c0-23.6-28.4-35.2-45-18.6c-5.3,5.3-13.9,5.3-19.2,0l-8-8
			c-5.3-5.3-5.3-13.9,0-19.2c16.6-16.6,4.9-45-18.6-45c-7.5,0-13.6-6.1-13.6-13.6v-12c0-3.4,1.3-6.6,3.7-9c2.5-2.5,6-3.9,9.7-3.9
			c0.1,0,0.1,0,0.2,0c23.5,0,35.2-28.4,18.6-45c-5.3-5.3-5.3-13.9,0-19.2l8-8c5.3-5.3,13.9-5.3,19.2,0c16.6,16.6,45,4.9,45-18.6
			c0-7.5,6.1-13.6,13.6-13.6h11.3c7.5,0,13.6,6.1,13.6,13.6c0,23.5,28.4,35.3,45,18.6c2.6-2.7,6.1-4.1,9.7-4.1h0
			c3.4,0,6.5,1.3,8.9,3.7l8.5,8.5c5.3,5.3,5.3,13.9,0,19.2c-16.6,16.6-4.9,45,18.6,45h0.1h0.1c3.7,0,7.2,1.4,9.7,3.9
			c2.4,2.4,3.7,5.6,3.7,9v12.7c0,3.4-1.3,6.6-3.7,9c-2.5,2.5-6,3.9-9.7,3.9c-0.1,0-0.1,0-0.2,0c-23.5,0-35.2,28.4-18.6,45
			c5.3,5.3,5.3,13.9,0,19.2l-8,8c-5.3,5.3-13.9,5.3-19.2,0c-16.6-16.6-45-4.9-45,18.6c0,7.5-6.1,13.6-13.6,13.6h-11.3
			C243.8,262.1,237.8,256,237.8,248.6L237.8,248.6z M41.8,487.1c0.1-0.5-2.1-20.9,16.4-32c4.6,3.2,10.2,5,16.1,5
			c6,0,11.5-1.9,16.1-5c9.9,5.9,16.2,16.8,16.4,28.9v3.1c-9.3,6.2-20.5,9.9-32.5,9.9S51.1,493.3,41.8,487.1z M74.3,445.2
			c-7.7,0-14-6.6-14-14.7s6.3-14.7,14-14.7s14,6.6,14,14.7S82,445.2,74.3,445.2z M132.8,438.5c0,13.4-4.5,25.7-12.1,35.6
			c-2.7-12.5-10-23.4-20.4-30.4c1.9-4,3-8.5,3-13.2c0-16.4-13-29.8-29-29.8s-29,13.3-29,29.8c0,4.7,1.1,9.2,3,13.2
			c-10.4,7-17.7,17.9-20.4,30.4c-7.6-9.9-12.1-22.2-12.1-35.6c0-32.3,26.3-58.5,58.5-58.5S132.8,406.2,132.8,438.5z M224.4,487.1
			V484c0.2-12.1,6.5-23,16.4-28.9c4.6,3.2,10.2,5,16.1,5c6,0,11.5-1.9,16.1-5c9.9,5.9,16.2,16.8,16.4,28.9v3.1
			c-9.3,6.2-20.5,9.9-32.5,9.9C244.9,497,233.7,493.3,224.4,487.1L224.4,487.1z M256.9,445.2c-7.7,0-14-6.6-14-14.7
			s6.3-14.7,14-14.7c7.7,0,14,6.6,14,14.7S264.6,445.2,256.9,445.2z M315.4,438.5c0,13.4-4.5,25.7-12.1,35.6
			c-2.7-12.5-10-23.4-20.4-30.4c1.9-4,3-8.5,3-13.2c0-16.4-13-29.8-29-29.8s-29,13.3-29,29.8c0,4.7,1.1,9.2,3,13.2
			c-10.4,7-17.7,17.9-20.4,30.4c-7.6-9.9-12.1-22.2-12.1-35.6c0-32.3,26.3-58.5,58.5-58.5C289.2,380,315.4,406.2,315.4,438.5
			L315.4,438.5z M439.7,415.7c7.7,0,14,6.6,14,14.7s-6.3,14.7-14,14.7s-14-6.6-14-14.7S431.9,415.7,439.7,415.7z M407.1,487.1V484
			c0.2-12.1,6.5-23,16.4-28.9c4.6,3.2,10.2,5,16.1,5c6,0,11.5-1.9,16.1-5c9.9,5.9,16.2,16.8,16.4,28.9v3.1
			c-9.4,6.3-20.6,9.8-32.5,9.8C427.6,497,416.5,493.3,407.1,487.1L407.1,487.1z"/>
		<path class="st0" d="M261,200.4c31-2,55.9-26.8,57.8-57.8c2.4-37.3-28.4-68.2-65.8-65.8c-25,1.6-46.4,18-54.6,41.7
			c-1.4,3.9,0.7,8.2,4.6,9.5c3.9,1.4,8.2-0.7,9.5-4.7c6.1-17.7,22.7-30.5,41.4-31.6c28.3-1.8,51.7,21.5,49.9,49.9
			c-1.5,23.5-20.3,42.3-43.8,43.8c-21.2,1.3-40.8-11.7-47.6-31.8c-1.3-3.9-5.6-6-9.5-4.7c-3.9,1.3-6,5.6-4.7,9.5
			C207.2,184.9,233,202.2,261,200.4L261,200.4z"/>
	</g>
</g>
</svg>
