<?xml version="1.0" encoding="utf-8"?>
<!-- Generator: Adobe Illustrator 23.0.3, SVG Export Plug-In . SVG Version: 6.00 Build 0)  -->
<svg version="1.1" id="Layer_5" xmlns="http://www.w3.org/2000/svg" xmlns:xlink="http://www.w3.org/1999/xlink" x="0px" y="0px"
	 viewBox="0 0 512 512" style="enable-background:new 0 0 512 512;" xml:space="preserve">
<style type="text/css">
	.st0{fill:#FFFFFF;}
</style>
<path class="st0" d="M72,393.5V288H56v105.5c-9.3,3.3-16,12.1-16,22.5c0,13.2,10.8,24,24,24s24-10.8,24-24
	C88,405.6,81.3,396.8,72,393.5z M64,424c-4.4,0-8-3.6-8-8s3.6-8,8-8s8,3.6,8,8S68.4,424,64,424z"/>
<path class="st0" d="M112,288c-13.2,0-24,10.8-24,24c0,10.4,6.7,19.2,16,22.5V440h16V334.5c9.3-3.3,16-12.1,16-22.5
	C136,298.8,125.2,288,112,288z M112,320c-4.4,0-8-3.6-8-8s3.6-8,8-8s8,3.6,8,8S116.4,320,112,320z"/>
<path class="st0" d="M424,393.5V288h-16v105.5c-9.3,3.3-16,12.1-16,22.5c0,13.2,10.8,24,24,24s24-10.8,24-24
	C440,405.6,433.3,396.8,424,393.5z M416,424c-4.4,0-8-3.6-8-8s3.6-8,8-8s8,3.6,8,8S420.4,424,416,424z"/>
<path class="st0" d="M464,288c-13.2,0-24,10.8-24,24c0,10.4,6.7,19.2,16,22.5V440h16V334.5c9.3-3.3,16-12.1,16-22.5
	C488,298.8,477.2,288,464,288z M464,320c-4.4,0-8-3.6-8-8s3.6-8,8-8s8,3.6,8,8S468.4,320,464,320z"/>
<path class="st0" d="M352,264c-3.2,0-6.2,0.6-8.9,1.8c-2.8-10.2-12-17.8-23.1-17.8c-6.2,0-11.7,2.4-16,6.2c-4.3-3.8-9.8-6.2-16-6.2
	c-2.8,0-5.5,0.6-8,1.5v-68.8c33.3-9.4,57.9-37.8,63-71.7l33.8,18.6C357,142.1,344,165.6,344,192c0,44.1,35.9,80,80,80s80-35.9,80-80
	s-35.9-80-80-80c-11,0-21.4,2.2-31,6.2l-49.3-27.1C341.2,44.9,302.9,8,256,8s-85.2,36.9-87.8,83.1L119,118.2c-9.5-4-20-6.2-31-6.2
	c-44.1,0-80,35.9-80,80s35.9,80,80,80s80-35.9,80-80c0-26.4-13-49.9-32.8-64.4L169,109c5.1,33.9,29.7,62.3,63,71.7v147.5
	c0,3.6-0.8,7.3-2.4,10.6l-6.7-33.6c-4.8-24-26.1-41.4-50.6-41.4c-11.2,0-20.3,9.1-20.3,20.3c0,4,1.2,7.9,3.4,11.2l8.2,12.4
	c3,4.6,5,9.9,5.7,15.3l5.5,44.3c0.9,7.4,3.2,14.4,6.7,20.4l26.4,54.4V456h-16v48h176v-48h-16v-13.3l12.8-17.1
	C372,416,376,404,376,392V288C376,274.8,365.2,264,352,264L352,264z M424,256c-14.4,0-27.6-4.8-38.3-12.9
	c9-11.9,23.2-19.1,38.3-19.1s29.3,7.2,38.3,19.1C451.6,251.2,438.4,256,424,256z M400,184c0-13.2,10.8-24,24-24s24,10.8,24,24
	s-10.8,24-24,24S400,197.2,400,184z M424,128c35.3,0,64,28.7,64,64c0,15.1-5.3,29.1-14.1,40c-6.3-7.9-14.4-14.1-23.4-18.2
	c8.3-7.3,13.6-17.9,13.6-29.8c0-22.1-17.9-40-40-40s-40,17.9-40,40c0,11.9,5.3,22.5,13.6,29.8c-9.1,4.1-17.1,10.3-23.4,18.2
	c-8.8-11-14.1-24.9-14.1-40C360,156.7,388.7,128,424,128z M88,256c-14.4,0-27.6-4.8-38.3-12.9c9-11.9,23.2-19.1,38.3-19.1
	s29.3,7.2,38.3,19.1C115.6,251.2,102.4,256,88,256z M64,184c0-13.2,10.8-24,24-24s24,10.8,24,24s-10.8,24-24,24S64,197.2,64,184z
	 M152,192c0,15.1-5.3,29.1-14.1,40c-6.3-7.9-14.4-14.1-23.4-18.2c8.3-7.3,13.6-17.9,13.6-29.8c0-22.1-17.9-40-40-40s-40,17.9-40,40
	c0,11.9,5.3,22.5,13.6,29.8c-9.1,4.1-17.1,10.3-23.4,18.2c-8.8-11-14.1-24.9-14.1-40c0-35.3,28.7-64,64-64S152,156.7,152,192z
	 M184,96c0-39.7,32.3-72,72-72s72,32.3,72,72c0,16.1-5.5,31.3-14.7,43.5c-6.6-13.3-17.5-23.7-30.8-29.7c8.2-7.3,13.5-17.9,13.5-29.7
	c0-22.1-17.9-40-40-40s-40,17.9-40,40c0,11.8,5.3,22.4,13.5,29.7c-13.3,6-24.2,16.5-30.8,29.7C189.5,127.3,184,112.2,184,96L184,96z
	 M280,80c0,13.2-10.8,24-24,24s-24-10.8-24-24s10.8-24,24-24S280,66.8,280,80z M210.9,152c6.7-19,24.5-32,45.1-32
	c20.6,0,38.4,13,45.1,32c-7,5.7-15.1,10.1-24,12.8c-4-7.6-11.9-12.8-21.1-12.8s-17.1,5.2-21.1,12.8C226,162.1,217.9,157.7,210.9,152
	z M352,488H208v-16h144V488z M360,392c0,8.6-2.8,17.1-8,24l-16,21.3V456H224v-17.8L195.7,380c-2.6-4.6-4.3-9.6-5-14.9l-5.5-44.3
	c-1-7.9-3.8-15.6-8.3-22.2l-8.2-12.4c-0.5-0.7-0.7-1.5-0.7-2.4c0-2.4,1.9-4.3,4.3-4.3c16.9,0,31.6,12,34.9,28.6l10.3,51.4h19.5
	l6.8-13.7c2.8-5.5,4.2-11.7,4.2-17.9V176c0-4.4,3.6-8,8-8c4.4,0,8,3.6,8,8v96v32h16v-32c0-4.4,3.6-8,8-8s8,3.6,8,8v32h16v-32
	c0-4.4,3.6-8,8-8s8,3.6,8,8v16v16h16v-16c0-4.4,3.6-8,8-8s8,3.6,8,8V392z"/>
</svg>
