<?xml version="1.0" encoding="utf-8"?>
<!-- Generator: Adobe Illustrator 23.0.3, SVG Export Plug-In . SVG Version: 6.00 Build 0)  -->
<svg version="1.1" id="Capa_1" xmlns="http://www.w3.org/2000/svg" xmlns:xlink="http://www.w3.org/1999/xlink" x="0px" y="0px"
	 viewBox="0 0 512 512" style="enable-background:new 0 0 512 512;" xml:space="preserve">
<style type="text/css">
	.st0{fill:#FFFFFF;}
</style>
<g>
	<g>
		<g>
			<path class="st0" d="M450.4,82.4H61.6c-11.3,0-20.4,9.1-20.4,20.4v388.8c0,11.3,9.1,20.4,20.4,20.4h388.8
				c11.3,0,20.4-9.1,20.4-20.4V102.8C470.8,91.5,461.7,82.4,450.4,82.4z M430,471.1H82V123.2H430L430,471.1L430,471.1z"/>
			<path class="st0" d="M138.6,40.9h235.6c11.3,0,20.4-9.1,20.4-20.4S385.4,0,374.1,0H138.6c-11.3,0-20.4,9.1-20.4,20.4
				S127.3,40.9,138.6,40.9z"/>
			<path class="st0" d="M162.4,264.9h187.9c11.3,0,20.4-9.1,20.4-20.4V209c0-11.3-9.1-20.4-20.4-20.4s-20.4,9.1-20.4,20.4v15H182.8
				v-15c0-11.3-9.1-20.4-20.4-20.4S142,197.7,142,209v35.4C142,255.7,151.1,264.9,162.4,264.9z"/>
		</g>
	</g>
</g>
</svg>
