<?xml version="1.0" encoding="utf-8"?>
<!-- Generator: Adobe Illustrator 23.0.3, SVG Export Plug-In . SVG Version: 6.00 Build 0)  -->
<svg version="1.1" id="Layer_1" xmlns="http://www.w3.org/2000/svg" xmlns:xlink="http://www.w3.org/1999/xlink" x="0px" y="0px"
	 viewBox="0 0 512 512" style="enable-background:new 0 0 512 512;" xml:space="preserve">
<style type="text/css">
	.st0{fill:#FFFFFF;}
</style>
<path class="st0" d="M224,112h16v56h-16V112z"/>
<path class="st0" d="M264,144h16v56h-16V144z"/>
<path class="st0" d="M304,168h16v56h-16V168z"/>
<path class="st0" d="M336,320h-9.4c-3.4-9.6-12.5-16-22.6-16h-17.4c-3.4-9.6-12.5-16-22.6-16h-16v-16h120V0H212.7L144,68.7V272h48
	v80.2l-7.4-12.2c-8.4-13.9-26.3-18.7-40.5-10.9s-19.7,25.6-12.4,40.1l46,92c4.4,8.9,12.6,15.5,22.3,17.8V512h16v-32h24v-16h-32
	c-6.8,0-13-3.8-16-9.9l-46-92c-3.4-6.8-0.8-15.1,5.9-18.8c6.7-3.7,15.1-1.5,19.1,5l21.6,35.7H208V220c0-6.6,5.4-12,12-12
	s12,5.4,12,12v116h16v-32h16c4.4,0,8,3.6,8,8v40h16v-32h16c4.4,0,8,3.6,8,8v40h16v-32h8c4.4,0,8,3.6,8,8v93.3l-24,32V512h16v-37.3
	l24-32V344C360,330.7,349.3,320,336,320z M208,27.3V64h-36.7L208,27.3z M220,192c-15.5,0-28,12.5-28,28v36h-32V80h64V16h128v240H248
	v-36C248,204.5,235.5,192,220,192z"/>
<path class="st0" d="M0,456h144v16H0V456z"/>
<path class="st0" d="M0,392h96v16H0V392z"/>
<path class="st0" d="M368,456h144v16H368V456z"/>
<path class="st0" d="M416,392h96v16h-96V392z"/>
<path class="st0" d="M16,320h96V140.7L67.3,96H16V48H0v304h16V320z M64,115.3L92.7,144H64V115.3z M16,112h32v48h48v144H16V112z"/>
<path class="st0" d="M496,48v48h-51.3L400,140.7V320h96v32h16V48H496z M448,115.3V144h-28.7L448,115.3z M496,304h-80V160h48v-48h32
	V304z"/>
</svg>
