<?xml version="1.0" encoding="utf-8"?>
<!-- Generator: Adobe Illustrator 23.0.3, SVG Export Plug-In . SVG Version: 6.00 Build 0)  -->
<svg version="1.1" id="Capa_1" xmlns="http://www.w3.org/2000/svg" xmlns:xlink="http://www.w3.org/1999/xlink" x="0px" y="0px"
	 viewBox="0 0 512 512" style="enable-background:new 0 0 512 512;" xml:space="preserve">
<style type="text/css">
	.st0{fill:#FFFFFF;}
</style>
<g>
	<g>
		<g>
			<path class="st0" d="M405.3,42.7h-44.6c-4.4-12.4-16.1-21.3-30-21.3h-32.2C288.4,8,272.7,0,256,0s-32.4,8-42.4,21.3h-32.2
				c-13.9,0-25.6,8.9-30,21.3h-44.6C83.1,42.7,64,61.8,64,85.3v384c0,23.5,19.1,42.7,42.7,42.7h298.7c23.5,0,42.7-19.1,42.7-42.7
				v-384C448,61.8,428.9,42.7,405.3,42.7z M170.7,53.3c0-5.9,4.8-10.7,10.7-10.7h37.9c3.8,0,7.3-2,9.2-5.3c5.8-10,16.1-16,27.5-16
				c11.4,0,21.7,6,27.5,16c1.9,3.3,5.4,5.3,9.2,5.3h37.9c5.9,0,10.7,4.8,10.7,10.7V64c0,11.8-9.6,21.3-21.3,21.3H192
				c-11.8,0-21.3-9.6-21.3-21.3L170.7,53.3L170.7,53.3z M426.7,469.3c0,11.8-9.6,21.3-21.3,21.3H106.7c-11.8,0-21.3-9.6-21.3-21.3
				v-384c0-11.8,9.6-21.3,21.3-21.3h42.7c0,23.5,19.1,42.7,42.7,42.7h128c23.5,0,42.7-19.1,42.7-42.7h42.7
				c11.8,0,21.3,9.6,21.3,21.3L426.7,469.3L426.7,469.3z"/>
			<path class="st0" d="M301.8,329.4c11.2-14.5,18.2-32.4,18.2-52c0-47.1-38.3-85.3-85.3-85.3s-85.3,38.3-85.3,85.3
				s38.3,85.3,85.3,85.3c19.7,0,37.6-7,52-18.2l57.7,57.7c2.1,2.1,4.8,3.1,7.5,3.1s5.5-1,7.5-3.1c4.2-4.2,4.2-10.9,0-15.1
				L301.8,329.4z M234.7,341.3c-35.3,0-64-28.7-64-64s28.7-64,64-64s64,28.7,64,64S270,341.3,234.7,341.3z"/>
			<path class="st0" d="M259.1,248.5L224,283.6l-13.8-13.8c-4.2-4.2-10.9-4.2-15.1,0c-4.2,4.2-4.2,10.9,0,15.1l21.3,21.3
				c2.1,2.1,4.8,3.1,7.5,3.1s5.5-1,7.5-3.1l42.7-42.7c4.2-4.2,4.2-10.9,0-15.1C270,244.3,263.3,244.3,259.1,248.5z"/>
		</g>
	</g>
</g>
</svg>
