<?xml version="1.0" encoding="utf-8"?>
<!-- Generator: Adobe Illustrator 23.0.3, SVG Export Plug-In . SVG Version: 6.00 Build 0)  -->
<svg version="1.1" id="Capa_1" xmlns="http://www.w3.org/2000/svg" xmlns:xlink="http://www.w3.org/1999/xlink" x="0px" y="0px"
	 viewBox="0 0 512 512" style="enable-background:new 0 0 512 512;" xml:space="preserve">
<style type="text/css">
	.st0{fill:#FFFFFF;}
</style>
<path class="st0" d="M464,448H48c-26.5,0-48-21.5-48-48v-80c0-8.8,7.2-16,16-16c26.5,0,48-21.5,48-48s-21.5-48-48-48
	c-8.8,0-16-7.2-16-16v-80c0-26.5,21.5-48,48-48h416c26.5,0,48,21.5,48,48v80c0,8.8-7.2,16-16,16c-26.5,0-48,21.5-48,48
	s21.5,48,48,48c8.8,0,16,7.2,16,16v80C512,426.5,490.5,448,464,448L464,448z M32,334.4V400c0,8.8,7.2,16,16,16h416
	c8.8,0,16-7.2,16-16v-65.6c-36.5-7.4-64-39.7-64-78.4s27.5-71,64-78.4V112c0-8.8-7.2-16-16-16H48c-8.8,0-16,7.2-16,16v65.6
	c36.5,7.4,64,39.7,64,78.4S68.5,327,32,334.4z"/>
<path class="st0" d="M193,378.2l96-255.9l30,11.2l-96,255.9L193,378.2z"/>
<path id="path-1_20_" class="st0" d="M180.3,261.4c-26.5,0-48-21.5-48-48s21.5-48,48-48s48,21.5,48,48S206.8,261.4,180.3,261.4
	L180.3,261.4z M180.3,197.4c-8.8,0-16,7.2-16,16c0,8.8,7.2,16,16,16c8.8,0,16-7.2,16-16C196.3,204.6,189.1,197.4,180.3,197.4z"/>
<path id="path-1_19_" class="st0" d="M345.7,360.6c-26.5,0-48-21.5-48-48c0-26.5,21.5-48,48-48c26.5,0,48,21.5,48,48
	C393.7,339.1,372.2,360.6,345.7,360.6z M345.7,296.6c-8.8,0-16,7.2-16,16c0,8.8,7.2,16,16,16c8.8,0,16-7.2,16-16
	C361.7,303.8,354.5,296.6,345.7,296.6z"/>
</svg>
