<?xml version="1.0" encoding="utf-8"?>
<!-- Generator: Adobe Illustrator 23.0.3, SVG Export Plug-In . SVG Version: 6.00 Build 0)  -->
<svg version="1.1" id="Capa_1" xmlns="http://www.w3.org/2000/svg" xmlns:xlink="http://www.w3.org/1999/xlink" x="0px" y="0px"
	 viewBox="0 0 512 512" style="enable-background:new 0 0 512 512;" xml:space="preserve">
<style type="text/css">
	.st0{fill:#FFFFFF;}
</style>
<g>
	<g>
		<path class="st0" d="M119.5,337.1c-28.2,0-51.2,23-51.2,51.2s23,51.2,51.2,51.2s51.2-23,51.2-51.2
			C170.7,360,147.7,337.1,119.5,337.1z M119.5,422.4c-18.8,0-34.1-15.3-34.1-34.1c0-18.8,15.3-34.1,34.1-34.1s34.1,15.3,34.1,34.1
			C153.6,407.1,138.3,422.4,119.5,422.4z"/>
	</g>
</g>
<g>
	<g>
		<path class="st0" d="M409.6,337.1c-28.2,0-51.2,23-51.2,51.2s23,51.2,51.2,51.2s51.2-23,51.2-51.2
			C460.8,360,437.8,337.1,409.6,337.1z M409.6,422.4c-18.8,0-34.1-15.3-34.1-34.1c0-18.8,15.3-34.1,34.1-34.1
			c18.8,0,34.1,15.3,34.1,34.1S428.4,422.4,409.6,422.4z"/>
	</g>
</g>
<g>
	<g>
		<path class="st0" d="M510.6,289.8l-76.8-119.5c-1.6-2.4-4.3-3.9-7.2-3.9h-93.9c-4.7,0-8.5,3.8-8.5,8.5v213.3
			c0,4.7,3.8,8.5,8.5,8.5h34.1v-17.1h-25.6V183.5H422l72.9,113.4v82.8h-42.7v17.1h51.2c4.7,0,8.5-3.8,8.5-8.5v-93.9
			C512,292.8,511.5,291.2,510.6,289.8z"/>
	</g>
</g>
<g>
	<g>
		<path class="st0" d="M375.5,277.3v-59.7h68.3v-17.1h-76.8c-4.7,0-8.5,3.8-8.5,8.5v76.8c0,4.7,3.8,8.5,8.5,8.5h128v-17.1
			L375.5,277.3L375.5,277.3z"/>
	</g>
</g>
<g>
	<g>
		<path class="st0" d="M332.8,106.7H8.5c-4.7,0-8.5,3.8-8.5,8.5v273.1c0,4.7,3.8,8.5,8.5,8.5h68.3v-17.1H17.1v-256h307.2v256H162.1
			v17.1h170.7c4.7,0,8.5-3.8,8.5-8.5V115.2C341.3,110.5,337.5,106.7,332.8,106.7z"/>
	</g>
</g>
<g>
	<g>
		<rect x="8.5" y="345.6" class="st0" width="51.2" height="17.1"/>
	</g>
</g>
<g>
	<g>
		<rect x="179.2" y="345.6" class="st0" width="145.1" height="17.1"/>
	</g>
</g>
<g>
	<g>
		<rect x="469.3" y="345.6" class="st0" width="34.1" height="17.1"/>
	</g>
</g>
<g>
	<g>
		<rect x="34.1" y="140.8" class="st0" width="298.7" height="17.1"/>
	</g>
</g>
<g>
	<g>
		<rect x="110.9" y="379.7" class="st0" width="17.1" height="17.1"/>
	</g>
</g>
<g>
	<g>
		<rect x="401.1" y="379.7" class="st0" width="17.1" height="17.1"/>
	</g>
</g>
<g>
	<g>
		<rect x="34.1" y="72.5" class="st0" width="119.5" height="17.1"/>
	</g>
</g>
<g>
	<g>
		<rect y="72.5" class="st0" width="17.1" height="17.1"/>
	</g>
</g>
</svg>
