<?xml version="1.0" encoding="utf-8"?>
<!-- Generator: Adobe Illustrator 23.0.3, SVG Export Plug-In . SVG Version: 6.00 Build 0)  -->
<svg version="1.1" id="Capa_1" xmlns="http://www.w3.org/2000/svg" xmlns:xlink="http://www.w3.org/1999/xlink" x="0px" y="0px"
	 viewBox="0 0 512 512" style="enable-background:new 0 0 512 512;" xml:space="preserve">
<style type="text/css">
	.st0{fill:#FFFFFF;}
</style>
<g>
	<g>
		<circle class="st0" cx="364" cy="140.1" r="32"/>
	</g>
</g>
<g>
	<g>
		<path class="st0" d="M506.5,165.9c-10.7-27.2-30.3-66.4-62.9-98.9C411,34.6,372.2,15.6,345.4,5.3c-29.5-11.3-62.9-4.2-85.3,18.1
			l-78.5,78.2c-23.3,23.2-30,58.8-16.7,88.7c4.1,9.3,8.6,18.3,13.4,27.1L5.9,389.8c-3.8,3.8-5.9,8.8-5.9,14.1v88c0,11,9,20,20,20h88
			c11,0,20-9,20-20v-36l36,0c11,0,20-9,20-20v-36h36c11,0,20-9,20-20s-9-20-20-20h-56c-11,0-20,9-20,20v36l-36,0c-11,0-20,9-20,20
			v36H40v-59.7l177.4-177.4c6.5-6.5,7.7-16.6,3-24.5c-6.9-11.4-13.3-23.6-18.9-36.3c-6.6-14.8-3.2-32.6,8.4-44.1l78.5-78.2
			c11.2-11.2,28-14.7,42.8-9.1c23.2,8.9,56.7,25.2,84.3,52.7c27.7,27.6,44.6,61.6,53.9,85.2c5.8,14.7,2.3,31.5-9,42.7l-79.5,79.1
			c-11.6,11.5-28.9,14.9-44,8.6c-12.5-5.2-24.6-11.4-36-18.4c-9.4-5.8-21.7-2.8-27.5,6.6c-5.8,9.4-2.8,21.7,6.6,27.5
			c13.2,8.1,27.1,15.2,41.6,21.2c30.1,12.5,64.5,5.8,87.6-17.2l79.5-79.1C511,229.2,518.1,195.5,506.5,165.9z"/>
	</g>
</g>
</svg>
