<?xml version="1.0" encoding="utf-8"?>
<!-- Generator: Adobe Illustrator 23.0.3, SVG Export Plug-In . SVG Version: 6.00 Build 0)  -->
<svg version="1.1" id="Layer_5" xmlns="http://www.w3.org/2000/svg" xmlns:xlink="http://www.w3.org/1999/xlink" x="0px" y="0px"
	 viewBox="0 0 512 512" style="enable-background:new 0 0 512 512;" xml:space="preserve">
<style type="text/css">
	.st0{fill:#FFFFFF;}
</style>
<path class="st0" d="M328,256c0-48.5-39.5-88-88-88s-88,39.5-88,88s39.5,88,88,88S328,304.5,328,256z M168,256c0-39.7,32.3-72,72-72
	s72,32.3,72,72s-32.3,72-72,72S168,295.7,168,256z"/>
<path class="st0" d="M248,312v-16h16v-24c0-13.2-10.8-24-24-24c-4.4,0-8-3.6-8-8v-8h8c4.4,0,8,3.6,8,8h16c0-10.4-6.7-19.2-16-22.5
	V200h-16v16h-16v24c0,13.2,10.8,24,24,24c4.4,0,8,3.6,8,8v8h-8c-4.4,0-8-3.6-8-8h-16c0,10.4,6.7,19.2,16,22.5V312H248z"/>
<path class="st0" d="M280,248h16v16h-16V248z"/>
<path class="st0" d="M184,248h16v16h-16V248z"/>
<path class="st0" d="M96,184c48.5,0,88-39.5,88-88S144.5,8,96,8S8,47.5,8,96S47.5,184,96,184z M96,24c39.7,0,72,32.3,72,72
	s-32.3,72-72,72s-72-32.3-72-72S56.3,24,96,24z"/>
<path class="st0" d="M96,120c-4.4,0-8-3.6-8-8H72c0,10.4,6.7,19.2,16,22.5V152h16v-16h16v-24c0-13.2-10.8-24-24-24c-4.4,0-8-3.6-8-8
	v-8h8c4.4,0,8,3.6,8,8h16c0-10.4-6.7-19.2-16-22.5V40H88v16H72v24c0,13.2,10.8,24,24,24c4.4,0,8,3.6,8,8v8H96z"/>
<path class="st0" d="M136,88h16v16h-16V88z"/>
<path class="st0" d="M40,88h16v16H40V88z"/>
<path class="st0" d="M328,456h64v16h-64V456z"/>
<path class="st0" d="M464,8H256c-22.1,0-40,17.9-40,40v90.4c-54.7,11.2-96,59.6-96,117.6c0,24.1,7.2,46.4,19.4,65.3L124,336.7
	l-12-12l-91.7,91.7C12.4,424.3,8,434.8,8,446.1C8,469.2,26.8,488,49.9,488c11.2,0,21.7-4.4,29.7-12.3l91.7-91.7l-12-12l15.4-15.4
	c12.4,8.1,26.3,14,41.3,17V464c0,22.1,17.9,40,40,40h208c22.1,0,40-17.9,40-40V48C504,25.9,486.1,8,464,8z M312,24h96v8
	c0,4.4-3.6,8-8,8h-80c-4.4,0-8-3.6-8-8V24z M68.3,464.4c-4.9,4.9-11.4,7.6-18.3,7.6C35.6,472,24,460.4,24,446.1
	c0-6.9,2.7-13.4,7.6-18.3l80.4-80.4l36.7,36.7L68.3,464.4z M148,360.7L135.3,348l13.8-13.8c3.9,4.5,8.2,8.8,12.7,12.7L148,360.7z
	 M136,256c0-57.3,46.7-104,104-104s104,46.7,104,104s-46.7,104-104,104S136,313.3,136,256L136,256z M440,376V264h-80.4
	c0.2-2.7,0.4-5.3,0.4-8c0-58-41.3-106.4-96-117.6V88h192v304H264v-18.4c5.5-1.1,10.8-2.7,16-4.6v7L440,376z M299.6,360
	c29.4-16.9,51-45.8,58-80H424v80H299.6z M488,464c0,13.2-10.8,24-24,24H256c-13.2,0-24-10.8-24-24v-24h256V464z M488,424H232v-48.4
	c2.7,0.2,5.3,0.4,8,0.4s5.3-0.2,8-0.4V392c0,8.8,7.2,16,16,16h192c8.8,0,16-7.2,16-16V88c0-8.8-7.2-16-16-16H264
	c-8.8,0-16,7.2-16,16v48.4c-2.7-0.2-5.3-0.4-8-0.4s-5.3,0.2-8,0.4V48c0-13.2,10.8-24,24-24h40v8c0,13.2,10.8,24,24,24h80
	c13.2,0,24-10.8,24-24v-8h40c13.2,0,24,10.8,24,24V424z"/>
<path class="st0" d="M280,104h16v16h-16V104z"/>
<path class="st0" d="M312,104h16v16h-16V104z"/>
<path class="st0" d="M344,104h96v16h-96V104z"/>
<path class="st0" d="M344,136h96v16h-96V136z"/>
<path class="st0" d="M376,168h64v16h-64V168z"/>
<path class="st0" d="M376,200h64v16h-64V200z"/>
<path class="st0" d="M376,232h64v16h-64V232z"/>
</svg>
