<?xml version="1.0" encoding="utf-8"?>
<!-- Generator: Adobe Illustrator 23.0.3, SVG Export Plug-In . SVG Version: 6.00 Build 0)  -->
<svg version="1.1" id="Outline" xmlns="http://www.w3.org/2000/svg" xmlns:xlink="http://www.w3.org/1999/xlink" x="0px" y="0px"
	 viewBox="0 0 512 512" style="enable-background:new 0 0 512 512;" xml:space="preserve">
<style type="text/css">
	.st0{fill:#FFFFFF;}
</style>
<path class="st0" d="M349.7,18.3c-1.5-1.5-3.5-2.3-5.7-2.3H104c-22.1,0-40,17.9-40,40v400c0,22.1,17.9,40,40,40h304
	c22.1,0,40-17.9,40-40V120c0-2.1-0.8-4.2-2.3-5.7L349.7,18.3z M352,43.3l68.7,68.7H376c-13.2,0-24-10.8-24-24V43.3z M216,336h-16
	v-16h16V336z M221.5,378.8c0.2,0.7,0.5,1.3,0.8,2c1.1,1.8,1.7,3.8,1.7,5.9c0,7.4-7.2,13.3-16,13.3s-16-6-16-13.3
	c0-2.1,0.6-4.1,1.7-5.9c0.4-0.6,0.6-1.3,0.8-2l7.5-26.8h11.9L221.5,378.8z M432,456c0,13.2-10.8,24-24,24H104c-13.2,0-24-10.8-24-24
	V56c0-13.2,10.8-24,24-24h96v32h-16c-4.4,0-8,3.6-8,8s3.6,8,8,8h16v32h-16c-4.4,0-8,3.6-8,8s3.6,8,8,8h16v32h-16c-4.4,0-8,3.6-8,8
	s3.6,8,8,8h16v32h-16c-4.4,0-8,3.6-8,8s3.6,8,8,8h16v32h-16c-4.4,0-8,3.6-8,8s3.6,8,8,8h16v32h-8c-4.4,0-8,3.6-8,8v32
	c0,2,0.8,4,2.2,5.5l-6.8,24.1c-2.2,4-3.4,8.5-3.4,13.1c0,16.2,14.4,29.3,32,29.3s32-13.2,32-29.3c0-4.6-1.2-9.1-3.4-13.1l-6.8-24.1
	c1.4-1.5,2.2-3.4,2.2-5.5v-32c0-4.4-3.6-8-8-8h-8v-32h16c4.4,0,8-3.6,8-8s-3.6-8-8-8h-16v-32h16c4.4,0,8-3.6,8-8s-3.6-8-8-8h-16v-32
	h16c4.4,0,8-3.6,8-8s-3.6-8-8-8h-16v-32h16c4.4,0,8-3.6,8-8s-3.6-8-8-8h-16V80h16c4.4,0,8-3.6,8-8s-3.6-8-8-8h-16V32h120v56
	c0,22.1,17.9,40,40,40h56V456z"/>
</svg>
