<?xml version="1.0" encoding="utf-8"?>
<!-- Generator: Adobe Illustrator 16.0.0, SVG Export Plug-In . SVG Version: 6.00 Build 0)  -->
<!DOCTYPE svg PUBLIC "-//W3C//DTD SVG 1.1//EN" "http://www.w3.org/Graphics/SVG/1.1/DTD/svg11.dtd">
<svg version="1.1" id="Layer_1" xmlns="http://www.w3.org/2000/svg" xmlns:xlink="http://www.w3.org/1999/xlink" x="0px" y="0px"
	 width="500px" height="500px" viewBox="0 0 500 500" enable-background="new 0 0 500 500" xml:space="preserve">
<g>
	<path fill="#2F2F2F" d="M120.979,491.365c0,0-1.75,4.043-5.188,3.843c-3.431-0.205-5.455-3.843-5.455-3.843
		s-73.149-142.461-76.991-151.76c-6.87-14.947-10.507-43.64,6.266-68.905c16.772-25.261,35.363-43.239,80.427-43.239
		c47.689,0,72.948,35.155,80.023,57.995c7.067,22.83,6.263,37.787-5.865,60.417C191.771,350.726,120.979,491.365,120.979,491.365z"
		/>
	<path fill="#FFFFFF" d="M165.909,310.847c0,27.529-22.318,49.847-49.846,49.847c-27.527,0-49.843-22.317-49.843-49.847
		c0-27.523,22.315-49.846,49.843-49.846C143.591,261.001,165.909,283.323,165.909,310.847z"/>
	<path fill="#2F2F2F" d="M428.417,155.636c0,0-0.974,2.263-2.886,2.147c-1.93-0.117-3.056-2.147-3.056-2.147
		s-40.827-79.526-42.974-84.718c-3.843-8.345-5.867-24.367,3.496-38.462c9.359-14.104,19.738-24.144,44.893-24.144
		c26.62,0,40.729,19.631,44.677,32.376c3.941,12.745,3.493,21.094-3.276,33.721C467.94,77.124,428.417,155.636,428.417,155.636z"/>
	<path fill="#FFFFFF" d="M453.506,54.858c0,15.375-12.47,27.831-27.827,27.831c-15.365,0-27.825-12.455-27.825-27.831
		c0-15.362,12.46-27.822,27.825-27.822C441.036,27.036,453.506,39.496,453.506,54.858z"/>
	<path fill="#2F2F2F" d="M154.672,490.478c-6.179,0.237-3.902-3.665-2.277-6.595c1.627-2.924,22.448-28.952,28.304-46.844
		c5.854-17.894,16.263-27.327,39.363-31.556c23.098-4.228,74.828-11.716,92.392-58.237c12.041-39.025-13.336-49.432-10.733-93.352
		c0,0,2.278-36.776,49.772-59.536c50.104-21.471,54.982-20.498,57.907-22.77c6.509-0.656,2.929,7.152,2.929,7.152
		s-45.87,28.939-57.585,55.956c0,0-5.849,12.679,4.558,30.91c11.06,21.47,29.279,56.929,22.448,88.485
		c-6.831,31.556-19.52,74.813-93.043,108.325C236.656,487.785,154.672,490.478,154.672,490.478z"/>
</g>
</svg>
