<?xml version="1.0" encoding="utf-8"?>
<!-- Generator: Adobe Illustrator 16.0.0, SVG Export Plug-In . SVG Version: 6.00 Build 0)  -->
<!DOCTYPE svg PUBLIC "-//W3C//DTD SVG 1.1//EN" "http://www.w3.org/Graphics/SVG/1.1/DTD/svg11.dtd">
<svg version="1.1" id="Layer_1" xmlns="http://www.w3.org/2000/svg" xmlns:xlink="http://www.w3.org/1999/xlink" x="0px" y="0px"
	 width="500px" height="500px" viewBox="0 0 500 500" enable-background="new 0 0 500 500" xml:space="preserve">
<g>
	<path fill-rule="evenodd" clip-rule="evenodd" fill="#2F302E" d="M250.794,422.93c24.018-25.703,47.357-49.866,69.759-74.867
		c23.603-26.34,44.876-54.55,62.751-85.169c2.083-3.566,4.684-5.062,8.771-5.051c30.559,0.091,61.121,0.018,91.681,0.067
		c7.299,0.015,8.751,1.641,8.757,9.41c0.004,71.818,0,143.629-0.017,215.448c0,8.094-1.497,9.56-9.78,9.541
		c-117.658-0.22-235.314-0.449-352.97-0.674c-36.863-0.068-73.728-0.113-110.591-0.159c-9.59-0.02-10.399-0.799-10.399-10.551
		c0-71.435,0.007-142.869,0.023-214.302c0.002-8.002,1.32-9.336,9.286-9.295c29.988,0.16,59.974,0.375,89.959,0.503
		c3.994,0.02,7.285,0.505,9.655,4.521c29.344,49.704,67.224,92.575,107.309,133.674C233.252,404.496,241.376,413.103,250.794,422.93
		z"/>
	<path fill-rule="evenodd" clip-rule="evenodd" fill="#2F302E" d="M104.471,152.336c1.15-74.188,58.741-136.176,133.108-142.758
		c73.211-6.48,139.836,42.129,155.56,113.894c7.638,34.869,1.58,67.753-15.337,99.043
		c-32.538,60.154-76.001,112.041-121.856,162.158c-3.256,3.562-6.15,4.854-9.943,0.716c-42.78-46.681-83.568-94.877-115.306-150.05
		c-10.798-18.773-20.715-37.876-23.753-59.692C105.864,167.91,105.28,160.109,104.471,152.336z M197.739,148.028
		c0.241,29.498,24.046,52.973,53.509,52.766c29.211-0.206,52.658-24.387,52.319-53.948c-0.334-29.081-24.317-52.469-53.492-52.157
		C220.954,94.991,197.499,118.898,197.739,148.028z"/>
</g>
</svg>
