<?xml version="1.0" encoding="utf-8"?>
<!-- Generator: Adobe Illustrator 16.0.0, SVG Export Plug-In . SVG Version: 6.00 Build 0)  -->
<!DOCTYPE svg PUBLIC "-//W3C//DTD SVG 1.1//EN" "http://www.w3.org/Graphics/SVG/1.1/DTD/svg11.dtd">
<svg version="1.1" id="Layer_1" xmlns="http://www.w3.org/2000/svg" xmlns:xlink="http://www.w3.org/1999/xlink" x="0px" y="0px"
	 width="500px" height="500px" viewBox="0 0 500 500" enable-background="new 0 0 500 500" xml:space="preserve">
<g>
	<path fill-rule="evenodd" clip-rule="evenodd" fill="#2F302E" d="M378.968,271.916c-5.319-1.98-10.216-3.813-15.248-5.686
		c-1.323,5.115-0.562,7.842,3.977,9.094c2.468,0.684,4.553,2.67,6.884,3.918c0.912,0.498,2.043,0.602,4.152,1.18
		c0,11.275-0.02,23.469,0.009,35.67c0.009,3.975,0.207,7.951,0.207,11.936c0.02,42.99,0.02,85.982,0.009,128.98
		c0,15.111-8.162,23.332-23.212,23.332c-59.99,0.018-119.974,0.01-179.962,0.01c-26.144,0-52.295,0.008-78.439,0
		c-15.772-0.01-23.82-8.004-23.827-23.633c-0.007-44.479-0.042-88.949,0.057-133.422c0.007-4.52,1.134-9.033,1.25-13.557
		c0.066-2.684-1.246-5.391-1.25-8.09c-0.071-71.211-0.062-142.428-0.057-213.65c0.002-15.761,7.864-23.571,23.762-23.627
		c5.434-0.024,10.864-0.005,16.791-0.005c0,8.14-0.014,15.775,0,23.416c0.03,14.17,9.324,23.844,23.435,23.948
		c21.717,0.151,43.431,0.042,65.146,0.042c38.857,0,77.71,0.005,116.567-0.009c15.215,0,24.541-9.354,24.578-24.593
		c0.014-7.358,0-14.716,0-23.256c7.354,0.561,14.494,0.282,21.222,1.831c8.798,2.02,13.91,10.282,13.93,20.318
		c0.037,29.253,0.02,58.502,0.02,87.76c0,11.195,0,22.38,0,33.57c0,19.984,0,39.968,0,59.957
		C378.968,268.918,378.968,270.49,378.968,271.916z M362.231,281.967c0-7.281,0-14.334,0-21.391
		c-0.005-37.671,0.022-75.337-0.033-113.007c-0.022-10.982-5.733-16.524-16.749-16.576c-7.688-0.037-15.367-0.014-23.043-0.014
		c-71.505,0.005-143.008,0.005-214.507,0.01c-12.192,0.004-17.668,5.441-17.668,17.507c0,45.052,0.005,90.109,0.005,135.166
		c0,2.783,0,5.568,0,7.637c-2.799,0.494-5.122,0.898-7.447,1.307c0.083,0.41,0.162,0.814,0.245,1.23
		c6.466-1.338,8.519,1.307,6.329,8.533c-2.373-2.277-4.662-4.457-7.593-7.262c-1.612,2.008-4.766,4.371-4.385,5.779
		c0.838,3.104,3.449,5.729,5.339,8.555c0.428-0.32,0.847-0.641,1.271-0.957c-1.544-1.717-3.344-3.275-4.517-5.221
		c-0.589-0.969-0.469-2.918,0.157-3.893c0.431-0.678,2.794-1.059,3.404-0.537c3.516,3.018,7.425,5.25,7.372,11.373
		c-0.333,43.273-0.212,86.563-0.165,129.846c0.014,11.76,5.699,17.332,17.419,17.332c70.32,0.01,140.638,0.01,210.961,0.02
		c8.563,0,17.132,0.027,25.694,0c12.654-0.047,17.935-5.441,17.926-18.189c-0.014-37.078-0.019-74.154-0.009-111.234
		c0-2.043,0.211-4.096,0.312-6.064c9.338-2.08,15.299-12.664,15.091-20.525C377.356,290.945,370.682,282.637,362.231,281.967z"/>
	<path fill-rule="evenodd" clip-rule="evenodd" fill="#2F302E" d="M325.649,56.071c0.46,1.153,0.907,2.302,1.365,3.456
		c0.386-0.053,0.771-0.104,1.156-0.151c-0.141-1.718-0.051-3.512-0.563-5.108c-0.15-0.46-2.548-0.89-3.023-0.424
		c-1.252,1.224-2.88,3.027-2.758,4.463c0.155,1.921,1.402,4.416,2.97,5.362c1.539,0.938,4.125,0.547,6.131,0.146
		c1.274-0.25,2.339-1.586,4.43-3.111c0,3.568,0,6.293-0.005,9.024c-0.015,6.054-0.015,12.112-0.048,18.162
		c-0.051,9.811-5.532,15.276-15.455,15.266c-50.498-0.018-100.998-0.08-151.495-0.108c-9.883-0.005-19.762,0.259-29.639,0.132
		c-11.317-0.151-15.998-5.094-16.021-16.439c-0.01-7.533-0.072-15.06,0.007-22.592c0.095-8.846,5.549-14.326,14.425-14.457
		c6.939-0.099,13.888-0.169,20.824,0.046c3.117,0.099,4.556-1.007,5.999-3.817c13.784-26.914,36.043-41.319,66.162-40.914
		c28.586,0.39,49.982,14.311,63.173,39.896c1.942,3.767,3.987,5.07,8.054,4.868c6.629-0.325,13.289-0.066,19.938-0.089
		c5.174-0.019,9.128,2.227,11.862,6.501c1.771,2.763-0.375,4.382-2.264,5.804c-2.571,1.94-5.225,1.624-6.864-1.05
		c-0.733-1.21-0.123-3.239-0.123-4.896C324.48,56.052,325.064,56.062,325.649,56.071z M247.516,38.95
		c0.099-10-8.148-18.53-18.001-18.614c-10.636-0.085-19,7.946-19.174,18.411c-0.17,10.136,8.135,18.742,18.246,18.897
		C238.914,57.808,247.407,49.42,247.516,38.95z M312.637,73.871c-0.396,2.306-0.612,4.886-1.436,7.25
		c-0.175,0.494-3.422,0.768-3.809,0.188c-1.421-2.152-2.241-4.704-3.31-7.161c-2.099,2.5-1.158,5.192,1.389,7.641
		c2.504,2.396,5.375,2.721,7.684-0.047C315.64,78.767,314.868,75.853,312.637,73.871z M320.683,73.41
		c-1.937-3.343-3.848-6.647-5.541-9.585C313.272,66.706,314.642,69.512,320.683,73.41z"/>
	<path fill-rule="evenodd" clip-rule="evenodd" fill="#2F302E" d="M471.265,165.745c-18.802,0-36.927,0-55.799,0
		c0,2.265,0,4.416,0,6.563c0,63.958,0,127.92,0,191.874c0,2.664,0.272,5.367-0.108,7.971c-2.27,15.432,3.145,28.563,11.788,40.83
		c1.336,1.902,2.349,4.049,3.521,6.092c-6.139,2.967-5.87,2.6-9.674-2.627c-9.956-13.66-12.998-28.502-12.799-45.486
		c0.78-68.83,0.324-137.68,0.324-206.515c0-1.742,0-3.489,0-5.594c23.326,0,46.251,0,69.725,0c0,6.365,0,12.532,0,18.694
		c0.009,71.208,0.037,142.416-0.058,213.623c0,2.236-0.781,4.668-1.854,6.654c-3.276,6.111-7.146,11.91-10.244,18.096
		c-2.222,4.436-4.727,6.592-9.99,3.418c1.629-2.984,3.003-6.41,5.16-9.266c8.511-11.24,10.394-23.732,10.262-37.705
		c-0.593-62.188-0.254-124.389-0.254-186.586C471.265,179.185,471.265,172.589,471.265,165.745z"/>
	<path fill-rule="evenodd" clip-rule="evenodd" fill="#2F302E" d="M408.607,142.131c0-8.243-0.302-15.921,0.075-23.562
		c0.46-9.429,8.06-16.853,17.644-17.126c11.193-0.329,22.408-0.339,33.603-0.028c9.857,0.273,16.957,6.92,18.096,16.731
		c0.537,4.661,0.188,9.425,0.227,14.142c0.02,3.21,0,6.425,0,9.843C454.854,142.131,431.934,142.131,408.607,142.131z
		 M415.527,135.386c2.239,0,3.831,0,5.432,0c12.108,0,24.217,0.141,36.333-0.075c4.623-0.081,10.424,0.112,13.869-0.113
		c-0.009-5.019,0.34-11.491-0.141-16.462c-0.603-6.252-4.962-10.225-11.308-10.357c-10.922-0.23-21.853-0.254-32.774,0
		c-6.502,0.161-10.96,4.529-11.347,10.813C415.276,124.327,415.527,129.496,415.527,135.386z"/>
	<path fill-rule="evenodd" clip-rule="evenodd" fill="#2F302E" d="M443.368,455.031c-5.941-10.301-11.445-19.855-17.202-29.865
		c11.6-3.004,22.672-2.984,34.422,0C454.854,435.1,449.346,444.656,443.368,455.031z"/>
	<path fill-rule="evenodd" clip-rule="evenodd" fill="#FFFFFF" d="M312.637,73.871c2.231,1.981,3.003,4.896,0.519,7.871
		c-2.309,2.769-5.18,2.444-7.684,0.047c-2.547-2.448-3.487-5.141-1.389-7.641c1.068,2.457,1.889,5.009,3.31,7.161
		c0.387,0.579,3.634,0.306,3.809-0.188C312.024,78.757,312.24,76.177,312.637,73.871z"/>
	<path fill-rule="evenodd" clip-rule="evenodd" fill="#FFFFFF" d="M320.683,73.41c-6.041-3.898-7.41-6.704-5.541-9.585
		C316.835,66.762,318.746,70.067,320.683,73.41z"/>
	<path fill-rule="evenodd" clip-rule="evenodd" fill="#2F302E" d="M325.286,172.175c0,2.839,0,5.419,0,8.244
		c-66.063,0-131.874,0-198.036,0c0-2.773,0-5.367,0-8.244C193.034,172.175,258.847,172.175,325.286,172.175z"/>
	<path fill-rule="evenodd" clip-rule="evenodd" fill="#2F302E" d="M127.189,221.398c0-3.022,0-5.612,0-8.384
		c66.075,0,131.875,0,198.012,0c0,2.782,0,5.475,0,8.384C259.176,221.398,193.381,221.398,127.189,221.398z"/>
	<path fill-rule="evenodd" clip-rule="evenodd" fill="#2F302E" d="M127.261,261.982c0-3.018,0-5.611,0-8.384
		c66.078,0,131.878,0,198.01,0c0,2.787,0,5.479,0,8.384C259.252,261.982,193.457,261.982,127.261,261.982z"/>
	<path fill-rule="evenodd" clip-rule="evenodd" fill="#2F302E" d="M325.235,417.869c0,2.721,0,5.301,0,8.164
		c-66.021,0-131.802,0-197.946,0c0-2.656,0-5.236,0-8.164C193.123,417.869,259.025,417.869,325.235,417.869z"/>
	<path fill-rule="evenodd" clip-rule="evenodd" fill="#2F302E" d="M325.309,335.912c0,2.844,0,5.301,0,8.098
		c-66.037,0-131.801,0-198.058,0c-0.131-2.563-0.269-5.123-0.425-8.098C193.095,335.912,258.988,335.912,325.309,335.912z"/>
	<path fill-rule="evenodd" clip-rule="evenodd" fill="#2F302E" d="M325.037,303.123c-66.049,0-131.758,0-197.814,0
		c0-2.707,0-5.391,0-8.285c65.837,0,131.375,0,197.174,0C324.613,297.652,324.811,300.246,325.037,303.123z"/>
	<path fill-rule="evenodd" clip-rule="evenodd" fill="#2F302E" d="M325.582,376.836c0,2.451,0.02,4.359-0.014,6.27
		c-0.014,0.57-0.193,1.135-0.344,1.982c-65.893,0-131.703,0-197.916,0c0-2.6,0-5.273,0-8.252
		C193.363,376.836,259.148,376.836,325.582,376.836z"/>
	<path fill-rule="evenodd" clip-rule="evenodd" d="M362.979,287.457c11.517,13.51,11.506,14.635,0,29.746
		C362.979,307.439,362.979,297.525,362.979,287.457z"/>
	<path fill-rule="evenodd" clip-rule="evenodd" fill="#2F302E" d="M306.686,96.783c0,0-15.934-12.931-16.627-14.777
		c-0.691-1.851-1.153-16.044,0-18.182c1.152-2.137,30.624-12.531,30.624-12.531l4.604-1.103c0,0,10.079,0.872,10.07,12.646
		c-0.011,11.783-5.579,27.945-5.579,27.945L306.686,96.783z"/>
	<polygon fill-rule="evenodd" clip-rule="evenodd" fill="#2F302E" points="378.977,349.328 378.977,217.209 362.179,217.209 
		362.179,344.01 	"/>
	<polygon fill-rule="evenodd" clip-rule="evenodd" fill="#2F302E" points="90.294,373.803 90.294,241.685 73.503,241.685 
		73.503,368.488 	"/>
	<path fill-rule="evenodd" clip-rule="evenodd" fill="#FFFFFF" stroke="#FFFFFF" stroke-width="3" stroke-miterlimit="10" d="
		M24.122,389.08l164.819-128.941c0,0,9.416-7.378,15.91,0.531c6.497,7.904,61.867,76.523,61.867,76.523l22.146,88.943
		c0,0,6.26,15.328-4.035,18.463S57.763,497.314,57.763,497.314L24.859,427.84L24.122,389.08z"/>
	<g>
		<path fill-rule="evenodd" clip-rule="evenodd" fill="#2F302E" d="M281.162,421.777c0.936,4.17,1.892,8.332,2.805,12.504
			c1.158,5.309-0.396,7.936-5.631,9.207c-9.575,2.316-19.168,4.52-28.744,6.846c-1.525,0.367-2.41,0.348-2.795-1.498
			c-0.302-1.432-1.544-2.156-3.042-1.826c-1.564,0.34-2.222,1.686-1.883,3.023c0.546,2.154-0.772,2.277-2.208,2.607
			c-27.431,6.375-54.868,12.748-82.284,19.188c-29.498,6.939-58.979,13.953-88.451,20.969c-6.675,1.592-9.128,0.141-10.705-6.563
			c-2.25-9.604-4.479-19.227-6.795-28.803c-0.405-1.693-0.391-2.57,1.575-3.379c5.143-2.09,7.856-7.947,6.579-13.322
			c-1.299-5.48-6.198-9.426-11.746-9.125c-1.923,0.104-2.601-0.367-3.018-2.23c-2.274-10.121-4.717-20.205-7.069-30.309
			c-1.035-4.471,0.808-7.557,5.188-8.805c0.589-0.164,1.187-0.277,1.782-0.42c56.536-13.289,113.068-26.578,169.597-39.877
			c1.95-0.457,3.898-1.381,4.698,1.666c0.277,1.088,1.525,1.205,2.608,0.965c1.281-0.283,2.19-1.328,1.897-2.387
			c-0.686-2.467,0.848-2.617,2.477-2.998c9.218-2.143,18.421-4.336,27.634-6.479c5.612-1.299,8.446,0.477,9.782,6.115
			c2.325,9.797,4.595,19.613,6.939,29.404c0.409,1.686,0.409,2.607-1.592,3.422c-5.348,2.166-8.031,7.918-6.713,13.521
			c1.29,5.486,6.318,9.176,12.194,8.969c1.016-0.037,2.438-0.725,2.222,1.318 M226.336,361.365c-0.386-1.92-1.383-3.285-3.305-2.832
			c-2.099,0.494-2.334,2.277-1.836,4.133c0.47,1.719,1.404,3.068,3.419,2.49C226.562,364.586,226.825,363.023,226.336,361.365z
			 M232.277,386.631c-0.415-1.957-1.322-3.252-3.347-2.791c-2.038,0.457-2.245,2.053-1.845,3.813
			c0.423,1.869,1.337,3.363,3.507,2.75C232.545,389.857,232.757,388.229,232.277,386.631z M235.327,399.623
			c-0.314-1.836-1.078-3.455-3.224-3.154c-1.962,0.273-2.429,1.854-2.09,3.662c0.349,1.826,1.041,3.342,3.347,2.854
			C235.206,402.598,235.771,401.383,235.327,399.623z M238.161,411.693c-0.347-1.828-1.394-3.117-3.299-2.664
			c-2.127,0.498-2.274,2.307-1.793,4.133c0.467,1.75,1.43,3.041,3.45,2.447C238.5,415.025,238.656,413.445,238.161,411.693z
			 M224.105,375.188c0.509,1.719,1.375,3.197,3.352,2.764c2.146-0.475,2.315-2.197,1.831-4.072c-0.447-1.756-1.29-3.027-3.366-2.514
			C223.794,371.893,223.898,373.545,224.105,375.188z M244.074,436.822c-0.344-1.779-1.366-2.938-3.333-2.477
			c-2.062,0.48-2.188,2.146-1.779,3.842c0.405,1.686,1.272,3.201,3.276,2.76C244.376,440.475,244.625,438.781,244.074,436.822z
			 M241.169,424.461c-0.342-1.939-1.408-3.107-3.336-2.674c-1.978,0.451-2.232,2.061-1.837,3.84c0.405,1.818,1.465,3.07,3.363,2.6
			C241.222,427.766,241.721,426.221,241.169,424.461z"/>
		<path fill-rule="evenodd" clip-rule="evenodd" fill="#2F302E" d="M258.988,336.73c-3.002-0.24-5.375,0.273-7.754,0.834
			c-10.686,2.537-21.381,5.041-32.073,7.557c-1.638,0.381-3.135,1.002-4.674-0.73c-1.105-1.238-3.027-0.781-3.385,0.895
			c-0.49,2.217-2.066,2.203-3.582,2.555c-54.558,12.834-109.116,25.662-163.68,38.48c-1.883,0.443-3.772,0.867-5.418,1.949
			c-3.778,2.486-5.353,6.693-4.237,11.494c2.445,10.498,4.945,20.986,7.375,31.494c0.235,1.027,0.876,2.053,0.383,3.145
			c-0.948,0.424-1.125-0.414-1.44-0.811c-6.699-8.406-13.394-16.834-20.038-25.289c-2.945-3.746-2.419-7.135,1.502-10.225
			c19.51-15.4,39.039-30.789,58.564-46.184c21.04-16.594,42.07-33.189,63.12-49.77c5.894-4.641,11.834-9.232,17.727-13.883
			c1.068-0.838,1.802-1.432,2.917,0.076c0.883,1.189,2.306,1.158,3.554,0.258c1.462-1.041,1.06-2.443,0.252-3.479
			c-1.034-1.326-0.389-1.854,0.601-2.631c8.083-6.281,16.118-12.631,24.218-18.896c2.912-2.256,6.687-1.945,8.984,0.904
			c6.883,8.52,13.596,17.186,20.492,25.703c1.22,1.502,0.25,2.07-0.512,2.98c-3.361,4.016-3.937,8.934-1.592,13.326
			c2.241,4.199,7.071,6.732,11.996,6.148c1.181-0.143,2.48-0.461,3.437-1.115c1.836-1.258,2.834-0.748,4.105,0.895
			C246.033,320.434,252.37,328.352,258.988,336.73z M180.336,303.166c-1.624,0.648-2.333,1.973-1.703,3.385
			c0.716,1.605,1.76,3.432,4.028,2.955c1.609-0.338,2.489-1.676,1.841-3.215C183.774,304.574,182.77,302.77,180.336,303.166z
			 M200.661,326.459c-0.871-1.262-1.606-3.291-4-2.957c-1.657,0.221-2.52,1.615-1.944,3.131c0.668,1.752,1.667,3.672,4.129,3.174
			C200.303,329.504,201.005,328.412,200.661,326.459z M176.501,295.936c-0.983-1.342-1.576-3.395-3.963-2.807
			c-1.467,0.357-2.362,1.432-1.78,2.918c0.699,1.789,1.706,3.645,4.116,3.098C176.383,298.803,176.757,297.498,176.501,295.936z
			 M192.691,316.893c-0.29-1.936-2.684-3.939-4.137-3.516c-1.415,0.414-2.408,1.609-1.944,2.951
			c0.568,1.639,1.535,3.438,3.764,3.301C192.095,319.52,192.712,318.297,192.691,316.893z M208.589,336.26
			c-0.971-0.908-1.596-2.951-3.917-2.434c-1.648,0.367-2.429,1.625-1.802,3.168c0.691,1.666,1.813,3.371,3.977,2.938
			C208.357,339.627,209.115,338.373,208.589,336.26z"/>
		<path fill-rule="evenodd" clip-rule="evenodd" fill="#F2F1EF" d="M180.336,303.166c2.434-0.396,3.438,1.408,4.167,3.125
			c0.647,1.539-0.232,2.877-1.841,3.215c-2.268,0.477-3.312-1.35-4.028-2.955C178.003,305.139,178.712,303.814,180.336,303.166z"/>
		<path fill-rule="evenodd" clip-rule="evenodd" fill="#F2F1EF" d="M200.661,326.459c0.344,1.953-0.358,3.045-1.815,3.348
			c-2.462,0.498-3.461-1.422-4.129-3.174c-0.576-1.516,0.288-2.91,1.944-3.131C199.055,323.168,199.791,325.197,200.661,326.459z"/>
		<path fill-rule="evenodd" clip-rule="evenodd" fill="#F2F1EF" d="M176.501,295.936c0.256,1.563-0.118,2.867-1.627,3.209
			c-2.41,0.547-3.417-1.309-4.116-3.098c-0.583-1.486,0.313-2.561,1.78-2.918C174.925,292.541,175.518,294.594,176.501,295.936z"/>
		<path fill-rule="evenodd" clip-rule="evenodd" fill="#F2F1EF" d="M192.691,316.893c0.021,1.404-0.597,2.627-2.317,2.736
			c-2.229,0.137-3.196-1.662-3.764-3.301c-0.463-1.342,0.53-2.537,1.944-2.951C190.008,312.953,192.402,314.957,192.691,316.893z"/>
		<path fill-rule="evenodd" clip-rule="evenodd" fill="#F2F1EF" d="M208.589,336.26c0.526,2.113-0.232,3.367-1.743,3.672
			c-2.164,0.434-3.285-1.271-3.977-2.938c-0.627-1.543,0.154-2.801,1.802-3.168C206.993,333.309,207.618,335.352,208.589,336.26z"/>
		<path fill-rule="evenodd" clip-rule="evenodd" fill="#2F302E" d="M277.099,405.311c0.955,3.709,1.906,7.428,2.857,11.137
			c-0.15,0.01-0.263,0.096-0.349,0.217c-1.845-0.865-3.784-1.639-3.229-4.33c0.066-0.33-0.16-0.82-0.414-1.094
			C273.591,408.727,274.956,406.947,277.099,405.311z"/>
		<path fill-rule="evenodd" clip-rule="evenodd" fill="#FBFCFC" d="M284.758,420.336c0.462-0.01,0.918-0.018,1.38-0.027
			c-0.039,0.094-0.042,0.234-0.109,0.271c-0.476,0.293-0.912,0.199-1.308-0.178L284.758,420.336z"/>
		<path fill-rule="evenodd" clip-rule="evenodd" fill="#FBFCFC" d="M284.721,420.402c-0.282-0.029-0.556-0.057-0.838-0.084
			c0.027-0.086,0.094-0.256,0.108-0.256c0.255,0.076,0.513,0.18,0.767,0.273L284.721,420.402z"/>
		<path fill-rule="evenodd" clip-rule="evenodd" fill="#2F302E" d="M40.502,433.592l-20.038-25.289c0,0-4.444-5.055-0.139-8.689
			c4.307-3.645,134.787-106.701,141.052-111.371c3.046-2.533,3.64,2.777,6.471,0.334c0,0,2.03-1.031,0.252-3.479
			c-0.66-1.549,0.601-2.631,0.601-2.631l23.018-17.965c0,0,5.417-6.016,11.267,1.314c5.846,7.324,16.524,20.9,18.953,23.801
			c1.883,2.213-0.056,3.541-0.056,3.541s-6.962,8.205,0.131,15.717c6.845,6.432,11.901,3.334,13.709,2.643
			c1.808-0.703,1.62-2.266,5.874,3.172l17.391,22.041c0,0-2.957-0.258-6.055,0.447c-3.098,0.711-29.808,6.953-33.772,7.943
			c-5.737,1.076-3.652-1.859-6.355-1.404c0,0-1.159,0.279-1.704,1.568c-0.555,1.285-0.979,1.713-3.582,2.555L42.661,386.6
			c0,0-10.568,1.576-8.619,12.393c0,0,7.211,30.836,7.645,32.717C42.122,433.592,42.698,435.9,40.502,433.592z"/>
		<path fill-rule="evenodd" clip-rule="evenodd" fill="#FFFFFF" d="M221.195,362.666c-0.834-2.652,0.358-3.785,1.836-4.133
			c0,0,2.364-0.82,3.206,2.408c0.848,3.227-0.705,3.988-1.463,4.152C224.007,365.268,222.227,365.938,221.195,362.666z"/>
		<path fill-rule="evenodd" clip-rule="evenodd" fill="#FFFFFF" d="M207.736,340.506c-1.375-2.414-0.814-3.572,0.551-4.217
			c0,0,2.51-1.512,4.016,1.473c1.511,2.971,0.072,4.219-0.641,4.543C210.951,342.635,209.437,343.492,207.736,340.506z"/>
		<path fill-rule="evenodd" clip-rule="evenodd" fill="#FFFFFF" d="M199.387,329.41c-1.379-2.414-0.821-3.572,0.549-4.223
			c0,0,2.513-1.506,4.016,1.475c1.511,2.98,0.07,4.223-0.646,4.547C202.601,331.539,201.084,332.391,199.387,329.41z"/>
		<path fill-rule="evenodd" clip-rule="evenodd" fill="#FFFFFF" d="M190.519,318.203c-1.565-2.295-1.102-3.494,0.202-4.252
			c0,0,2.387-1.705,4.127,1.145c1.748,2.842,0.413,4.203-0.273,4.588C193.896,320.07,192.453,321.041,190.519,318.203z"/>
		<path fill-rule="evenodd" clip-rule="evenodd" fill="#FFFFFF" d="M181.059,307.199c-1.804-2.117-1.472-3.361-0.254-4.25
			c0,0,2.189-1.943,4.223,0.691c2.043,2.646,0.858,4.139,0.221,4.596C184.613,308.693,183.281,309.813,181.059,307.199z"/>
		<path fill-rule="evenodd" clip-rule="evenodd" fill="#FFFFFF" d="M171.838,296.764c-1.636-2.242-1.215-3.457,0.075-4.252
			c0,0,2.326-1.779,4.154,1.012c1.839,2.793,0.537,4.195-0.128,4.6C175.266,298.529,173.858,299.541,171.838,296.764z"/>
		<path fill-rule="evenodd" clip-rule="evenodd" fill="none" stroke="#FFFFFF" stroke-width="1.5" stroke-miterlimit="10" d="
			M73.077,414.771l133.374-31.355c0,0,4.726-1.318,5.583,2.355l8.456,35.957c0,0,1.204,3.391-4.981,4.84L78.458,458.789
			c0,0-2.698,0.752-3.079-0.887l-8.836-37.594C66.542,420.309,64.928,416.691,73.077,414.771z"/>
	</g>
</g>
</svg>
