<?xml version="1.0" encoding="utf-8"?>
<!-- Generator: Adobe Illustrator 16.0.0, SVG Export Plug-In . SVG Version: 6.00 Build 0)  -->
<!DOCTYPE svg PUBLIC "-//W3C//DTD SVG 1.1//EN" "http://www.w3.org/Graphics/SVG/1.1/DTD/svg11.dtd">
<svg version="1.1" id="Layer_1" xmlns="http://www.w3.org/2000/svg" xmlns:xlink="http://www.w3.org/1999/xlink" x="0px" y="0px"
	 width="500px" height="500px" viewBox="0 0 500 500" enable-background="new 0 0 500 500" xml:space="preserve">
<g>
	<path fill-rule="evenodd" clip-rule="evenodd" fill="#2F302E" d="M256.909,467.917c0,9.83,0,18.176,0,27.818
		c-5.008,0.286-9.586,0.772-14.15,0.782c-54.859,0.053-109.713,0.101-164.573,0.01c-43.599-0.076-68.131-24.713-68.15-68.432
		c-0.057-95.883,0.133-191.766-0.2-287.644c-0.038-13.44,4.278-23.583,13.998-32.786c32.215-30.496,63.572-61.917,96.149-92.008
		c6.319-5.84,16.635-10.211,25.171-10.325c64.383-0.844,128.79-0.694,193.192-0.357c34.542,0.178,61.512,22.76,62.403,56.137
		c1.636,61.417,0.473,122.907,0.473,185.17c-9.472,0-18.181,0-28.348,0c0-6.023,0-11.15,0-16.277
		c0-52.954,0.1-105.905-0.048-158.854c-0.067-24.628-12.548-37.513-36.637-37.59c-58.202-0.181-116.395-0.067-174.592-0.026
		c-3.224,0.002-6.453,0.436-11.317,0.79c0,14.836,0.129,29.005-0.028,43.167c-0.415,36.862-24.475,61.858-61.469,63.317
		c-16.096,0.63-32.239,0.101-50.133,0.101c0,6.619,0,11.71,0,16.801c0,89.678-0.019,179.366,0.005,269.044
		c0.009,29.893,11.431,41.134,41.763,41.152c53.428,0.034,106.852,0.01,160.28,0.01
		C245.816,467.917,250.947,467.917,256.909,467.917z"/>
	<path fill-rule="evenodd" clip-rule="evenodd" fill="#2F302E" d="M488.521,495.883c-27.499,0-55.466,0.053-83.432-0.118
		c-2.026-0.02-5.656-1.507-5.827-2.69c-2.132-15.022-12.682-28.853-5.628-45.354c2.046-4.779,0.286-11.175,0.275-16.835
		c-5.794,0.042-13.324-2.052-16.829,0.791c-2.818,2.299-2.571,11.38-0.521,16.058c7.221,16.406-2.908,30.422-5.06,45.445
		c-0.205,1.487-5.428,3.185-8.346,3.214c-26.621,0.243-53.242,0.144-79.563,0.144c-8.247-25.953-4.164-40.747,16.114-55.055
		c13.592-9.586,28.391-17.46,41.935-27.093c4.111-2.925,8.136-9.104,8.266-13.902c2.627-14.212,2.87-40.456-3.043-43.915
		c-5.447-18.617-5.9-40.784-2.132-60.52c3.963-20.707,24.418-29.216,50.657-25.738c18.781,2.484,32.286,17.093,32.873,37.175
		c0.481,16.626,0.645,34.729-4.726,49.536c-6.338,3.721-5.246,31.644-5.395,40.706c-0.596,8.864,4.407,14.196,12.147,18.326
		c12.152,6.482,23.197,15.047,35.363,21.495C489.326,450.091,494.377,469.701,488.521,495.883z"/>
	<path fill-rule="evenodd" clip-rule="evenodd" fill="#2F302E" d="M204.029,207.787c-37.161,0.002-74.322-0.086-111.478,0.055
		c-10.497,0.041-20.016-1.598-19.882-14.586c0.143-13.077,9.962-14.159,20.283-14.143c74.794,0.093,149.592-0.179,224.381,0.463
		c6.243,0.057,15.186,4.399,18.075,9.483c5.6,9.86-2.876,18.604-17.045,18.667C280.249,207.894,242.144,207.787,204.029,207.787z"/>
	<path fill-rule="evenodd" clip-rule="evenodd" fill="#2F302E" d="M204.268,265.035c-37.156,0-74.317-0.076-111.473,0.057
		c-10.411,0.039-20.083-1.33-20.126-14.345c-0.034-13.049,9.628-14.403,20.044-14.389c74.793,0.1,149.588,0.109,224.386,0
		c10.674-0.02,19.802,2.036,19.391,15.022c-0.391,12.099-9.366,13.74-19.314,13.711C279.538,264.959,241.9,265.035,204.268,265.035z
		"/>
	<path fill-rule="evenodd" clip-rule="evenodd" fill="#2F302E" d="M317.004,350.931c3.33,10.298,6.071,18.768,9.071,28.038
		c-4.659,0.206-8.823,0.549-12.981,0.549c-72.953,0.032-145.916,0.032-218.869,0c-3.801,0-8.751,1.087-11.15-0.845
		c-4.335-3.481-9.844-8.852-9.853-13.444c-0.01-4.582,5.914-9.356,9.705-13.644c0.92-1.04,3.648-0.631,5.532-0.631
		C164.717,350.927,240.966,350.931,317.004,350.931z"/>
	<path fill-rule="evenodd" clip-rule="evenodd" fill="#2F302E" d="M318.659,294.598c0,8.881,0,17.289,0,26.642
		c-4.068,0.377-7.696,1.001-11.317,1.006c-71.493,0.058-142.982,0.053-214.476,0.019c-3.324,0-7.769,0.945-9.738-0.781
		c-4.235-3.701-9.872-8.842-9.905-13.431c-0.033-4.587,5.761-9.51,9.653-13.658c1.201-1.283,4.564-0.696,6.925-0.696
		c74.354-0.02,148.706-0.01,223.05,0.038C314.672,293.745,316.484,294.265,318.659,294.598z"/>
	<path fill-rule="evenodd" clip-rule="evenodd" fill="#2F302E" d="M295.481,413.773c-16.649,18.743-32.85,24.108-53.519,23.503
		c-49.99-1.47-100.061-0.587-150.088-0.392c-10.511,0.038-20.273-1.526-20.498-14.106c-0.234-12.538,9.147-14.728,19.873-14.698
		c61.001,0.186,121.993-0.058,182.991,0.305C280.545,408.428,286.83,411.493,295.481,413.773z"/>
	<path fill-rule="evenodd" clip-rule="evenodd" fill="#2F302E" d="M257.295,121.914c20.493,0,40.986,0.091,61.483-0.041
		c9.738-0.065,17.503,2.716,17.746,13.828c0.258,11.956-7.779,14.901-18.156,14.875c-40.514-0.112-81.027-0.114-121.531,0
		c-9.83,0.026-17.631-3.138-17.884-13.871c-0.277-11.648,7.869-14.937,18.294-14.843
		C217.263,122.038,237.284,121.914,257.295,121.914z"/>
</g>
</svg>
