<?xml version="1.0" encoding="UTF-8"?>
<!DOCTYPE svg PUBLIC "-//W3C//DTD SVG 1.1//EN" "http://www.w3.org/Graphics/SVG/1.1/DTD/svg11.dtd">
<!-- Creator: CorelDRAW 2020 (64-Bit) -->
<svg xmlns="http://www.w3.org/2000/svg" xml:space="preserve" width="13.5968in" height="2.56405in" version="1.1" style="shape-rendering:geometricPrecision; text-rendering:geometricPrecision; image-rendering:optimizeQuality; fill-rule:evenodd; clip-rule:evenodd"
viewBox="0 0 2302.25 434.15"
 xmlns:xlink="http://www.w3.org/1999/xlink"
 xmlns:xodm="http://www.corel.com/coreldraw/odm/2003">
 <defs>
  <style type="text/css">
   <![CDATA[
    .fil4 {fill:#848688}
    .fil5 {fill:#4B4B4D}
    .fil2 {fill:#F3754B}
    .fil1 {fill:#84C44C}
    .fil3 {fill:#289080}
    .fil0 {fill:#304E9B}
   ]]>
  </style>
 </defs>
 <g id="Layer_x0020_1">
  <metadata id="CorelCorpID_0Corel-Layer"/>
  <g id="_1515110778656">
   <g>
    <path class="fil0" d="M209.67 4.4c6.29,-5.86 8.51,-5.87 14.8,0 32.11,29.82 49.95,68.7 33.64,110.88 -0.9,2.32 -2.09,4.59 -3.48,6.85 -1.29,-0.95 -2.86,-1.51 -4.58,-1.51l-65.79 0c-1.77,0 -3.4,0.6 -4.71,1.6 -1.42,-2.29 -2.62,-4.6 -3.54,-6.94 -16.3,-42.18 1.54,-81.07 33.65,-110.88z"/>
    <path class="fil1" d="M372.68 71.94c-0.3,-8.6 -1.87,-10.17 -10.47,-10.46 -43.78,-1.63 -83.9,13.26 -102.2,54.61 -1.25,2.84 -2.16,5.95 -2.81,9.25 0.4,0.94 0.62,1.97 0.62,3.04l0 48.04 48.03 0c1.01,0 1.98,0.19 2.87,0.54 3.34,-0.65 6.47,-1.57 9.34,-2.83 41.35,-18.3 56.24,-58.42 54.62,-102.2z"/>
    <path class="fil2" d="M429.75 224.47c5.86,-6.29 5.87,-8.5 0,-14.79 -29.82,-32.11 -68.7,-49.94 -110.88,-33.65 -2.31,0.9 -4.59,2.08 -6.84,3.47 1,1.3 1.59,2.92 1.59,4.68l0 65.8c0,1.76 -0.59,3.37 -1.58,4.68 2.25,1.39 4.53,2.57 6.83,3.47 42.18,16.31 81.06,-1.54 110.88,-33.65z"/>
    <path class="fil3" d="M362.21 372.67c8.6,-0.29 10.17,-1.86 10.47,-10.46 1.62,-43.78 -13.26,-83.9 -54.62,-102.2 -2.87,-1.26 -6,-2.17 -9.34,-2.83 -0.89,0.35 -1.86,0.54 -2.87,0.54l-48.03 0 0 48.04c0,1.07 -0.22,2.11 -0.62,3.04 0.65,3.3 1.56,6.41 2.81,9.25 18.3,41.35 58.42,56.23 102.2,54.61z"/>
    <path class="fil0" d="M209.67 429.75c6.29,5.86 8.51,5.87 14.8,0 32.11,-29.82 49.94,-68.7 33.64,-110.89 -0.9,-2.32 -2.08,-4.59 -3.48,-6.85 -1.29,0.95 -2.87,1.51 -4.58,1.51l-65.79 0c-1.77,0 -3.4,-0.6 -4.71,-1.61 -1.42,2.29 -2.62,4.6 -3.54,6.94 -16.31,42.18 1.54,81.07 33.65,110.89z"/>
    <path class="fil1" d="M71.94 372.68c-8.6,-0.3 -10.17,-1.86 -10.46,-10.47 -1.63,-43.78 13.26,-83.9 54.61,-102.2 2.9,-1.28 6.08,-2.2 9.47,-2.85 0.9,0.37 1.89,0.57 2.92,0.57l48.04 0 0 48.04c0,0.96 0.17,1.88 0.49,2.73 -0.66,3.42 -1.58,6.63 -2.87,9.56 -18.29,41.35 -58.42,56.23 -102.2,54.61z"/>
    <path class="fil2" d="M4.4 224.47c-5.86,-6.29 -5.87,-8.5 0,-14.79 29.82,-32.11 68.7,-49.96 110.88,-33.65 2.35,0.92 4.67,2.12 6.97,3.55 -0.96,1.29 -1.53,2.88 -1.53,4.6l0 65.8c0,1.72 0.57,3.31 1.53,4.6 -2.29,1.43 -4.61,2.63 -6.96,3.55 -42.18,16.3 -81.06,-1.54 -110.88,-33.65z"/>
    <path class="fil3" d="M61.48 71.94c0.29,-8.6 1.86,-10.17 10.46,-10.47 43.78,-1.62 83.9,13.26 102.2,54.61 1.29,2.93 2.21,6.14 2.87,9.56 -0.32,0.85 -0.49,1.78 -0.49,2.73l0 48.04 -48.04 0c-1.03,0 -2.03,0.2 -2.93,0.57 -3.38,-0.66 -6.56,-1.58 -9.46,-2.85 -41.35,-18.3 -56.24,-58.42 -54.61,-102.2z"/>
   </g>
   <g>
    <path class="fil4" d="M775.2 401.18c0.24,-9.73 0.4,-19.23 0.51,-28.49 0.12,-9.26 0.18,-18.27 0.18,-26.99l0 -19.74 -3.17 0c-4.69,0 -8.87,0.12 -12.51,0.37 -3.62,0.26 -6.72,0.61 -9.26,1.06 0.08,-0.77 0.14,-1.4 0.18,-1.91 0.04,-0.49 0.06,-0.95 0.06,-1.38 0,-0.45 -0.02,-0.96 -0.06,-1.52 -0.04,-0.57 -0.1,-1.28 -0.18,-2.17 4.51,0.12 9.1,0.2 13.77,0.26 4.67,0.06 9.49,0.1 14.46,0.1 5.04,0 10.16,-0.04 15.39,-0.1 5.22,-0.08 10.58,-0.16 16.08,-0.26 -0.08,0.36 -0.14,0.75 -0.18,1.23 -0.04,0.47 -0.06,1.2 -0.06,2.2 0,0.97 0.02,1.69 0.06,2.19 0.04,0.47 0.1,0.92 0.18,1.36 -2.7,-0.49 -5.73,-0.87 -9.12,-1.08 -3.39,-0.24 -7.31,-0.36 -11.78,-0.36l-3.47 0.06c-0.2,3.35 -0.33,7.13 -0.43,11.35 -0.1,4.22 -0.14,9.24 -0.14,15.09 0,7.51 0.06,15.33 0.18,23.5 0.12,8.16 0.28,16.55 0.51,25.22 -0.89,-0.12 -1.77,-0.22 -2.66,-0.27 -0.89,-0.06 -1.79,-0.08 -2.76,-0.08 -0.88,0 -1.81,0.02 -2.78,0.08 -0.96,0.06 -1.95,0.16 -3,0.27zm48.07 -0.12c0.16,-3.84 0.26,-8.85 0.34,-15.04 0.08,-6.17 0.12,-14.01 0.12,-23.53 0,-5.04 -0.04,-8.7 -0.12,-10.99 -0.08,-2.28 -0.18,-4.33 -0.34,-6.15 0.77,0.2 1.58,0.32 2.39,0.39 0.82,0.08 1.73,0.12 2.7,0.12 0.91,0 1.77,-0.04 2.58,-0.14 0.81,-0.1 1.59,-0.22 2.36,-0.37 -0.22,1.89 -0.41,3.92 -0.53,6.09 -0.14,2.17 -0.22,4.49 -0.22,6.96 2.21,-4.61 4.52,-8.04 6.94,-10.27 2.42,-2.23 5.04,-3.35 7.84,-3.35 0.47,0 1.06,0.04 1.78,0.14 0.71,0.09 1.61,0.25 2.74,0.49 -0.2,1.05 -0.34,2.27 -0.44,3.69 -0.1,1.44 -0.13,3.17 -0.13,5.26l-0.93 0.57c-1,-0.49 -1.97,-0.87 -2.87,-1.12 -0.93,-0.26 -1.87,-0.37 -2.84,-0.37 -4.32,0 -7.45,1.89 -9.44,5.65 -1.99,3.78 -2.97,9.83 -2.97,18.18 0,4.89 0.04,9.38 0.14,13.46 0.1,4.08 0.24,7.57 0.44,10.44 -0.73,-0.16 -1.52,-0.26 -2.37,-0.33 -0.85,-0.08 -1.75,-0.12 -2.72,-0.12 -0.77,0 -1.5,0.02 -2.2,0.08 -0.71,0.06 -1.46,0.14 -2.23,0.26zm82.69 -29.2c-10.33,1.73 -16.96,3.56 -19.92,5.51 -2.98,1.93 -4.46,4.87 -4.46,8.81 0,3.57 0.91,6.33 2.74,8.28 1.83,1.95 4.42,2.92 7.79,2.92 1.95,0 4.02,-0.47 6.2,-1.42 2.17,-0.95 4.04,-2.21 5.62,-3.78 0.71,-0.69 1.2,-1.4 1.54,-2.1 0.33,-0.71 0.49,-1.7 0.49,-2.98l0 -0.57 0 -14.66zm-0.18 22.44c-2.51,2.62 -5.22,4.59 -8.16,5.93 -2.96,1.32 -6.11,1.99 -9.46,1.99 -5.18,0 -9.2,-1.26 -12.04,-3.78 -2.82,-2.52 -4.24,-6.09 -4.24,-10.7 0,-4.2 1.12,-7.57 3.37,-10.09 2.26,-2.52 5.69,-4.29 10.32,-5.34 1.95,-0.41 4.63,-0.92 8.02,-1.55 6.96,-1.26 11.15,-2.56 12.59,-3.86l0 -2.48c0,-5.42 -1.06,-9.36 -3.15,-11.8 -2.09,-2.44 -5.44,-3.66 -10.01,-3.66 -3.25,0 -6.13,0.71 -8.67,2.11 -2.54,1.4 -4.73,3.49 -6.58,6.26l-0.92 0 0.23 -6.24c2.58,-2.15 5.48,-3.8 8.71,-4.92 3.23,-1.14 6.68,-1.72 10.34,-1.72 6.5,0 11.23,1.58 14.19,4.71 2.97,3.14 4.45,8.2 4.45,15.15l0 1.44 -0.45 20.22 0 3.29c0,3.19 0.37,5.28 1.1,6.28 0.73,1.01 2.09,1.5 4.08,1.5 0.55,0 0.95,0 1.24,-0.02 0.3,-0.02 0.55,-0.04 0.79,-0.04l0.45 2.31 -0.36 0.12c-4,1.2 -7.11,1.79 -9.34,1.79 -1.93,0 -3.39,-0.53 -4.41,-1.59 -1.03,-1.05 -1.72,-2.82 -2.11,-5.28zm42.18 6.87c0.16,-2.34 0.26,-4.91 0.33,-7.7 0.08,-2.8 0.12,-7.07 0.12,-12.85l0 -8.43c0,-7.68 -0.04,-13.34 -0.12,-16.94 -0.08,-3.59 -0.18,-6.89 -0.33,-9.89 0.73,0.16 1.5,0.28 2.3,0.37 0.81,0.1 1.66,0.14 2.54,0.14 0.93,0 1.76,-0.04 2.51,-0.12 0.75,-0.08 1.44,-0.19 2.05,-0.39 0,0.16 0,0.36 0,0.57 -0.16,2.46 -0.24,4.29 -0.24,5.5 0,0.45 0.02,1.16 0.06,2.11 0.04,0.92 0.06,1.65 0.06,2.14 2.27,-3.88 4.95,-6.78 8,-8.65 3.05,-1.89 6.6,-2.84 10.6,-2.84 6.26,0 10.99,1.77 14.17,5.32 3.17,3.52 4.77,8.8 4.77,15.8 0,1.97 -0.04,4.87 -0.12,8.69 -0.08,3.84 -0.12,6.66 -0.12,8.47 0,2.96 0.04,5.99 0.1,9.08 0.06,3.09 0.12,6.3 0.19,9.61 -0.88,-0.2 -1.73,-0.33 -2.54,-0.43 -0.81,-0.1 -1.55,-0.14 -2.24,-0.14 -0.77,0 -1.54,0.04 -2.29,0.14 -0.75,0.1 -1.6,0.23 -2.56,0.43 0.23,-4.12 0.39,-8.98 0.51,-14.58 0.12,-5.6 0.18,-11.9 0.18,-18.9 0,-5.85 -1.12,-10.23 -3.37,-13.14 -2.27,-2.9 -5.61,-4.35 -10.09,-4.35 -2.34,0 -4.43,0.41 -6.27,1.26 -1.83,0.85 -3.41,2.13 -4.77,3.82 -1.46,1.85 -2.5,4.06 -3.11,6.64 -0.61,2.58 -0.92,6.52 -0.92,11.82l0 5.32c0,6.82 0.04,11.66 0.12,14.54 0.08,2.9 0.18,5.42 0.33,7.56 -1,-0.2 -1.89,-0.33 -2.7,-0.43 -0.81,-0.1 -1.58,-0.14 -2.31,-0.14 -0.77,0 -1.54,0.04 -2.3,0.14 -0.77,0.1 -1.62,0.23 -2.54,0.43zm75.93 -12.24c1.93,2.96 4.08,5.2 6.48,6.7 2.41,1.5 5.05,2.25 7.88,2.25 3.55,0 6.34,-0.97 8.39,-2.88 2.07,-1.93 3.09,-4.57 3.09,-7.92 0,-2.54 -0.69,-4.53 -2.07,-6.01 -1.4,-1.46 -3.82,-2.68 -7.27,-3.68l-5.44 -1.5c-4.53,-1.28 -7.8,-3.11 -9.77,-5.5 -1.99,-2.38 -2.97,-5.64 -2.97,-9.75 0,-4.84 1.65,-8.79 4.98,-11.8 3.33,-3.01 7.7,-4.53 13.08,-4.53 2.78,0 5.4,0.33 7.9,0.99 2.5,0.65 4.77,1.61 6.82,2.9 -0.53,1.22 -1.03,2.46 -1.44,3.7 -0.44,1.26 -0.75,2.52 -0.99,3.78 -2.27,-2.66 -4.55,-4.63 -6.82,-5.91 -2.27,-1.28 -4.57,-1.93 -6.92,-1.93 -2.98,0 -5.38,0.92 -7.25,2.78 -1.87,1.83 -2.79,4.22 -2.79,7.15 0,2.62 0.69,4.69 2.07,6.23 1.4,1.54 3.7,2.78 6.93,3.7l8.02 2.37c4,1.14 6.9,2.8 8.69,4.97 1.79,2.14 2.68,5.04 2.68,8.65 0,5.44 -1.95,9.87 -5.85,13.34 -3.92,3.47 -8.94,5.2 -15.11,5.2 -3,0 -5.79,-0.36 -8.39,-1.06 -2.6,-0.71 -4.87,-1.77 -6.83,-3.15 0.57,-1.5 1.1,-3.01 1.59,-4.57 0.47,-1.54 0.91,-3.03 1.3,-4.49zm60.05 12.24c0.27,-2.7 0.47,-6.64 0.61,-11.82 0.14,-5.2 0.19,-13.24 0.19,-24.14l0 -14.78c-2.3,0 -4,0.02 -5.04,0.06 -1.06,0.04 -2.01,0.1 -2.86,0.18l0 -4.57c0.08,0 0.18,0 0.33,0 2.17,0.16 3.7,0.23 4.63,0.23 0.33,0 0.87,-0.02 1.58,-0.06 0.71,-0.04 1.24,-0.08 1.59,-0.12 0.12,-10.34 2.23,-18.54 6.34,-24.59 4.12,-6.05 9.6,-9.06 16.45,-9.06 0.61,0 1.1,0 1.44,0.02 0.36,0.02 0.65,0.06 0.92,0.1l-1.16 9.22c-0.98,-0.45 -2.07,-0.81 -3.19,-1.07 -1.14,-0.25 -2.33,-0.37 -3.57,-0.37 -3.35,0 -5.85,0.91 -7.52,2.74 -1.68,1.83 -2.52,4.59 -2.52,8.29 0,1.46 0.08,3.51 0.26,6.11 0.18,2.62 0.39,5.52 0.67,8.67 0.63,0 1.51,0.02 2.7,0.06 1.16,0.04 2.03,0.06 2.56,0.06 0.85,0 1.78,-0.02 2.8,-0.06 1.03,-0.04 2.41,-0.1 4.14,-0.18l0 4.63c-1.58,-0.04 -4.57,-0.1 -8.97,-0.18 -1.26,-0.04 -2.25,-0.08 -2.94,-0.12 0,13.72 0.06,24.59 0.2,32.65 0.14,8.06 0.37,14.09 0.73,18.09 -0.93,-0.18 -1.82,-0.32 -2.68,-0.41 -0.86,-0.1 -1.72,-0.16 -2.5,-0.16 -0.79,0 -1.6,0.04 -2.46,0.14 -0.87,0.1 -1.78,0.23 -2.74,0.43zm70.1 -2.48c5.85,0 10.3,-2.11 13.36,-6.33 3.05,-4.22 4.59,-10.34 4.59,-18.38 0,-8.51 -1.54,-14.99 -4.61,-19.45 -3.1,-4.47 -7.56,-6.7 -13.46,-6.7 -5.85,0 -10.29,2.15 -13.3,6.46 -3.01,4.32 -4.53,10.6 -4.53,18.88 0,8.35 1.52,14.7 4.55,19.01 3.05,4.33 7.51,6.5 13.4,6.5zm0 3.53c-8.24,0 -14.95,-2.68 -20.18,-8.06 -5.22,-5.36 -7.82,-12.31 -7.82,-20.86 0,-8.47 2.64,-15.41 7.9,-20.85 5.28,-5.42 11.98,-8.14 20.09,-8.14 8.28,0 15.02,2.68 20.2,8.06 5.2,5.36 7.8,12.33 7.8,20.92 0,8.59 -2.6,15.54 -7.83,20.91 -5.22,5.34 -11.94,8.02 -20.18,8.02zm55.5 -1.16c0.16,-3.84 0.26,-8.85 0.34,-15.04 0.08,-6.17 0.12,-14.01 0.12,-23.53 0,-5.04 -0.04,-8.7 -0.12,-10.99 -0.08,-2.28 -0.18,-4.33 -0.34,-6.15 0.77,0.2 1.58,0.32 2.39,0.39 0.82,0.08 1.73,0.12 2.7,0.12 0.91,0 1.77,-0.04 2.58,-0.14 0.81,-0.1 1.6,-0.22 2.36,-0.37 -0.22,1.89 -0.41,3.92 -0.53,6.09 -0.14,2.17 -0.22,4.49 -0.22,6.96 2.21,-4.61 4.51,-8.04 6.94,-10.27 2.42,-2.23 5.04,-3.35 7.84,-3.35 0.47,0 1.06,0.04 1.78,0.14 0.71,0.09 1.61,0.25 2.74,0.49 -0.2,1.05 -0.34,2.27 -0.44,3.69 -0.1,1.44 -0.14,3.17 -0.14,5.26l-0.93 0.57c-1.01,-0.49 -1.97,-0.87 -2.87,-1.12 -0.93,-0.26 -1.87,-0.37 -2.84,-0.37 -4.32,0 -7.45,1.89 -9.44,5.65 -1.99,3.78 -2.97,9.83 -2.97,18.18 0,4.89 0.04,9.38 0.13,13.46 0.1,4.08 0.24,7.57 0.44,10.44 -0.73,-0.16 -1.52,-0.26 -2.37,-0.33 -0.85,-0.08 -1.75,-0.12 -2.72,-0.12 -0.77,0 -1.5,0.02 -2.2,0.08 -0.71,0.06 -1.46,0.14 -2.23,0.26zm53.71 0.12c0.16,-1.69 0.26,-3.73 0.33,-6.09 0.08,-2.37 0.12,-6.44 0.12,-12.22l0 -9.59 0 -9.7c0,-5.81 -0.04,-9.87 -0.12,-12.24 -0.08,-2.34 -0.18,-4.33 -0.33,-5.99 0.69,0.16 1.42,0.28 2.17,0.37 0.75,0.1 1.56,0.14 2.44,0.14 0.81,0 1.6,-0.06 2.35,-0.16 0.75,-0.12 1.46,-0.24 2.11,-0.36 -0.04,1.08 -0.08,2.74 -0.12,4.97 -0.04,2.21 -0.08,3.86 -0.12,4.95 2.94,-3.8 5.91,-6.6 8.95,-8.39 3.05,-1.79 6.34,-2.68 9.87,-2.68 3.8,0 7.13,1.06 9.99,3.17 2.83,2.11 4.79,5.01 5.83,8.65 2.35,-3.96 5.06,-6.92 8.16,-8.89 3.09,-1.95 6.58,-2.93 10.42,-2.93 5.61,0 10.01,1.75 13.18,5.26 3.17,3.49 4.77,8.38 4.77,14.6 0,0.45 -0.08,3.03 -0.22,7.7 -0.16,4.67 -0.24,9.12 -0.24,13.3 0,2.44 0.04,4.98 0.12,7.68 0.08,2.7 0.18,5.52 0.33,8.43 -0.53,-0.12 -1.16,-0.22 -1.85,-0.27 -0.69,-0.06 -1.74,-0.08 -3.11,-0.08 -1.34,0 -2.34,0.02 -3,0.08 -0.65,0.06 -1.26,0.16 -1.79,0.27 0.28,-5.05 0.47,-10.05 0.61,-15.01 0.14,-4.97 0.2,-10.88 0.2,-17.73 0,-6.42 -1.03,-11.02 -3.1,-13.76 -2.05,-2.76 -5.46,-4.14 -10.19,-4.14 -5.04,0 -8.57,2.07 -10.62,6.23 -2.03,4.16 -3.06,12.12 -3.06,23.86 0,3.6 0.04,7.13 0.1,10.56 0.06,3.43 0.12,6.76 0.2,9.99 -0.81,-0.12 -1.62,-0.22 -2.41,-0.27 -0.79,-0.06 -1.58,-0.08 -2.38,-0.08 -0.85,0 -1.68,0.02 -2.44,0.08 -0.77,0.06 -1.54,0.16 -2.31,0.27 0.27,-4.28 0.47,-9.01 0.61,-14.17 0.14,-5.18 0.19,-10.96 0.19,-17.3 0,-7.06 -0.91,-12 -2.72,-14.88 -1.79,-2.86 -4.85,-4.29 -9.1,-4.29 -2.21,0 -4.22,0.41 -6.03,1.24 -1.83,0.83 -3.37,1.99 -4.59,3.49 -1.5,1.89 -2.56,4.43 -3.21,7.62 -0.63,3.19 -0.95,9.1 -0.95,17.73 0,3.47 0.06,6.92 0.18,10.36 0.12,3.45 0.24,6.84 0.39,10.19 -0.81,-0.12 -1.61,-0.22 -2.42,-0.27 -0.81,-0.06 -1.6,-0.08 -2.37,-0.08 -0.85,0 -1.66,0.02 -2.44,0.08 -0.81,0.06 -1.6,0.16 -2.41,0.27zm112.82 0c0.2,-5.42 0.33,-10.56 0.43,-15.39 0.1,-4.83 0.14,-9.48 0.14,-13.93 0,-4.08 -0.04,-8.32 -0.14,-12.67 -0.1,-4.37 -0.23,-8.97 -0.43,-13.77 0.77,0.16 1.54,0.26 2.3,0.33 0.77,0.08 1.62,0.12 2.55,0.12 0.92,0 1.79,-0.04 2.6,-0.14 0.81,-0.1 1.55,-0.2 2.24,-0.32 -0.19,4.92 -0.33,9.56 -0.43,13.89 -0.1,4.33 -0.13,8.53 -0.13,12.57 0,4.47 0.04,9.12 0.13,13.95 0.1,4.85 0.24,9.95 0.43,15.35 -0.85,-0.18 -1.67,-0.32 -2.48,-0.41 -0.81,-0.1 -1.59,-0.16 -2.36,-0.16 -0.73,0 -1.48,0.04 -2.25,0.14 -0.77,0.1 -1.64,0.23 -2.6,0.43zm-1.16 -76.45c0,-1.68 0.59,-3.09 1.75,-4.24 1.18,-1.16 2.6,-1.73 4.26,-1.73 1.64,0 3.05,0.57 4.24,1.73 1.16,1.14 1.75,2.56 1.75,4.24 0,1.68 -0.59,3.11 -1.75,4.29 -1.19,1.2 -2.6,1.79 -4.24,1.79 -1.66,0 -3.08,-0.59 -4.26,-1.79 -1.16,-1.18 -1.75,-2.62 -1.75,-4.29zm44.03 76.45c0.16,-2.34 0.26,-4.91 0.33,-7.7 0.08,-2.8 0.12,-7.07 0.12,-12.85l0 -8.43c0,-7.68 -0.04,-13.34 -0.12,-16.94 -0.08,-3.59 -0.18,-6.89 -0.33,-9.89 0.73,0.16 1.5,0.28 2.3,0.37 0.81,0.1 1.66,0.14 2.54,0.14 0.93,0 1.76,-0.04 2.51,-0.12 0.75,-0.08 1.44,-0.19 2.05,-0.39 0,0.16 0,0.36 0,0.57 -0.16,2.46 -0.24,4.29 -0.24,5.5 0,0.45 0.02,1.16 0.06,2.11 0.04,0.92 0.06,1.65 0.06,2.14 2.27,-3.88 4.95,-6.78 8,-8.65 3.05,-1.89 6.6,-2.84 10.6,-2.84 6.26,0 10.99,1.77 14.17,5.32 3.17,3.52 4.77,8.8 4.77,15.8 0,1.97 -0.04,4.87 -0.12,8.69 -0.08,3.84 -0.12,6.66 -0.12,8.47 0,2.96 0.04,5.99 0.1,9.08 0.06,3.09 0.12,6.3 0.19,9.61 -0.88,-0.2 -1.73,-0.33 -2.54,-0.43 -0.81,-0.1 -1.55,-0.14 -2.24,-0.14 -0.77,0 -1.54,0.04 -2.29,0.14 -0.75,0.1 -1.6,0.23 -2.56,0.43 0.23,-4.12 0.39,-8.98 0.51,-14.58 0.12,-5.6 0.18,-11.9 0.18,-18.9 0,-5.85 -1.12,-10.23 -3.37,-13.14 -2.27,-2.9 -5.61,-4.35 -10.09,-4.35 -2.34,0 -4.43,0.41 -6.27,1.26 -1.83,0.85 -3.41,2.13 -4.77,3.82 -1.46,1.85 -2.5,4.06 -3.11,6.64 -0.61,2.58 -0.92,6.52 -0.92,11.82l0 5.32c0,6.82 0.04,11.66 0.12,14.54 0.08,2.9 0.18,5.42 0.33,7.56 -1.01,-0.2 -1.89,-0.33 -2.7,-0.43 -0.81,-0.1 -1.58,-0.14 -2.31,-0.14 -0.77,0 -1.54,0.04 -2.3,0.14 -0.77,0.1 -1.62,0.23 -2.54,0.43zm109.9 -38.21c0,-5 -1.06,-8.84 -3.17,-11.54 -2.11,-2.7 -5.16,-4.04 -9.12,-4.04 -3.96,0 -7.15,1.44 -9.57,4.3 -2.42,2.87 -3.63,6.64 -3.63,11.29 0,4.93 1.16,8.77 3.49,11.53 2.32,2.74 5.58,4.12 9.71,4.12 4.04,0 7.11,-1.32 9.18,-3.96 2.07,-2.62 3.11,-6.52 3.11,-11.69zm-19.09 38.44c-3.39,1.07 -5.99,2.8 -7.78,5.19 -1.79,2.38 -2.68,5.28 -2.68,8.65 0,4.43 1.5,8.02 4.51,10.78 2.99,2.74 6.93,4.12 11.82,4.12 5.85,0 10.66,-1.56 14.44,-4.67 3.76,-3.11 5.65,-7.07 5.65,-11.88 0,-4.71 -1.46,-7.94 -4.35,-9.73 -2.92,-1.79 -8.91,-2.68 -17.97,-2.68 -0.35,0 -0.79,0.02 -1.3,0.06 -0.53,0.04 -1.3,0.1 -2.35,0.18zm-3.92 -21.65c-3.92,-1.22 -6.87,-3.17 -8.87,-5.81 -1.99,-2.66 -2.97,-5.99 -2.97,-9.99 0,-6.09 2.11,-10.92 6.34,-14.5 4.24,-3.56 9.97,-5.36 17.2,-5.36 2.11,0 4.69,0.22 7.74,0.63 3.04,0.41 5.05,0.63 6.05,0.63 0.92,0 2.42,-0.08 4.47,-0.24 2.07,-0.16 4.39,-0.37 7.01,-0.69l-0.06 5.2c-1.26,-0.12 -2.5,-0.22 -3.68,-0.27 -1.2,-0.06 -2.39,-0.08 -3.59,-0.08l-2.37 0c1.58,2.11 2.74,4.26 3.49,6.44 0.75,2.17 1.12,4.51 1.12,7.02 0,5.89 -1.91,10.52 -5.71,13.89 -3.8,3.37 -9.02,5.05 -15.68,5.05 -1.05,0 -2.28,-0.08 -3.73,-0.24 -1.44,-0.14 -2.36,-0.22 -2.8,-0.22 -1.69,0 -3.03,0.49 -4.04,1.5 -1.01,1.01 -1.5,2.35 -1.5,4.04 0,2.27 0.71,3.9 2.13,4.91 1.44,1 3.8,1.5 7.09,1.5l6.64 0c8.81,0 14.98,1.22 18.46,3.69 3.51,2.46 5.26,6.58 5.26,12.35 0,7.27 -2.78,13.16 -8.31,17.69 -5.54,4.51 -12.81,6.78 -21.81,6.78 -6.54,0 -11.75,-1.54 -15.63,-4.61 -3.86,-3.1 -5.79,-7.21 -5.79,-12.41 0,-3.96 1.06,-7.25 3.21,-9.83 2.13,-2.6 5.46,-4.63 9.95,-6.09 -2.8,-0.67 -5,-1.87 -6.6,-3.65 -1.59,-1.77 -2.4,-3.86 -2.4,-6.28 0,-2.19 0.73,-4.15 2.19,-5.89 1.48,-1.73 3.86,-3.45 7.17,-5.15zm94.75 21.42c0.36,-5.54 0.61,-11.8 0.79,-18.76 0.18,-6.97 0.26,-15.23 0.26,-24.77 0,-9.89 -0.08,-17.58 -0.26,-23.04 -0.18,-5.47 -0.46,-10.21 -0.85,-14.21 1,0.16 1.97,0.26 2.87,0.34 0.93,0.08 1.91,0.12 2.96,0.12 1,0 1.95,-0.04 2.88,-0.12 0.92,-0.08 1.81,-0.18 2.66,-0.34 -0.32,2.11 -0.51,5.03 -0.63,8.71 -0.12,3.7 -0.18,10.8 -0.18,21.32l0 4.61c2.86,0.04 5.95,0.08 9.32,0.1 3.37,0.02 8.42,0.02 15.12,0.02 6.66,0 11.68,0 15.05,-0.02 3.37,-0.02 6.46,-0.06 9.32,-0.1l0 -4.61c0,-5.55 -0.08,-10.8 -0.26,-15.74 -0.18,-4.95 -0.43,-9.71 -0.79,-14.29 0.83,0.16 1.7,0.26 2.6,0.34 0.92,0.08 1.93,0.12 3.03,0.12 1.09,0 2.11,-0.04 3.07,-0.12 0.95,-0.08 1.89,-0.18 2.84,-0.34 -0.37,4.81 -0.63,10.05 -0.81,15.71 -0.16,5.65 -0.24,12.83 -0.24,21.54 0,7.58 0.08,14.97 0.24,22.18 0.18,7.23 0.43,14.32 0.81,21.34 -0.95,-0.16 -1.91,-0.26 -2.9,-0.33 -1,-0.08 -2.05,-0.12 -3.13,-0.12 -1.02,0 -2.01,0.04 -2.94,0.12 -0.95,0.08 -1.79,0.18 -2.58,0.33 0.36,-4.81 0.61,-10.23 0.79,-16.26 0.18,-6.01 0.26,-12.37 0.26,-19.07l0 -5.54c-4.08,-0.16 -8.15,-0.27 -12.21,-0.33 -4.06,-0.06 -8.12,-0.08 -12.16,-0.08 -4.04,0 -8.1,0.04 -12.2,0.1 -4.08,0.06 -8.16,0.14 -12.24,0.26l0 5.6c0,12.67 0.06,21.14 0.18,25.46 0.12,4.32 0.32,7.61 0.63,9.87 -0.96,-0.16 -1.93,-0.26 -2.87,-0.33 -0.97,-0.08 -1.99,-0.12 -3.07,-0.12 -0.99,0 -1.95,0.04 -2.86,0.12 -0.88,0.08 -1.73,0.18 -2.5,0.33zm146.7 -5.64c-3.07,2.23 -6.28,3.9 -9.59,5.01 -3.33,1.12 -6.84,1.68 -10.48,1.68 -8.28,0 -14.99,-2.66 -20.13,-8 -5.16,-5.32 -7.74,-12.27 -7.74,-20.81 0,-8.83 2.46,-15.9 7.41,-21.22 4.95,-5.34 11.55,-8 19.78,-8 7.55,0 13.38,2.24 17.52,6.72 4.14,4.49 6.2,10.82 6.2,19.01 0,0.28 -0.02,0.69 -0.06,1.28 -0.04,0.57 -0.06,1 -0.06,1.32l-40.63 0 0 0.41c0,8 1.69,14.11 5.08,18.31 3.39,4.2 8.29,6.3 14.76,6.3 3.47,0 6.68,-0.65 9.66,-1.97 2.96,-1.3 5.79,-3.27 8.53,-5.93 -0.08,1.22 -0.14,2.17 -0.18,2.8 -0.04,0.63 -0.06,1.18 -0.06,1.64l0 1.46zm-37.55 -27.11l31.09 0 0 -2.01c0,-5.81 -1.3,-10.37 -3.92,-13.66 -2.62,-3.29 -6.23,-4.93 -10.86,-4.93 -4.61,0 -8.43,1.89 -11.45,5.67 -3.01,3.8 -4.65,8.77 -4.87,14.92zm97.81 3.43c-10.33,1.73 -16.96,3.56 -19.92,5.51 -2.98,1.93 -4.46,4.87 -4.46,8.81 0,3.57 0.91,6.33 2.74,8.28 1.83,1.95 4.42,2.92 7.79,2.92 1.95,0 4.02,-0.47 6.2,-1.42 2.17,-0.95 4.04,-2.21 5.62,-3.78 0.71,-0.69 1.2,-1.4 1.54,-2.1 0.33,-0.71 0.49,-1.7 0.49,-2.98l0 -0.57 0 -14.66zm-0.18 22.44c-2.51,2.62 -5.22,4.59 -8.16,5.93 -2.96,1.32 -6.11,1.99 -9.46,1.99 -5.18,0 -9.2,-1.26 -12.04,-3.78 -2.82,-2.52 -4.24,-6.09 -4.24,-10.7 0,-4.2 1.12,-7.57 3.37,-10.09 2.26,-2.52 5.69,-4.29 10.32,-5.34 1.95,-0.41 4.63,-0.92 8.02,-1.55 6.96,-1.26 11.15,-2.56 12.59,-3.86l0 -2.48c0,-5.42 -1.06,-9.36 -3.15,-11.8 -2.09,-2.44 -5.44,-3.66 -10.01,-3.66 -3.25,0 -6.13,0.71 -8.67,2.11 -2.54,1.4 -4.73,3.49 -6.58,6.26l-0.92 0 0.23 -6.24c2.58,-2.15 5.48,-3.8 8.71,-4.92 3.23,-1.14 6.68,-1.72 10.34,-1.72 6.5,0 11.23,1.58 14.19,4.71 2.97,3.14 4.45,8.2 4.45,15.15l0 1.44 -0.45 20.22 0 3.29c0,3.19 0.37,5.28 1.1,6.28 0.73,1.01 2.09,1.5 4.08,1.5 0.55,0 0.95,0 1.24,-0.02 0.3,-0.02 0.55,-0.04 0.79,-0.04l0.46 2.31 -0.36 0.12c-4,1.2 -7.11,1.79 -9.34,1.79 -1.93,0 -3.39,-0.53 -4.41,-1.59 -1.03,-1.05 -1.72,-2.82 -2.11,-5.28zm42.18 6.87c0.16,-2.86 0.26,-6.46 0.33,-10.86 0.08,-4.39 0.12,-12.27 0.12,-23.66l0 -19.74 0 -11.25c0,-7.05 -0.04,-12.08 -0.12,-15.13 -0.08,-3.04 -0.18,-5.72 -0.33,-8.02 1.12,0.08 2.03,0.13 2.74,0.18 0.71,0.04 1.38,0.06 1.99,0.06 0.61,0 1.3,-0.02 2.05,-0.06 0.75,-0.04 1.75,-0.1 3.01,-0.18 -0.23,3.88 -0.39,8.25 -0.49,13.12 -0.1,4.89 -0.14,12.65 -0.14,23.31 0,14.22 0.04,25.36 0.14,33.38 0.1,8.04 0.23,14.32 0.43,18.86 -0.85,-0.12 -1.69,-0.22 -2.54,-0.27 -0.83,-0.06 -1.65,-0.08 -2.46,-0.08 -0.85,0 -1.67,0.02 -2.46,0.08 -0.77,0.06 -1.54,0.16 -2.27,0.27z"/>
    <path class="fil4" d="M1884.05 350.34c0.08,-0.85 0.14,-1.5 0.18,-1.95 0.04,-0.43 0.06,-0.81 0.06,-1.12 0,-0.23 -0.02,-0.55 -0.06,-0.99 -0.04,-0.41 -0.06,-0.71 -0.06,-0.87 1.2,0.08 2.42,0.14 3.71,0.2 1.26,0.06 2.54,0.1 3.86,0.1l0 -3.88c0,-1.3 -0.02,-2.68 -0.06,-4.16 -0.04,-1.46 -0.1,-3.37 -0.18,-5.77 1.85,-0.3 3.57,-0.71 5.15,-1.2 1.58,-0.49 2.99,-1.08 4.25,-1.73 -0.12,2.58 -0.19,4.63 -0.26,6.17 -0.06,1.56 -0.08,2.58 -0.08,3.13l0 7.86c2.19,0 4.55,-0.06 7.09,-0.18 2.54,-0.12 5.3,-0.32 8.26,-0.59 -0.06,0.57 -0.14,1.2 -0.22,1.89 -0.08,0.67 -0.12,1.36 -0.12,2.05l0 0.93c-2.17,-0.12 -4.14,-0.2 -5.93,-0.26 -1.78,-0.06 -3.43,-0.1 -4.93,-0.1 -1.24,0 -2.13,0.02 -2.7,0.04 -0.55,0.02 -1.07,0.04 -1.52,0.08 -0.08,1.12 -0.14,2.17 -0.16,3.15 -0.02,0.97 -0.02,1.91 -0.02,2.8 0,2.23 -0.09,6.38 -0.27,12.49 -0.19,6.09 -0.29,11.07 -0.29,14.91 0,5.44 0.77,9.26 2.28,11.53 1.52,2.24 4.06,3.37 7.65,3.37 1.05,0 2.24,-0.22 3.6,-0.63 1.36,-0.43 2.92,-1.04 4.65,-1.85l0.87 2.6c-1.97,1.3 -4.06,2.3 -6.27,2.97 -2.21,0.67 -4.43,1 -6.66,1 -5.28,0 -9.11,-1.24 -11.47,-3.74 -2.37,-2.5 -3.55,-6.64 -3.55,-12.41 0,-1.2 0.1,-5.36 0.32,-12.49 0.22,-7.13 0.32,-13.69 0.32,-19.66l0 -4.04 -1.32 0c-0.96,0 -1.95,0.02 -2.97,0.08 -1.02,0.06 -2.07,0.16 -3.15,0.27zm56.07 50.84c0.2,-8.73 0.34,-16.9 0.44,-24.53 0.09,-7.62 0.14,-14.22 0.14,-19.8 0,-7.03 -0.04,-14.22 -0.14,-21.55 -0.1,-7.33 -0.24,-14.94 -0.44,-22.78 0.08,0 0.2,0.02 0.36,0.06 2.07,0.26 3.6,0.39 4.59,0.39 0.63,0 1.28,-0.02 1.99,-0.08 0.71,-0.06 1.67,-0.18 2.86,-0.37 -0.2,4.43 -0.32,8.83 -0.4,13.22 -0.08,4.39 -0.12,8.77 -0.12,13.16 0,3.23 0.08,8.39 0.24,15.47 0,0.32 0,0.53 0,0.69 2.5,-3.72 5.2,-6.46 8.14,-8.17 2.91,-1.72 6.32,-2.56 10.2,-2.56 6.28,0 10.99,1.72 14.17,5.16 3.19,3.45 4.77,8.57 4.77,15.39 0,1.54 -0.06,4.33 -0.2,8.38 -0.14,4.04 -0.2,7.33 -0.2,9.87 0,2.03 0.12,6.17 0.33,12.41 0.08,2.46 0.12,4.35 0.12,5.65 -0.81,-0.2 -1.62,-0.33 -2.42,-0.43 -0.81,-0.1 -1.59,-0.14 -2.37,-0.14 -0.77,0 -1.54,0.04 -2.28,0.14 -0.75,0.1 -1.6,0.23 -2.56,0.43 0.2,-7.78 0.34,-14.11 0.43,-19.01 0.1,-4.91 0.14,-9.07 0.14,-12.45 0,-6.96 -1.05,-11.96 -3.15,-14.98 -2.09,-3.01 -5.54,-4.53 -10.34,-4.53 -2.78,0 -5.24,0.67 -7.42,2.03 -2.17,1.34 -3.92,3.27 -5.22,5.77 -0.85,1.69 -1.46,3.98 -1.81,6.9 -0.38,2.9 -0.55,7.59 -0.55,14.05l0 8.38c0,1.73 0.04,3.78 0.14,6.15 0.1,2.37 0.19,4.92 0.32,7.7 -1,-0.2 -1.89,-0.33 -2.7,-0.43 -0.81,-0.1 -1.58,-0.14 -2.31,-0.14 -0.77,0 -1.54,0.04 -2.31,0.14 -0.77,0.1 -1.58,0.23 -2.42,0.43z"/>
    <path class="fil3" d="M496.42 129.24l0 3.17c9.69,0.16 14.54,5.02 14.54,14.57l0 80.37c0,9.42 -4.85,14.22 -14.54,14.38l0 3.18 67.65 0c15.58,0 28.74,-5.67 39.43,-17.01 10.77,-11.39 15.93,-25.01 15.49,-40.86 -0.09,-7.73 -1.85,-15.22 -5.24,-22.49 -3.12,-6.84 -7.38,-12.91 -12.8,-18.21 -5.4,-5.18 -11.94,-9.39 -19.62,-12.57 -7.54,-3.01 -15.52,-4.53 -24.01,-4.53l-60.89 0zm34.74 3.5l14.08 0c6.84,0 13.7,1.38 20.59,4.15 6.86,2.74 12.59,6.67 17.15,11.75 9.44,10.5 14.41,23.31 14.87,38.39 0.22,8.68 -0.89,16.66 -3.33,23.93 -2.28,6.95 -5.7,12.86 -10.26,17.72 -4.67,4.99 -9.44,8.34 -14.38,10.02 -4.88,1.71 -10.34,2.55 -16.39,2.55 -14.87,0 -22.33,-6.27 -22.33,-18.83l0 -89.68zm120.91 30.28l-27.65 4.45 0 2.71c7.17,-1.11 10.72,2.91 10.72,11.99l0 42.93c0,11.1 -3.55,16.79 -10.72,17.09l0 2.71 40.7 0 0 -2.71c-7.27,-0.13 -10.88,-5.83 -10.88,-17.09l0 -32.02c0,-6.51 1.55,-12.27 4.67,-17.26 3.26,-4.99 6.48,-7.65 9.71,-8.03 2.28,-0.36 4.34,0.16 6.19,1.6 1.49,0.95 2.93,2.85 4.32,5.73 1.05,2.33 2.28,4.04 3.69,5.13 1.41,1.08 3.18,1.63 5.32,1.63 2.15,0 3.8,-0.7 4.94,-2.12 1.14,-1.41 1.71,-3.01 1.71,-4.8 0,-3.33 -1.87,-6.07 -5.56,-8.2 -4.31,-2.44 -9.14,-3.69 -14.57,-3.74 -8.9,0 -15.71,3.8 -20.41,11.37 0,-5.78 -0.73,-9.55 -2.17,-11.37zm62.59 64.87c-2.06,-2.28 -4.64,-3.42 -7.76,-3.42 -3.09,0 -5.75,1.09 -7.97,3.23 -2.23,2.14 -3.34,4.83 -3.34,8.06 0,3.23 1.11,5.94 3.34,8.11 2.22,2.17 4.88,3.26 7.97,3.26 3.12,0 5.73,-1.09 7.87,-3.26 2.17,-2.17 3.23,-4.88 3.23,-8.11 0,-3.23 -1.11,-5.86 -3.33,-7.87zm54.7 -98.66l0 3.17c9.69,0.22 14.54,5.08 14.54,14.57l0 80.37c0,9.69 -4.86,14.49 -14.54,14.38l0 3.18 71.77 0c8.44,0 15.77,-3.01 22.04,-9.06 6.13,-5.89 9.22,-13.05 9.22,-21.55 0,-8.46 -3.09,-15.71 -9.22,-21.7 -6.27,-6.02 -13.6,-9.09 -22.04,-9.14l-6.1 0c8.28,-0.52 15.2,-3.37 20.81,-8.5 5.62,-5.24 8.44,-11.48 8.44,-18.69 0,-7.51 -2.96,-13.89 -8.9,-19.16 -6.1,-5.24 -13.38,-7.87 -21.87,-7.87l-64.14 0zm34.73 3.58l16.39 0c7.03,0 12.62,2.37 16.69,7.08 4.07,4.72 6.13,10.61 6.13,17.64 0,7.11 -2.06,13.03 -6.13,17.75 -4.07,4.69 -9.66,7.06 -16.69,7.06l-16.39 0 0 -49.52zm0 52.86l24.5 0c6.92,0 12.45,2.66 16.55,7.95 4.12,5.32 6.16,11.99 6.16,20.05 0,8.68 -3.12,15.52 -9.36,20.54 -6.27,5.02 -13.4,7.51 -21.46,7.51 -5.78,0 -9.96,-1.27 -12.53,-3.77 -2.55,-2.52 -3.85,-5.48 -3.85,-8.87l0 -43.41zm106.06 -23.11c-9.93,0.1 -17.72,2.46 -23.39,7.08 -3.45,2.79 -5.02,5.7 -4.75,8.65 0.3,2.06 1.22,3.66 2.69,4.78 1.76,1.16 3.5,1.51 5.26,1.11 1.63,-0.32 3.04,-1.14 4.21,-2.47 1.27,-1.33 2.36,-3.1 3.25,-5.32 1.74,-4.37 2.9,-6.79 3.5,-7.33 1.85,-1.74 4.94,-2.63 9.23,-2.63 10.52,0 15.87,3.44 15.98,10.34 0.14,9.06 -10.04,17.2 -30.52,24.42 -12.32,4.23 -18.45,11.86 -18.45,22.87 0,6.83 2.25,12.29 6.76,16.31 4.61,3.96 10.34,6.1 17.17,6.35 6.13,0.06 11.4,-1.14 15.74,-3.55 4.51,-2.55 7.79,-5.51 9.85,-8.85 0.65,7.9 6.32,11.86 17.01,11.86 5.67,0 11.48,-1.98 17.42,-5.97l-1.27 -2.47c-4.23,2.77 -7.87,3.83 -10.91,3.2 -2.63,-0.81 -3.97,-3.66 -3.97,-8.6l0 -39.91c0.05,-7.08 -1.03,-12.8 -3.25,-17.15 -4.24,-8.49 -14.76,-12.72 -31.56,-12.72zm15.98 28.68l0 20.59c0,8.06 -1.46,14.71 -4.4,19.97 -2.79,5.18 -6.84,7.78 -12.15,7.78 -4.34,0.06 -7.65,-1.6 -9.93,-4.93 -2.17,-3.34 -3.34,-7.19 -3.5,-11.53 -0.06,-4.4 0.84,-8.3 2.71,-11.75 1.84,-3.5 4.74,-6.19 8.66,-8.03 9.44,-4.72 15.63,-8.74 18.61,-12.1zm67.89 -66.61l-30.53 4.61 0 2.79c7.57,-1.38 11.37,2.53 11.37,11.67l0 81.56c0,11.15 -3.8,16.8 -11.37,16.93l0 2.71 42.06 0 0 -2.71c-7.65,-0.11 -11.48,-5.75 -11.53,-16.93l0 -12.32 10.58 -10.17 15.88 24.58c3.39,5.35 4.42,9.06 3.04,11.21 -1.28,2.12 -3.37,3.33 -6.29,3.64l0 2.71 43.25 0 0 -2.71c-6.08,0.54 -11.8,-3.64 -17.17,-12.57l-24.8 -40.45 9.79 -9.77c7.52,-7.95 17.07,-11.94 28.6,-11.94l0 -2.69 -35.76 0 0 2.69c3.61,-0.14 5.8,0.82 6.59,2.87 0.79,2.01 -0.95,5.13 -5.24,9.39l-28.46 28.06 0 -83.16zm97.84 38.09c-8,-0.05 -14.32,2.15 -18.99,6.6 -4.34,4.4 -6.62,9.9 -6.83,16.52 -0.22,10.07 4.47,17.5 14.08,22.28 2.17,0.9 5.56,2.2 10.17,3.88 3.61,1.11 7.6,2.63 11.99,4.53 3.28,1.43 5.67,3.04 7.16,4.85 2.06,2.61 2.85,5.67 2.39,9.23 -0.22,3.58 -2.01,6.51 -5.34,8.74 -3.64,2.39 -8.47,3.15 -14.46,2.31 -6.84,-1.05 -12.73,-3.91 -17.64,-8.51 -2.33,-2.23 -3.93,-4.32 -4.78,-6.27 -0.84,-2.11 -1.46,-4.59 -1.82,-7.41l-2.55 0 0.46 25.45 2.63 0c0.05,-2.01 0.73,-3.26 2.06,-3.74 1.38,-0.51 5.29,0.41 11.69,2.79 2.9,1 6.19,1.71 9.77,2.14 9.5,0.95 16.88,-1.19 22.2,-6.43 5.18,-5.32 7.98,-11.64 8.33,-19.02 0.44,-9.57 -3.5,-16.9 -11.75,-21.92 -3.04,-1.82 -8.16,-3.93 -15.44,-6.38 -7.79,-2.96 -12.57,-5.32 -14.38,-7.06 -2.12,-2.22 -3.07,-4.78 -2.85,-7.65 0.3,-3.06 1.57,-5.51 3.8,-7.3 2.82,-2.38 6.24,-3.55 10.26,-3.5 2.93,-0.05 5.56,0.41 7.95,1.36 2.93,0.95 5.24,2.28 6.92,3.96 4.4,3.88 7.11,9.11 8.11,15.74l2.55 0 -2.55 -23.85 -2.72 0c0.17,1.28 -0.35,2.09 -1.57,2.39 -1.17,0.32 -3.45,-0.19 -6.84,-1.58 -3.99,-1.44 -7.97,-2.15 -12.02,-2.15zm90.25 0.3c-9.55,0.11 -17.42,3.74 -23.61,10.91l0 -49.3 -30.69 4.61 0 2.87c7.63,-1.44 11.45,2.45 11.45,11.59l0 81.56c0,11.15 -3.83,16.77 -11.45,16.85l0 2.8 41.82 0 0 -2.8c-7.44,-0.13 -11.13,-5.75 -11.13,-16.85l0 -37.74c0.05,-4.78 1.49,-8.93 4.37,-12.48 3.07,-3.56 6.76,-5.32 11.05,-5.32 4.5,0 8.3,1.76 11.37,5.32 2.96,3.66 4.42,7.81 4.37,12.48l0 37.74c0.05,11.15 -3.72,16.77 -11.37,16.85l0 2.8 41.56 0 0 -2.8c-7.46,-0.13 -11.23,-5.75 -11.28,-16.85l0 -34.98c-0.14,-8.9 -2.47,-15.65 -6.98,-20.27 -4.94,-4.77 -11.42,-7.08 -19.48,-7zm42.51 7.24c7.41,-1.33 11.1,2.38 11.05,11.12l0 44.52c0.05,10.45 -3.64,15.85 -11.05,16.2l0 2.8 41.49 0 0 -2.8c-7.3,-0.41 -10.99,-5.8 -11.05,-16.2l0 -62.89 -30.44 4.45 0 2.8zm28.14 -39.83c-2.06,-2.28 -4.64,-3.42 -7.76,-3.42 -3.1,0 -5.75,1.09 -7.98,3.23 -2.23,2.14 -3.34,4.83 -3.34,8.06 0,3.23 1.11,5.94 3.34,8.11 2.23,2.17 4.88,3.25 7.98,3.25 3.12,0 5.72,-1.08 7.87,-3.25 2.14,-2.17 3.23,-4.88 3.23,-8.11 0,-3.23 -1.11,-5.86 -3.34,-7.87zm29.74 -3.66c2.58,0 4.88,0.59 6.92,1.76 3.52,2.17 6.05,5.83 7.54,10.96 1.49,5.21 1.52,10.61 0.16,16.23 -1.6,6.24 -4.72,11.53 -9.39,15.81 -4.56,4.13 -9.82,6.84 -15.82,8.12l0 -5.43c4.12,-1.57 7.74,-4.07 10.8,-7.46 3.26,-3.6 5.48,-7.43 6.7,-11.53 0.41,-1.57 0.65,-3.45 0.7,-5.56 0,-2.06 -0.65,-2.52 -1.9,-1.36 -1.76,1.04 -3.66,1.55 -5.73,1.6 -3.15,0.11 -5.83,-0.98 -8.11,-3.26 -2.33,-2.33 -3.51,-5.07 -3.51,-8.2 0,-3.39 1.09,-6.13 3.26,-8.27 2.33,-2.28 5.1,-3.42 8.36,-3.42zm48.08 35.95c-8,-0.05 -14.32,2.15 -19,6.6 -4.34,4.4 -6.62,9.9 -6.83,16.52 -0.22,10.07 4.48,17.5 14.08,22.28 2.17,0.9 5.56,2.2 10.17,3.88 3.61,1.11 7.6,2.63 11.99,4.53 3.28,1.43 5.67,3.04 7.16,4.85 2.06,2.61 2.85,5.67 2.38,9.23 -0.22,3.58 -2,6.51 -5.34,8.74 -3.64,2.39 -8.47,3.15 -14.47,2.31 -6.84,-1.05 -12.72,-3.91 -17.63,-8.51 -2.33,-2.23 -3.93,-4.32 -4.78,-6.27 -0.84,-2.11 -1.46,-4.59 -1.82,-7.41l-2.55 0 0.46 25.45 2.63 0c0.05,-2.01 0.73,-3.26 2.06,-3.74 1.39,-0.51 5.29,0.41 11.7,2.79 2.9,1 6.19,1.71 9.77,2.14 9.5,0.95 16.88,-1.19 22.19,-6.43 5.19,-5.32 7.98,-11.64 8.33,-19.02 0.44,-9.57 -3.5,-16.9 -11.75,-21.92 -3.04,-1.82 -8.16,-3.93 -15.44,-6.38 -7.79,-2.96 -12.57,-5.32 -14.38,-7.06 -2.11,-2.22 -3.06,-4.78 -2.85,-7.65 0.3,-3.06 1.57,-5.51 3.8,-7.3 2.82,-2.38 6.24,-3.55 10.25,-3.5 2.93,-0.05 5.56,0.41 7.95,1.36 2.93,0.95 5.24,2.28 6.92,3.96 4.4,3.88 7.11,9.11 8.11,15.74l2.55 0 -2.55 -23.85 -2.71 0c0.16,1.28 -0.35,2.09 -1.57,2.39 -1.17,0.32 -3.45,-0.19 -6.84,-1.58 -3.99,-1.44 -7.98,-2.15 -12.02,-2.15zm95.56 -33.48l0 3.17c9.58,0.06 14.38,4.94 14.38,14.66l0 80.13c0,9.96 -4.8,14.81 -14.38,14.54l0 3.18 49.11 0 0 -3.18c-9.57,0.16 -14.38,-4.69 -14.38,-14.54l0 -40.86 56.76 0 0 40.86c0,9.96 -4.8,14.81 -14.38,14.54l0 3.18 49.03 0 0 -3.18c-9.52,0.16 -14.3,-4.69 -14.3,-14.54l0 -80.13c0,-9.98 4.78,-14.85 14.3,-14.66l0 -3.17 -49.03 0 0 3.17c9.58,0.06 14.38,4.94 14.38,14.66l0 35.76 -56.76 0 0 -35.76c0,-9.98 4.8,-14.85 14.38,-14.66l0 -3.17 -49.11 0zm170.51 33.32c-11.67,0 -21.19,4.15 -28.62,12.48 -7.3,8.11 -10.97,18.21 -10.97,30.28 0,11.67 3.67,21.41 10.97,29.25 7.49,7.95 16.52,11.94 27.11,11.94 9.61,0 17.86,-3.01 24.8,-8.98 7,-6.05 11.59,-14.41 13.76,-25.05l-2.55 0c-2.28,7.63 -5.73,13.76 -10.31,18.42 -4.61,4.67 -10.31,7.08 -17.09,7.25 -7.84,0.22 -14.41,-3.31 -19.64,-10.58 -5.24,-7.3 -7.51,-16.04 -6.84,-26.21l57.47 0c-0.51,-11.78 -4.12,-21.19 -10.8,-28.24 -6.57,-7.03 -15.66,-10.55 -27.27,-10.55zm-0.41 3.58c4.21,-0.16 7.76,1.73 10.75,5.73 3.01,3.91 4.99,8.17 5.94,12.78 1.08,4.56 1.52,8.82 1.36,12.8l-36.8 0c0.22,-3.12 0.65,-6.29 1.36,-9.55 0.68,-3.34 1.71,-6.65 3.09,-9.93 1.38,-3.39 3.28,-6.16 5.73,-8.33 2.55,-2.23 5.4,-3.39 8.57,-3.5zm77.85 -3.58c-9.93,0.1 -17.72,2.46 -23.39,7.08 -3.45,2.79 -5.02,5.7 -4.75,8.65 0.3,2.06 1.22,3.66 2.69,4.78 1.76,1.16 3.5,1.51 5.26,1.11 1.63,-0.32 3.04,-1.14 4.2,-2.47 1.28,-1.33 2.36,-3.1 3.26,-5.32 1.74,-4.37 2.9,-6.79 3.5,-7.33 1.85,-1.74 4.94,-2.63 9.23,-2.63 10.52,0 15.87,3.44 15.98,10.34 0.14,9.06 -10.04,17.2 -30.52,24.42 -12.32,4.23 -18.45,11.86 -18.45,22.87 0,6.83 2.25,12.29 6.76,16.31 4.61,3.96 10.34,6.1 17.17,6.35 6.13,0.06 11.4,-1.14 15.74,-3.55 4.51,-2.55 7.79,-5.51 9.85,-8.85 0.65,7.9 6.32,11.86 17.01,11.86 5.67,0 11.48,-1.98 17.42,-5.97l-1.27 -2.47c-4.23,2.77 -7.87,3.83 -10.91,3.2 -2.63,-0.81 -3.97,-3.66 -3.97,-8.6l0 -39.91c0.05,-7.08 -1.03,-12.8 -3.25,-17.15 -4.24,-8.49 -14.76,-12.72 -31.56,-12.72zm15.98 28.68l0 20.59c0,8.06 -1.46,14.71 -4.4,19.97 -2.79,5.18 -6.84,7.78 -12.15,7.78 -4.34,0.06 -7.65,-1.6 -9.93,-4.93 -2.17,-3.34 -3.34,-7.19 -3.5,-11.53 -0.06,-4.4 0.84,-8.3 2.71,-11.75 1.84,-3.5 4.74,-6.19 8.66,-8.03 9.44,-4.72 15.63,-8.74 18.61,-12.1zm68.05 -28.52l0 -38.09 -30.69 4.61 0 2.87c7.79,-1.44 11.62,2.45 11.45,11.59l0 81.56c0,11.15 -3.83,16.8 -11.45,16.93l0 2.71 41.82 0 0 -2.71c-7.43,-0.13 -11.13,-5.78 -11.13,-16.93l0 -62.55zm44.04 -27.27c-2.28,7.13 -6.08,13.7 -11.37,19.62 -5.24,5.89 -10.83,9.58 -16.77,11.07l0 2.44 11.29 0 0 57.26c0,19.18 10.72,25.07 32.18,17.63 3.93,-1.41 6.83,-2.66 8.76,-3.72l-1.28 -4.4c-3.61,1.6 -6.11,2.6 -7.49,3.04 -4.24,1.22 -7.41,0.65 -9.53,-1.69 -2.17,-2.5 -3.25,-6.7 -3.25,-12.64l0 -55.49 16.44 0 0 -3.8 -16.44 0 0 -29.33 -2.55 0zm83.17 27.57c-9.55,0.11 -17.42,3.74 -23.61,10.91l0 -49.3 -30.69 4.61 0 2.87c7.63,-1.44 11.45,2.45 11.45,11.59l0 81.56c0,11.15 -3.83,16.77 -11.45,16.85l0 2.8 41.82 0 0 -2.8c-7.43,-0.13 -11.13,-5.75 -11.13,-16.85l0 -37.74c0.06,-4.78 1.5,-8.93 4.37,-12.48 3.07,-3.56 6.76,-5.32 11.05,-5.32 4.5,0 8.3,1.76 11.37,5.32 2.96,3.66 4.42,7.81 4.37,12.48l0 37.74c0.05,11.15 -3.71,16.77 -11.37,16.85l0 2.8 41.57 0 0 -2.8c-7.46,-0.13 -11.23,-5.75 -11.29,-16.85l0 -34.98c-0.14,-8.9 -2.47,-15.65 -6.97,-20.27 -4.94,-4.77 -11.42,-7.08 -19.48,-7zm83.3 -0.3c-13.05,0 -23.12,4.15 -30.2,12.48 -7,8.06 -10.53,18.27 -10.58,30.69 0.06,11.53 3.86,21.24 11.37,29.09 7.3,7.79 16.58,11.69 27.81,11.75 9.01,0 16.52,-2.9 22.49,-8.74 6.32,-6.05 10.36,-14.35 12.18,-24.96l-2.55 0c-4.4,16.85 -12.59,25.53 -24.56,25.99 -7.71,0.22 -14,-2.93 -18.94,-9.44 -4.91,-6.7 -7.49,-14.65 -7.7,-23.85 -0.11,-6.22 0.63,-12.24 2.14,-18.04 1.66,-5.83 4.21,-10.77 7.63,-14.79 3.56,-4.2 7.62,-6.29 12.18,-6.29 4.18,0.05 7.22,0.95 9.14,2.71 0.79,0.62 1.77,2.96 2.93,7 0.89,2.85 1.93,4.86 3.1,6.03 1.16,1.22 2.6,2.06 4.29,2.47 1.92,0.32 3.66,0 5.27,-0.95 1.79,-1.06 2.79,-2.6 3.01,-4.61 0.44,-3.18 -1.19,-6.19 -4.85,-9.06 -6.24,-4.99 -14.3,-7.46 -24.15,-7.46zm72.42 -0.16c-9.93,0.1 -17.72,2.46 -23.39,7.08 -3.44,2.79 -5.02,5.7 -4.75,8.65 0.3,2.06 1.22,3.66 2.69,4.78 1.77,1.16 3.5,1.51 5.26,1.11 1.63,-0.32 3.04,-1.14 4.21,-2.47 1.28,-1.33 2.36,-3.1 3.26,-5.32 1.73,-4.37 2.9,-6.79 3.5,-7.33 1.85,-1.74 4.94,-2.63 9.23,-2.63 10.52,0 15.87,3.44 15.98,10.34 0.14,9.06 -10.04,17.2 -30.52,24.42 -12.32,4.23 -18.45,11.86 -18.45,22.87 0,6.83 2.25,12.29 6.76,16.31 4.61,3.96 10.34,6.1 17.17,6.35 6.13,0.06 11.39,-1.14 15.73,-3.55 4.51,-2.55 7.79,-5.51 9.85,-8.85 0.65,7.9 6.32,11.86 17.01,11.86 5.68,0 11.48,-1.98 17.42,-5.97l-1.28 -2.47c-4.23,2.77 -7.87,3.83 -10.91,3.2 -2.63,-0.81 -3.96,-3.66 -3.96,-8.6l0 -39.91c0.05,-7.08 -1.03,-12.8 -3.26,-17.15 -4.23,-8.49 -14.76,-12.72 -31.55,-12.72zm15.98 28.68l0 20.59c0,8.06 -1.47,14.71 -4.4,19.97 -2.8,5.18 -6.84,7.78 -12.16,7.78 -4.34,0.06 -7.65,-1.6 -9.93,-4.93 -2.18,-3.34 -3.34,-7.19 -3.5,-11.53 -0.06,-4.4 0.84,-8.3 2.71,-11.75 1.84,-3.5 4.75,-6.19 8.65,-8.03 9.44,-4.72 15.63,-8.74 18.62,-12.1zm65.01 -28.22l-27.65 4.45 0 2.71c7.16,-1.11 10.71,2.91 10.71,11.99l0 42.93c0,11.1 -3.55,16.79 -10.71,17.09l0 2.71 40.7 0 0 -2.71c-7.27,-0.13 -10.88,-5.83 -10.88,-17.09l0 -32.02c0,-6.51 1.55,-12.27 4.66,-17.26 3.26,-4.99 6.49,-7.65 9.71,-8.03 2.28,-0.36 4.34,0.16 6.19,1.6 1.5,0.95 2.93,2.85 4.32,5.73 1.06,2.33 2.28,4.04 3.69,5.13 1.41,1.08 3.18,1.63 5.32,1.63 2.14,0 3.8,-0.7 4.93,-2.12 1.14,-1.41 1.71,-3.01 1.71,-4.8 0,-3.33 -1.87,-6.07 -5.56,-8.2 -4.31,-2.44 -9.14,-3.69 -14.57,-3.74 -8.9,0 -15.71,3.8 -20.4,11.37 0,-5.78 -0.73,-9.55 -2.17,-11.37zm81.51 -0.46c-11.67,0 -21.19,4.15 -28.62,12.48 -7.3,8.11 -10.97,18.21 -10.97,30.28 0,11.67 3.67,21.41 10.97,29.25 7.49,7.95 16.52,11.94 27.11,11.94 9.61,0 17.85,-3.01 24.8,-8.98 7,-6.05 11.59,-14.41 13.76,-25.05l-2.55 0c-2.28,7.63 -5.73,13.76 -10.31,18.42 -4.61,4.67 -10.31,7.08 -17.09,7.25 -7.84,0.22 -14.41,-3.31 -19.65,-10.58 -5.24,-7.3 -7.51,-16.04 -6.83,-26.21l57.47 0c-0.51,-11.78 -4.12,-21.19 -10.8,-28.24 -6.56,-7.03 -15.66,-10.55 -27.27,-10.55zm-0.41 3.58c4.2,-0.16 7.76,1.73 10.75,5.73 3.01,3.91 4.99,8.17 5.94,12.78 1.08,4.56 1.52,8.82 1.36,12.8l-36.8 0c0.22,-3.12 0.65,-6.29 1.36,-9.55 0.68,-3.34 1.71,-6.65 3.1,-9.93 1.38,-3.39 3.28,-6.16 5.72,-8.33 2.55,-2.23 5.4,-3.39 8.58,-3.5z"/>
   </g>
   <path class="fil5" d="M2269.81 124.63l0 4.12 -8.12 0 0 22.86 -5.02 0 0 -22.86 -8.15 0 0 -4.12 21.29 0zm16.74 15.78c0.21,0.4 0.41,0.81 0.59,1.24 0.18,0.43 0.35,0.87 0.53,1.3 0.18,-0.45 0.36,-0.89 0.54,-1.32 0.18,-0.44 0.39,-0.85 0.59,-1.25l7.99 -14.95c0.1,-0.18 0.21,-0.34 0.31,-0.45 0.1,-0.11 0.22,-0.19 0.35,-0.24 0.13,-0.05 0.27,-0.08 0.44,-0.09 0.16,-0.01 0.36,-0.02 0.58,-0.02l3.79 0 0 26.98 -4.42 0 0 -17.43c0,-0.32 0.01,-0.68 0.03,-1.06 0.02,-0.39 0.04,-0.78 0.08,-1.17l-8.15 15.3c-0.19,0.35 -0.43,0.62 -0.73,0.81 -0.3,0.19 -0.65,0.29 -1.05,0.29l-0.69 0c-0.4,0 -0.75,-0.1 -1.05,-0.29 -0.3,-0.19 -0.54,-0.46 -0.72,-0.81l-8.27 -15.36c0.05,0.41 0.09,0.81 0.11,1.2 0.02,0.39 0.03,0.76 0.03,1.1l0 17.43 -4.42 0 0 -26.98 3.79 0c0.22,0 0.41,0.01 0.58,0.02 0.16,0.01 0.31,0.04 0.44,0.09 0.13,0.05 0.25,0.13 0.36,0.24 0.11,0.11 0.22,0.26 0.32,0.45l8.06 14.98z"/>
  </g>
 </g>
</svg>
