<?xml version="1.0" encoding="UTF-8"?>
<!DOCTYPE svg PUBLIC "-//W3C//DTD SVG 1.1//EN" "http://www.w3.org/Graphics/SVG/1.1/DTD/svg11.dtd">
<!-- Creator: CorelDRAW 2020 (64-Bit) -->
<svg xmlns="http://www.w3.org/2000/svg" xml:space="preserve" width="12.6376in" height="2.5073in" version="1.1" style="shape-rendering:geometricPrecision; text-rendering:geometricPrecision; image-rendering:optimizeQuality; fill-rule:evenodd; clip-rule:evenodd"
viewBox="0 0 4271.49 847.46"
 xmlns:xlink="http://www.w3.org/1999/xlink"
 xmlns:xodm="http://www.corel.com/coreldraw/odm/2003">
 <defs>
  <style type="text/css">
   <![CDATA[
    .fil13 {fill:#4B4B4D}
    .fil0 {fill:#19A855;fill-rule:nonzero}
    .fil1 {fill:#1D63A7;fill-rule:nonzero}
    .fil12 {fill:#2A2929;fill-rule:nonzero}
    .fil2 {fill:white;fill-rule:nonzero}
    .fil7 {fill:url(#id0)}
    .fil8 {fill:url(#id1)}
    .fil10 {fill:url(#id2)}
    .fil6 {fill:url(#id3)}
    .fil3 {fill:url(#id4)}
    .fil5 {fill:url(#id5)}
    .fil4 {fill:url(#id6)}
    .fil9 {fill:url(#id7)}
    .fil11 {fill:url(#id8)}
   ]]>
  </style>
  <linearGradient id="id0" gradientUnits="userSpaceOnUse" x1="2467.9" y1="740.21" x2="2467.9" y2="-75.42">
   <stop offset="0" style="stop-opacity:1; stop-color:#1D63A7"/>
   <stop offset="0.0196078" style="stop-opacity:1; stop-color:#1D63A7"/>
   <stop offset="1" style="stop-opacity:1; stop-color:#19A855"/>
  </linearGradient>
  <linearGradient id="id1" gradientUnits="userSpaceOnUse" xlink:href="#id0" x1="2667.1" y1="740.21" x2="2667.1" y2="-75.42">
  </linearGradient>
  <linearGradient id="id2" gradientUnits="userSpaceOnUse" xlink:href="#id0" x1="3110.82" y1="740.21" x2="3110.82" y2="-75.42">
  </linearGradient>
  <linearGradient id="id3" gradientUnits="userSpaceOnUse" xlink:href="#id0" x1="2375.12" y1="740.21" x2="2375.12" y2="-75.42">
  </linearGradient>
  <linearGradient id="id4" gradientUnits="userSpaceOnUse" xlink:href="#id0" x1="1695.4" y1="740.21" x2="1695.4" y2="-75.42">
  </linearGradient>
  <linearGradient id="id5" gradientUnits="userSpaceOnUse" xlink:href="#id0" x1="2141.71" y1="740.21" x2="2141.71" y2="-75.42">
  </linearGradient>
  <linearGradient id="id6" gradientUnits="userSpaceOnUse" xlink:href="#id0" x1="1917.27" y1="740.21" x2="1917.27" y2="-75.42">
  </linearGradient>
  <linearGradient id="id7" gradientUnits="userSpaceOnUse" xlink:href="#id0" x1="2881.69" y1="740.21" x2="2881.69" y2="-75.42">
  </linearGradient>
  <linearGradient id="id8" gradientUnits="userSpaceOnUse" xlink:href="#id0" x1="3333.12" y1="740.21" x2="3333.12" y2="-75.42">
  </linearGradient>
 </defs>
 <g id="Layer_x0020_1">
  <metadata id="CorelCorpID_0Corel-Layer"/>
  <g id="_1515639766080">
   <path class="fil0" d="M-0 649.61l0 -466.46c0,-39.67 31.92,-71.81 71.24,-71.81l565.53 0c39.34,0 71.26,32.14 71.26,71.81l0 217.23c-70.7,-36.24 -150.83,-56.69 -235.74,-56.69 -142.77,0 -272.06,57.85 -365.68,151.4 -44.32,44.29 -80.64,96.58 -106.62,154.52z"/>
   <path class="fil1" d="M708.03 734.16c0,39.69 -31.92,71.85 -71.26,71.85l-565.53 0c-39.32,0 -71.24,-32.16 -71.24,-71.85l0 -29.3c24.65,-74.56 66.46,-141.32 120.75,-195.57 89.98,-89.91 214.26,-145.51 351.55,-145.51 85.3,0 165.58,21.48 235.74,59.31l0 311.07z"/>
   <path class="fil2" d="M171.47 808.02l0 -297.73c0,-115.79 -2.11,-199.53 -7.4,-287.4l3.17 -1.03c35.93,75.47 83.49,155.07 133.17,232.6l226.18 353.56 93 0 0 -696.78 -86.67 0 0 291.53c0,108.55 2.12,193.32 10.57,286.37l-2.11 1.03c-33.82,-71.33 -75.04,-144.73 -127.88,-226.4l-228.29 -352.53 -100.41 0 0 696.78 86.67 0z"/>
   <path class="fil3" d="M792.96 592.3l75.26 0 0 -381.33 191.5 323.22c13.13,22.2 21.4,35.3 24.81,39.28l0 0c10.81,12.54 24.2,18.83 40.21,18.83l44.44 0 0 -480.52 -76.95 0 0 321.48 -171.38 -285.6c-7.93,-13.06 -14.76,-21.87 -20.38,-26.43l0 0c-7.93,-6.31 -18.71,-9.44 -32.25,-9.44l0 0 -75.26 0 0 480.52z"/>
   <path class="fil4" d="M1303.06 592.3l243.19 0c47.88,0 71.81,-25.09 71.81,-75.24l0 0 0 -331.7c0,-22.28 -6.4,-40.06 -19.23,-53.47l0 0c-12.85,-13.41 -30.36,-20.1 -52.58,-20.1l0 0 -239.39 0c-46.8,0 -70.17,25.08 -70.17,75.24l0 331.73c0,49.06 22.13,73.54 66.36,73.54zm3.81 -406.94l239.39 0 0 331.7 -239.39 0 0 -331.7z"/>
   <path class="fil5" d="M2012.23 108.37l-326.65 0 0 483.93 307.81 0c62.69,0 94.07,-23.95 94.07,-71.83l0 0 0 -135.04c0,-20.53 -14.24,-33.07 -42.77,-37.65l0 0c27.36,-3.43 41.03,-14.86 41.03,-34.2l0 0 0 -136.8c0,-18.25 -7.74,-34.2 -23.1,-47.85l0 0c-15.37,-13.71 -32.2,-20.55 -50.39,-20.55zm-253.1 68.4l253.1 0 0 140.26 -253.1 0 0 -140.26zm0 208.66l253.1 0 0 135.08 -253.1 0 0 -135.08z"/>
   <polygon class="fil6" points="2152.4,592.3 2231.1,592.3 2231.1,108.33 2152.4,108.33 "/>
   <path class="fil7" d="M2380.71 592.3l256.51 0 0 -80.39 -256.51 0 0 -401.83 -82.13 0 0 401.83c0,53.58 27.41,80.39 82.13,80.39z"/>
   <polygon class="fil8" points="2657.7,592.3 2736.36,592.3 2736.36,108.33 2657.7,108.33 "/>
   <polygon class="fil9" points="2936.4,592.3 3009.92,592.3 3009.92,180.2 3165.53,180.2 3165.53,110.07 2787.62,110.07 2787.62,180.2 2936.4,180.2 "/>
   <path class="fil10" d="M3203.19 592.3l75.22 0 0 -169.3 270.19 0 0 169.3 75.19 0 0 -406.94c0,-53.58 -25.06,-80.42 -75.19,-80.42l0 0 -270.19 0c-50.15,0 -75.22,25.67 -75.22,76.95l0 0 0 410.41zm75.22 -410.41l270.16 0 0 171 -270.16 0 0 -171z"/>
   <path class="fil11" d="M3690.49 592.3l302.63 0c50.19,0 75.29,-32.74 75.29,-98.32l0 0 0 -101.78c0,-19.36 -5.72,-36.44 -17.07,-51.27l0 0c-11.42,-14.8 -26.82,-22.2 -46.16,-22.2l0 0 -242.85 0 0 -132.56 306.08 0 0 -76.1 -309.48 0c-47.91,0 -71.85,23.94 -71.85,71.81l0 152.31c0.05,2.36 1.76,7.13 5.16,14.43l0 0c11.98,27.91 34.74,41.88 68.42,41.88l0 0 234.25 0 0 126.55 -304.41 0 0 75.24z"/>
   <polygon class="fil12" points="871.95,717.29 815.95,717.29 815.95,671.77 875.16,671.77 875.16,656.16 797.36,656.16 797.36,800.23 878.36,800.23 878.36,784.62 815.95,784.62 815.95,732.68 871.95,732.68 "/>
   <path class="fil12" d="M912.56 800.23l18.24 0 0 -62.42c0,-3.2 0.43,-6.41 1.49,-9.19 2.97,-9.41 11.45,-18.81 23.11,-18.81 14.21,0 21.42,11.97 21.42,28.43l0 61.99 18.24 0 0 -63.91c0,-3.42 0.64,-6.84 1.49,-9.41 3.18,-9.19 11.45,-17.1 22.05,-17.1 15.05,0 22.27,11.97 22.27,31.84l0 58.57 18.24 0 0 -60.92c0,-35.91 -20.15,-44.89 -33.72,-44.89 -9.75,0 -16.54,2.57 -22.69,7.27 -4.24,3.2 -8.27,7.69 -11.45,13.46l-0.42 0c-4.45,-12.18 -15.06,-20.73 -29.05,-20.73 -16.96,0 -26.51,9.19 -32.24,19.03l-0.64 0 -0.84 -16.68 -16.33 0c0.64,8.55 0.85,17.32 0.85,28l0 75.45zm187.47 42.32l18.45 0 0 -56.22 0.42 0c6.15,10.26 18.03,16.25 31.6,16.25 24.18,0 46.65,-18.38 46.65,-55.57 0,-31.42 -18.66,-52.58 -43.47,-52.58 -16.75,0 -28.84,7.48 -36.48,20.09l-0.42 0 -0.85 -17.74 -16.75 0c0.43,9.84 0.85,20.52 0.85,33.77l0 112zm18.45 -102.17c0,-2.57 0.64,-5.34 1.27,-7.69 3.6,-14.11 15.48,-23.3 28.2,-23.3 19.72,0 30.54,17.74 30.54,38.47 0,23.73 -11.45,39.97 -31.18,39.97 -13.36,0 -24.6,-8.98 -27.99,-22.02 -0.43,-2.35 -0.85,-4.92 -0.85,-7.69l0 -17.74zm156.29 -45.95c-28.42,0 -50.89,20.31 -50.89,54.93 0,32.7 21.42,53.22 49.2,53.22 24.81,0 51.11,-16.67 51.11,-54.93 0,-31.63 -19.93,-53.23 -49.41,-53.23zm-0.42 14.11c22.05,0 30.75,22.23 30.75,39.76 0,23.3 -13.36,40.18 -31.17,40.18 -18.24,0 -31.18,-17.1 -31.18,-39.76 0,-19.66 9.55,-40.18 31.6,-40.18zm70.83 -11.76l30.96 103.46 16.96 0 16.54 -49.16c3.6,-11.11 6.79,-21.8 9.33,-34.2l0.42 0c2.55,12.19 5.51,22.44 9.12,33.98l15.69 49.38 16.97 0 33.08 -103.46 -18.45 0 -14.63 51.94c-3.4,12.18 -6.15,23.09 -7.85,33.56l-0.64 0c-2.33,-10.47 -5.3,-21.38 -9.12,-33.77l-15.9 -51.73 -15.7 0 -16.75 52.8c-3.4,11.12 -6.79,22.23 -9.12,32.7l-0.64 0c-1.9,-10.69 -4.66,-21.38 -7.63,-32.92l-13.57 -52.58 -19.09 0zm258.72 55.15c0.21,-1.92 0.64,-4.92 0.64,-8.76 0,-19.03 -8.91,-48.74 -42.41,-48.74 -29.9,0 -48.14,24.58 -48.14,55.79 0,31.21 18.87,52.16 50.47,52.16 16.33,0 27.57,-3.42 34.15,-6.41l-3.18 -13.46c-7,2.99 -15.06,5.34 -28.42,5.34 -18.66,0 -34.78,-10.47 -35.2,-35.91l72.1 0zm-71.89 -13.47c1.48,-13.04 9.75,-30.56 28.63,-30.56 21,0 26.09,18.6 25.87,30.56l-54.5 0zm106.25 61.78l18.45 0 0 -55.15c0,-3.21 0.42,-6.2 0.85,-8.76 2.54,-14.11 11.87,-24.15 25.02,-24.15 2.55,0 4.46,0.21 6.36,0.64l0 -17.74c-1.7,-0.43 -3.18,-0.64 -5.3,-0.64 -12.51,0 -23.75,8.76 -28.42,22.66l-0.84 0 -0.64 -20.31 -16.33 0c0.64,9.62 0.85,20.09 0.85,32.28l0 71.18zm99.49 0l0 -103.46 -18.66 0 0 103.46 18.66 0zm-9.33 -144.28c-6.79,0 -11.66,5.13 -11.66,11.76 0,6.42 4.66,11.55 11.24,11.55 7.42,0 12.09,-5.13 11.88,-11.55 0,-6.62 -4.46,-11.76 -11.45,-11.76zm50.9 144.28l18.66 0 0 -62.2c0,-3.21 0.42,-6.41 1.27,-8.76 3.18,-10.47 12.72,-19.24 25.02,-19.24 17.6,0 23.75,13.9 23.75,30.57l0 59.64 18.66 0 0 -61.78c0,-35.48 -22.05,-44.03 -36.26,-44.03 -16.96,0 -28.84,9.62 -33.93,19.45l-0.42 0 -1.06 -17.1 -16.54 0c0.64,8.55 0.85,17.32 0.85,28l0 75.45zm200.4 -103.46l-0.85 15.6 -0.42 0c-4.45,-8.55 -14.21,-17.95 -32.02,-17.95 -23.54,0 -46.23,19.88 -46.23,54.93 0,28.64 18.24,50.45 43.69,50.45 15.9,0 26.93,-7.7 32.66,-17.31l0.42 0 0 11.54c0,26.08 -13.99,36.12 -33.08,36.12 -12.72,0 -23.33,-3.85 -30.11,-8.12l-4.67 14.32c8.27,5.56 21.84,8.55 34.14,8.55 12.94,0 27.36,-2.99 37.33,-12.4 9.96,-8.97 14.63,-23.51 14.63,-47.24l0 -60.06c0,-12.61 0.42,-20.95 0.84,-28.43l-16.33 0zm-2.97 59.42c0,3.21 -0.43,6.84 -1.49,10.05 -4.03,11.97 -14.42,19.24 -25.87,19.24 -20.15,0 -30.33,-16.89 -30.33,-37.19 0,-23.94 12.73,-39.11 30.54,-39.11 13.57,0 22.69,8.97 26.08,19.88 0.85,2.56 1.06,5.34 1.06,8.55l0 18.6zm134.67 44.03l18.66 0 0 -128.25 43.69 0 0 -15.82 -105.83 0 0 15.82 43.48 0 0 128.25zm86.73 0l18.66 0 0 -62.42c0,-3.63 0.21,-6.41 1.27,-8.97 3.39,-10.26 12.94,-18.81 25.02,-18.81 17.6,0 23.75,14.11 23.75,30.78l0 59.42 18.66 0 0 -61.56c0,-35.69 -22.05,-44.25 -35.84,-44.25 -7,0 -13.57,2.14 -19.09,5.35 -5.72,3.21 -10.39,7.91 -13.36,13.25l-0.42 0 0 -64.55 -18.66 0 0 151.76zm128.3 0l18.45 0 0 -55.15c0,-3.21 0.42,-6.2 0.85,-8.76 2.54,-14.11 11.87,-24.15 25.02,-24.15 2.55,0 4.46,0.21 6.36,0.64l0 -17.74c-1.7,-0.43 -3.18,-0.64 -5.3,-0.64 -12.51,0 -23.75,8.76 -28.42,22.66l-0.85 0 -0.64 -20.31 -16.33 0c0.64,9.62 0.85,20.09 0.85,32.28l0 71.18zm121.3 -105.81c-28.42,0 -50.89,20.31 -50.89,54.93 0,32.7 21.42,53.22 49.2,53.22 24.81,0 51.11,-16.67 51.11,-54.93 0,-31.63 -19.93,-53.23 -49.41,-53.23zm-0.42 14.11c22.05,0 30.75,22.23 30.75,39.76 0,23.3 -13.36,40.18 -31.17,40.18 -18.24,0 -31.18,-17.1 -31.18,-39.76 0,-19.66 9.55,-40.18 31.6,-40.18zm169.87 -11.76l-18.66 0 0 63.48c0,3.42 -0.64,6.84 -1.7,9.62 -3.4,8.33 -12.09,17.1 -24.6,17.1 -16.96,0 -22.9,-13.25 -22.9,-32.92l0 -57.28 -18.66 0 0 60.49c0,36.34 19.3,45.31 35.41,45.31 18.24,0 29.05,-10.9 33.93,-19.24l0.43 0 1.06 16.89 16.54 0c-0.64,-8.12 -0.84,-17.53 -0.84,-28.22l0 -75.24zm113.66 0l-0.85 15.6 -0.42 0c-4.46,-8.55 -14.21,-17.95 -32.02,-17.95 -23.54,0 -46.23,19.88 -46.23,54.93 0,28.64 18.24,50.45 43.69,50.45 15.9,0 26.93,-7.7 32.66,-17.31l0.42 0 0 11.54c0,26.08 -13.99,36.12 -33.08,36.12 -12.72,0 -23.33,-3.85 -30.11,-8.12l-4.67 14.32c8.27,5.56 21.85,8.55 34.15,8.55 12.94,0 27.36,-2.99 37.33,-12.4 9.96,-8.97 14.63,-23.51 14.63,-47.24l0 -60.06c0,-12.61 0.42,-20.95 0.84,-28.43l-16.33 0zm-2.97 59.42c0,3.21 -0.43,6.84 -1.49,10.05 -4.03,11.97 -14.42,19.24 -25.87,19.24 -20.14,0 -30.33,-16.89 -30.33,-37.19 0,-23.94 12.73,-39.11 30.54,-39.11 13.57,0 22.69,8.97 26.08,19.88 0.85,2.56 1.06,5.34 1.06,8.55l0 18.6zm60.02 44.03l18.66 0 0 -62.42c0,-3.63 0.21,-6.41 1.27,-8.97 3.39,-10.26 12.94,-18.81 25.02,-18.81 17.6,0 23.75,14.11 23.75,30.78l0 59.42 18.66 0 0 -61.56c0,-35.69 -22.05,-44.25 -35.84,-44.25 -7,0 -13.57,2.14 -19.09,5.35 -5.72,3.21 -10.39,7.91 -13.36,13.25l-0.42 0 0 -64.55 -18.66 0 0 151.76zm202.95 0l18.66 0 0 -128.25 43.68 0 0 -15.82 -105.82 0 0 15.82 43.48 0 0 128.25zm155.65 -48.31c0.21,-1.92 0.64,-4.92 0.64,-8.76 0,-19.03 -8.91,-48.74 -42.41,-48.74 -29.9,0 -48.14,24.58 -48.14,55.79 0,31.21 18.87,52.16 50.47,52.16 16.33,0 27.57,-3.42 34.14,-6.41l-3.18 -13.46c-7,2.99 -15.06,5.34 -28.42,5.34 -18.66,0 -34.78,-10.47 -35.2,-35.91l72.1 0zm-71.89 -13.47c1.48,-13.04 9.75,-30.56 28.63,-30.56 21,0 26.09,18.6 25.87,30.56l-54.5 0zm176.23 43.82c-5.3,2.35 -12.3,5.13 -22.9,5.13 -20.36,0 -35.63,-14.75 -35.63,-38.69 0,-21.59 12.73,-39.11 36.26,-39.11 10.18,0 17.18,2.35 21.63,4.92l4.24 -14.54c-5.09,-2.57 -14.84,-5.34 -25.88,-5.34 -33.5,0 -55.13,23.09 -55.13,54.93 0,31.63 20.15,52.8 51.11,52.8 13.79,0 24.6,-3.42 29.48,-5.99l-3.18 -14.11zm35.63 17.95l18.66 0 0 -62.42c0,-3.63 0.21,-6.41 1.27,-8.97 3.39,-10.26 12.94,-18.81 25.02,-18.81 17.6,0 23.75,14.11 23.75,30.78l0 59.42 18.66 0 0 -61.56c0,-35.69 -22.05,-44.25 -35.84,-44.25 -6.99,0 -13.57,2.14 -19.08,5.35 -5.72,3.21 -10.39,7.91 -13.36,13.25l-0.42 0 0 -64.55 -18.66 0 0 151.76zm128.3 0l18.66 0 0 -62.2c0,-3.21 0.42,-6.41 1.27,-8.76 3.18,-10.47 12.72,-19.24 25.02,-19.24 17.6,0 23.75,13.9 23.75,30.57l0 59.64 18.66 0 0 -61.78c0,-35.48 -22.05,-44.03 -36.26,-44.03 -16.96,0 -28.84,9.62 -33.93,19.45l-0.42 0 -1.06 -17.1 -16.54 0c0.64,8.55 0.85,17.32 0.85,28l0 75.45zm171.77 -105.81c-28.42,0 -50.89,20.31 -50.89,54.93 0,32.7 21.42,53.22 49.2,53.22 24.81,0 51.11,-16.67 51.11,-54.93 0,-31.63 -19.93,-53.23 -49.41,-53.23zm-0.42 14.11c22.05,0 30.75,22.23 30.75,39.76 0,23.3 -13.36,40.18 -31.17,40.18 -18.24,0 -31.18,-17.1 -31.18,-39.76 0,-19.66 9.55,-40.18 31.6,-40.18zm83.98 91.69l18.66 0 0 -151.76 -18.66 0 0 151.76zm104.12 -105.81c-28.42,0 -50.89,20.31 -50.89,54.93 0,32.7 21.42,53.22 49.2,53.22 24.81,0 51.11,-16.67 51.11,-54.93 0,-31.63 -19.93,-53.23 -49.41,-53.23zm-0.42 14.11c22.05,0 30.75,22.23 30.75,39.76 0,23.3 -13.36,40.18 -31.17,40.18 -18.24,0 -31.18,-17.1 -31.18,-39.76 0,-19.66 9.55,-40.18 31.6,-40.18zm156.08 -11.76l-0.85 15.6 -0.42 0c-4.46,-8.55 -14.21,-17.95 -32.02,-17.95 -23.54,0 -46.23,19.88 -46.23,54.93 0,28.64 18.23,50.45 43.68,50.45 15.9,0 26.93,-7.7 32.66,-17.31l0.42 0 0 11.54c0,26.08 -13.99,36.12 -33.08,36.12 -12.72,0 -23.33,-3.85 -30.11,-8.12l-4.67 14.32c8.27,5.56 21.84,8.55 34.14,8.55 12.94,0 27.36,-2.99 37.33,-12.4 9.96,-8.97 14.63,-23.51 14.63,-47.24l0 -60.06c0,-12.61 0.42,-20.95 0.84,-28.43l-16.33 0zm-2.97 59.42c0,3.21 -0.43,6.84 -1.49,10.05 -4.03,11.97 -14.42,19.24 -25.87,19.24 -20.14,0 -30.33,-16.89 -30.33,-37.19 0,-23.94 12.73,-39.11 30.54,-39.11 13.57,0 22.69,8.97 26.08,19.88 0.85,2.56 1.06,5.34 1.06,8.55l0 18.6zm46.44 -59.42l37.96 95.33c0.85,2.35 1.27,3.85 1.27,4.92 0,1.07 -0.64,2.57 -1.48,4.49 -4.24,9.62 -10.6,16.89 -15.7,20.95 -5.51,4.71 -11.66,7.7 -16.33,9.19l4.66 15.82c4.66,-0.86 13.79,-4.06 22.9,-12.18 12.72,-11.12 21.84,-29.28 35.2,-64.77l27.99 -73.75 -19.72 0 -20.36 60.71c-2.54,7.48 -4.66,15.39 -6.57,21.59l-0.42 0c-1.7,-6.2 -4.24,-14.32 -6.58,-21.16l-22.48 -61.13 -20.36 0z"/>
   <path class="fil13" d="M4156.25 -0l0 14.65 -28.83 0 0 81.17 -17.83 0 0 -81.17 -28.96 0 0 -14.65 75.62 0zm59.44 56.06c0.76,1.42 1.46,2.87 2.1,4.39 0.64,1.54 1.25,3.07 1.87,4.62 0.63,-1.59 1.27,-3.16 1.93,-4.7 0.65,-1.55 1.37,-3.03 2.11,-4.44l28.37 -53.09c0.35,-0.65 0.73,-1.19 1.1,-1.59 0.37,-0.4 0.79,-0.68 1.25,-0.86 0.47,-0.18 0.97,-0.3 1.55,-0.33 0.58,-0.04 1.27,-0.06 2.06,-0.06l13.45 0 0 95.82 -15.71 0 0 -61.89c0,-1.15 0.04,-2.41 0.1,-3.78 0.06,-1.37 0.15,-2.77 0.29,-4.17l-28.96 54.34c-0.67,1.23 -1.52,2.19 -2.59,2.87 -1.06,0.69 -2.3,1.04 -3.71,1.04l-2.46 0c-1.41,0 -2.65,-0.34 -3.71,-1.04 -1.05,-0.68 -1.92,-1.64 -2.57,-2.87l-29.37 -54.55c0.18,1.46 0.32,2.88 0.38,4.26 0.06,1.4 0.09,2.7 0.09,3.89l0 61.89 -15.71 0 0 -95.82 13.45 0c0.79,0 1.47,0.03 2.05,0.06 0.58,0.04 1.1,0.15 1.57,0.33 0.46,0.18 0.88,0.46 1.28,0.86 0.4,0.4 0.77,0.93 1.13,1.59l28.62 53.22z"/>
  </g>
 </g>
</svg>
